<svg width="88" height="100" viewBox="0 0 88 100" fill="none" xmlns="http://www.w3.org/2000/svg">
<path fill-rule="evenodd" clip-rule="evenodd" d="M71.1274 33.7341C80.4463 33.7341 88.0009 26.1825 88.0009 16.8671C88.0009 7.55164 80.4463 0 71.1274 0C61.8084 0 54.2539 7.55164 54.2539 16.8671C54.2539 20.5922 55.4619 24.0353 57.5078 26.8262C54.9809 25.3179 52.0265 24.4513 48.8695 24.4513C39.5506 24.4513 31.996 32.0029 31.996 41.3183C31.996 41.7316 32.0109 42.1415 32.0402 42.5473C29.8793 38.1306 25.8445 34.7972 20.9711 33.5819C28.3099 31.7518 33.7469 25.1184 33.7469 17.2156C33.7469 7.90022 26.1924 0.348579 16.8735 0.348579C7.55451 0.348579 0 7.90022 0 17.2156C0 25.1184 5.43702 31.7518 12.7758 33.5819C5.43702 35.412 0 42.0454 0 49.9482C0 58.2229 5.9608 65.1059 13.8242 66.5406C5.9608 67.9752 0 74.8582 0 83.1329C0 92.4483 7.55451 100 16.8735 100C26.1924 100 33.7469 92.4483 33.7469 83.1329C33.7469 74.8582 27.7861 67.9752 19.9227 66.5406C27.7861 65.1059 33.7469 58.2229 33.7469 49.9482C33.7469 49.5349 33.7321 49.1251 33.7028 48.7192C36.4454 54.3248 42.2064 58.1854 48.8695 58.1854C58.1885 58.1854 65.743 50.6338 65.743 41.3183C65.743 37.5932 64.535 34.1501 62.4891 31.3592C65.016 32.8675 67.9704 33.7341 71.1274 33.7341ZM88.0009 83.0282C88.0009 92.3436 80.4463 99.8953 71.1274 99.8953C61.8084 99.8953 54.2539 92.3436 54.2539 83.0282C54.2539 73.7128 61.8084 66.1611 71.1274 66.1611C80.4463 66.1611 88.0009 73.7128 88.0009 83.0282Z" fill="#CC00FF"/>
</svg>
