<svg width="140" height="140" viewBox="0 0 140 140" fill="none" xmlns="http://www.w3.org/2000/svg">
<path d="M139 69.5C139 84.177 134.354 98.4772 125.727 110.351C117.1 122.225 104.935 131.063 90.9767 135.598C77.0181 140.134 61.9819 140.134 48.0233 135.598C34.0647 131.063 21.9002 122.225 13.2733 110.351C4.64642 98.4772 -1.2831e-06 84.177 0 69.5C1.2831e-06 54.823 4.64642 40.5228 13.2733 28.6489C21.9002 16.775 34.0647 7.937 48.0233 3.40157C61.9819 -1.13385 77.0181 -1.13385 90.9767 3.40158L82.1282 30.6344C73.9206 27.9676 65.0794 27.9676 56.8718 30.6344C48.6642 33.3012 41.5115 38.498 36.439 45.4798C31.3664 52.4616 28.6343 60.87 28.6343 69.5C28.6343 78.13 31.3664 86.5384 36.439 93.5202C41.5115 100.502 48.6642 105.699 56.8718 108.366C65.0794 111.032 73.9206 111.032 82.1282 108.366C90.3358 105.699 97.4885 100.502 102.561 93.5203C107.634 86.5385 110.366 78.13 110.366 69.5H139Z" fill="#D633FF"/>
<path d="M139 69.5C139 54.823 134.354 40.5228 125.727 28.6489C117.1 16.775 104.935 7.93701 90.9767 3.40158L82.1282 30.6344C90.3358 33.3012 97.4885 38.498 102.561 45.4798C107.634 52.4616 110.366 60.87 110.366 69.5H139Z" fill="#E7FF00"/>
<path d="M91.9314 3.71944C83.293 0.773707 74.1589 -0.441716 65.0508 0.142565C55.9426 0.726846 47.0387 3.09939 38.8475 7.12473C30.6563 11.1501 23.3381 16.7494 17.3108 23.603C11.2835 30.4566 6.66516 38.4302 3.71943 47.0686L30.8213 56.3105C32.5534 51.2311 35.269 46.5426 38.813 42.5128C42.357 38.4829 46.6601 35.1905 51.4765 32.8236C56.2929 30.4567 61.5283 29.0617 66.8839 28.7181C72.2394 28.3746 77.6102 29.0893 82.6896 30.8213L91.9314 3.71944Z" fill="#FF4E00"/>
</svg>
