<svg width="70" height="26" viewBox="0 0 70 26" fill="none" xmlns="http://www.w3.org/2000/svg">
<path d="M51.8001 0.674529C52.1232 0.960539 52.3727 1.25662 52.5584 1.65566C52.6186 1.60634 52.6787 1.55701 52.7407 1.50619C54.0972 0.442413 55.4519 -0.0702443 57.1561 0.151625C57.8935 0.320408 58.5383 0.767344 58.9605 1.42188C59.3584 2.11516 59.4508 2.8054 59.4488 3.5991C59.4488 3.70813 59.4489 3.70813 59.4489 3.81935C59.449 4.02058 59.4488 4.2218 59.4485 4.42302C59.4483 4.64021 59.4484 4.8574 59.4484 5.07459C59.4484 5.45072 59.4483 5.82684 59.4479 6.20296C59.4475 6.74677 59.4473 7.29058 59.4472 7.83439C59.4471 8.71671 59.4467 9.59904 59.4462 10.4814C59.4456 11.3384 59.4452 12.1954 59.445 13.0525C59.4449 13.1317 59.4449 13.1317 59.4449 13.2126C59.4448 13.4776 59.4448 13.7427 59.4447 14.0078C59.4441 16.2065 59.443 18.4051 59.4418 20.6038C58.537 20.6038 57.6323 20.6038 56.7001 20.6038C56.6998 20.3977 56.6994 20.1917 56.6991 19.9793C56.6958 18.0887 56.6918 16.1981 56.6867 14.3074C56.6861 14.0595 56.6854 13.8116 56.6848 13.5637C56.6846 13.4897 56.6846 13.4897 56.6844 13.4142C56.6823 12.6156 56.6809 11.817 56.6797 11.0184C56.6784 10.1986 56.6765 9.37888 56.6739 8.55914C56.6724 8.05352 56.6713 7.54791 56.671 7.04228C56.6707 6.69532 56.6697 6.34837 56.6683 6.00141C56.6674 5.80138 56.667 5.60137 56.6671 5.40134C56.6672 5.18404 56.6663 4.96676 56.665 4.74946C56.6653 4.68683 56.6656 4.62419 56.6659 4.55966C56.6615 4.09089 56.5955 3.66118 56.3647 3.25383C56.0062 2.90838 55.5962 2.90668 55.1324 2.92232C54.4765 2.96692 53.8819 3.28633 53.3168 3.61792C53.2561 3.64693 53.1954 3.67594 53.1329 3.70583C52.9476 3.88135 52.9408 3.90768 52.9228 4.15483C52.9209 4.27929 52.9209 4.40378 52.9225 4.52824C52.9219 4.59681 52.9214 4.66538 52.9208 4.73603C52.9194 4.96664 52.9206 5.19717 52.9217 5.42778C52.9212 5.59275 52.9206 5.75772 52.9198 5.92268C52.9184 6.27827 52.9182 6.63384 52.919 6.98943C52.92 7.50354 52.9191 8.01764 52.9178 8.53176C52.9156 9.36586 52.915 10.2 52.9154 11.0341C52.9158 11.8443 52.9155 12.6546 52.9141 13.4649C52.914 13.5398 52.914 13.5398 52.9139 13.6162C52.9135 13.8668 52.913 14.1173 52.9126 14.3678C52.909 16.4465 52.908 18.5251 52.9084 20.6038C52.0229 20.6038 51.1374 20.6038 50.2251 20.6038C50.2248 20.3977 50.2244 20.1917 50.2241 19.9793C50.2208 18.0887 50.2168 16.1981 50.2117 14.3074C50.2111 14.0595 50.2104 13.8116 50.2098 13.5637C50.2097 13.5144 50.2095 13.465 50.2094 13.4142C50.2073 12.6156 50.2059 11.817 50.2047 11.0184C50.2034 10.1986 50.2015 9.37888 50.1989 8.55914C50.1974 8.05352 50.1963 7.54791 50.196 7.04228C50.1957 6.69532 50.1947 6.34837 50.1933 6.00141C50.1925 5.80138 50.192 5.60137 50.1921 5.40134C50.1922 5.18404 50.1913 4.96676 50.19 4.74946C50.1903 4.68683 50.1906 4.62419 50.1909 4.55966C50.1865 4.09089 50.1205 3.66118 49.8897 3.25383C49.5312 2.90838 49.1212 2.90668 48.6574 2.92232C48.0015 2.96692 47.4069 3.28633 46.8418 3.61792C46.7811 3.64693 46.7204 3.67594 46.6579 3.70583C46.4726 3.88135 46.4658 3.90768 46.4478 4.15483C46.4459 4.27929 46.4459 4.40378 46.4475 4.52824C46.4467 4.6311 46.4467 4.6311 46.4458 4.73603C46.4445 4.96664 46.4456 5.19717 46.4467 5.42778C46.4462 5.59275 46.4456 5.75772 46.4448 5.92268C46.4434 6.27827 46.4432 6.63384 46.444 6.98943C46.445 7.50354 46.4441 8.01764 46.4428 8.53176C46.4406 9.36586 46.44 10.2 46.4404 11.0341C46.4408 11.8443 46.4405 12.6546 46.4391 13.4649C46.439 13.5148 46.439 13.5648 46.4389 13.6162C46.4385 13.8668 46.438 14.1173 46.4376 14.3678C46.434 16.4465 46.433 18.5251 46.4334 20.6038C45.5287 20.6038 44.6239 20.6038 43.6918 20.6038C43.6918 13.9057 43.6918 7.20764 43.6918 0.306604C44.5965 0.306604 45.5013 0.306604 46.4334 0.306604C46.4527 0.711321 46.4719 1.11604 46.4918 1.53302C46.5688 1.45334 46.6458 1.37366 46.7251 1.29157C48.0389 0.0530978 50.2819 -0.426888 51.8001 0.674529Z" fill="white"/>
<path d="M29.7501 0.674529C30.5788 1.32788 30.9785 2.23038 31.134 3.29241C31.1911 3.79519 31.1742 4.30645 31.1727 4.81187C31.173 4.94876 31.1733 5.08565 31.1737 5.22254C31.1745 5.59186 31.1742 5.96117 31.1736 6.3305C31.1732 6.71853 31.1736 7.10656 31.1738 7.49459C31.1742 8.18771 31.1736 8.88083 31.1727 9.57394C31.172 10.2004 31.1721 10.8269 31.1729 11.4533C31.1738 12.1834 31.1742 12.9135 31.1737 13.6436C31.1734 14.0292 31.1734 14.4147 31.1739 14.8002C31.1745 15.1628 31.1741 15.5255 31.1731 15.8881C31.1729 16.0205 31.1729 16.1529 31.1733 16.2853C31.1766 17.5343 31.1078 18.7995 30.2897 19.7915C29.5737 20.5429 28.6792 20.8383 27.6829 20.8644C26.8596 20.8443 26.1226 20.6455 25.3933 20.2512C25.3587 20.2329 25.3241 20.2146 25.2884 20.1957C24.9486 20.0037 24.7492 19.7873 24.4418 19.5C24.4225 21.6045 24.4033 23.7091 24.3834 25.8774C23.4594 25.8774 22.5354 25.8774 21.5834 25.8774C21.5834 17.439 21.5834 9.00066 21.5834 0.306604C22.5074 0.306604 23.4314 0.306604 24.3834 0.306604C24.4123 0.883326 24.4123 0.883326 24.4418 1.4717C24.5115 1.40087 24.5813 1.33005 24.6532 1.25708C26.0114 -0.00332723 28.1831 -0.347196 29.7501 0.674529ZM24.8501 3.49528C24.812 3.51903 24.7739 3.54277 24.7347 3.56723C24.4894 3.731 24.4894 3.731 24.34 3.98322C24.3234 4.12594 24.3214 4.26174 24.3246 4.40549C24.3239 4.45938 24.3232 4.51328 24.3225 4.5688C24.3208 4.74906 24.3224 4.92912 24.324 5.10939C24.3234 5.23873 24.3227 5.36808 24.3218 5.49743C24.3199 5.84852 24.321 6.19953 24.3227 6.55062C24.3241 6.918 24.3231 7.28536 24.3226 7.65274C24.322 8.26969 24.3233 8.88661 24.3258 9.50355C24.3286 10.2169 24.3283 10.9301 24.3263 11.6434C24.3245 12.3296 24.325 13.0157 24.3265 13.7018C24.3271 13.9939 24.3269 14.2859 24.326 14.5779C24.325 14.9218 24.3261 15.2656 24.3287 15.6095C24.3293 15.7357 24.3293 15.8619 24.3285 15.9881C24.3275 16.1605 24.329 16.3326 24.3312 16.5049C24.3303 16.5549 24.3294 16.6048 24.3285 16.6563C24.3334 16.8632 24.3423 16.9949 24.4703 17.1575C24.7 17.3695 24.956 17.53 25.2293 17.6719C25.2693 17.6928 25.3094 17.7137 25.3507 17.7352C26.0368 18.076 26.8602 18.2381 27.5918 17.967C27.9333 17.7915 28.1571 17.601 28.3118 17.2328C28.4085 16.9187 28.417 16.6146 28.4166 16.2868C28.4168 16.2351 28.417 16.1834 28.4171 16.1302C28.4176 15.957 28.4177 15.7838 28.4178 15.6106C28.4181 15.4864 28.4184 15.3622 28.4187 15.238C28.4195 14.9006 28.4198 14.5632 28.4201 14.2258C28.4203 14.015 28.4205 13.8041 28.4208 13.5932C28.4216 12.9333 28.4221 12.2734 28.4224 11.6135C28.4226 10.8521 28.4236 10.0907 28.4253 9.32927C28.4266 8.74048 28.4272 8.15168 28.4273 7.56289C28.4273 7.21134 28.4277 6.85979 28.4287 6.50824C28.4297 6.17745 28.4298 5.84668 28.4293 5.5159C28.4292 5.3947 28.4295 5.27351 28.4301 5.15231C28.4308 4.98642 28.4305 4.82057 28.4299 4.65469C28.4303 4.60711 28.4308 4.55954 28.4313 4.51053C28.4276 4.07304 28.3238 3.59633 28.0584 3.25C27.1232 2.51058 25.7588 2.87229 24.8501 3.49528Z" fill="white"/>
<path d="M40.9173 1.10545C41.6421 1.81716 41.9715 2.77732 42.0656 3.79456C42.0704 3.8471 42.0753 3.89965 42.0803 3.95379C42.1399 4.66677 42.1321 5.38099 42.13 6.09609C42.13 6.25515 42.13 6.41422 42.1301 6.57329C42.1301 6.91313 42.1298 7.25297 42.1291 7.59281C42.1281 8.08413 42.1278 8.57545 42.1277 9.06678C42.1274 9.86428 42.1267 10.6618 42.1256 11.4593C42.1245 12.2331 42.1237 13.007 42.1232 13.7808C42.1231 13.8286 42.1231 13.8765 42.1231 13.9258C42.1229 14.1659 42.1228 14.406 42.1226 14.6461C42.1214 16.632 42.1193 18.6179 42.1168 20.6038C41.1928 20.6038 40.2688 20.6038 39.3168 20.6038C39.2975 20.2193 39.2783 19.8348 39.2584 19.4387C39.1874 19.5095 39.1165 19.5803 39.0433 19.6533C38.1681 20.4655 37.0861 20.8947 35.915 20.8603C34.9576 20.7915 34.1753 20.5704 33.5017 19.8258C32.7835 18.9195 32.7764 17.6922 32.7609 16.5736C32.7594 16.4736 32.7579 16.3737 32.7564 16.2737C32.7533 16.0646 32.7504 15.8555 32.7477 15.6464C32.7442 15.3812 32.7399 15.1161 32.7353 14.8509C32.7319 14.6444 32.7291 14.4379 32.7265 14.2314C32.7251 14.1338 32.7236 14.0362 32.7218 13.9386C32.6983 12.6234 32.8072 11.3168 33.7006 10.3096C34.3933 9.63004 35.3758 9.29301 36.2609 8.98373C36.3444 8.95414 36.4278 8.92451 36.5113 8.89483C36.684 8.83356 36.8568 8.77263 37.0297 8.71199C37.2514 8.63421 37.4729 8.55579 37.6944 8.47714C37.8657 8.41633 38.0371 8.35572 38.2086 8.29519C38.2904 8.2663 38.3722 8.23738 38.454 8.20842C38.5674 8.16833 38.6808 8.12848 38.7943 8.08873C38.891 8.05472 38.891 8.05472 38.9897 8.02003C39.1418 7.9717 39.1418 7.9717 39.2584 7.9717C39.2535 7.50151 39.2479 7.03132 39.2417 6.56115C39.2388 6.34278 39.2361 6.12441 39.2338 5.90603C39.2312 5.6544 39.2278 5.4028 39.2243 5.15118C39.2236 5.07355 39.2229 4.99592 39.2222 4.91594C39.2111 4.212 39.143 3.62943 38.6605 3.1082C38.2537 2.84576 37.8401 2.78829 37.3699 2.79393C37.2893 2.79456 37.2893 2.79456 37.2071 2.7952C36.72 2.80728 36.3298 2.88782 35.9371 3.20401C35.66 3.59236 35.5205 3.96036 35.5131 4.44593C35.512 4.51344 35.5108 4.58094 35.5096 4.65049C35.5081 4.75925 35.5081 4.75925 35.5066 4.87021C35.5054 4.94472 35.5042 5.01923 35.503 5.096C35.4991 5.33405 35.4957 5.57209 35.4923 5.81014C35.4898 5.97151 35.4872 6.13287 35.4846 6.29424C35.4784 6.68987 35.4726 7.0855 35.4668 7.48113C34.5813 7.48113 33.6958 7.48113 32.7834 7.48113C32.7797 7.01771 32.7762 6.55434 32.7744 6.09091C32.7735 5.87501 32.7722 5.65912 32.7702 5.44322C32.7679 5.19433 32.7671 4.94545 32.7663 4.69655C32.7654 4.62082 32.7645 4.54508 32.7636 4.46706C32.7634 3.28006 33.0642 2.0794 33.8407 1.18426C35.5499 -0.491595 39.1569 -0.433716 40.9173 1.10545ZM38.2091 10.9199C38.098 10.9623 37.9868 11.0044 37.8755 11.0462C36.6062 11.4665 36.6062 11.4665 35.6839 12.4062C35.4404 12.9883 35.4576 13.6136 35.457 14.2398C35.4568 14.3096 35.4566 14.3795 35.4564 14.4514C35.4561 14.5982 35.4559 14.7449 35.456 14.8917C35.4558 15.1149 35.4548 15.3381 35.4537 15.5613C35.4535 15.7047 35.4534 15.848 35.4533 15.9913C35.4529 16.0573 35.4525 16.1233 35.452 16.1913C35.4535 16.7153 35.4561 17.3749 35.8168 17.783C36.2434 18.1295 36.6965 18.1497 37.2168 18.0896C37.9652 17.961 38.6314 17.6092 39.2584 17.1698C39.2844 17.0472 39.2844 17.0472 39.2795 16.9036C39.2797 16.8477 39.28 16.7919 39.2802 16.7343C39.2796 16.6728 39.2789 16.6113 39.2783 16.548C39.2783 16.4833 39.2783 16.4187 39.2784 16.3522C39.2783 16.1378 39.2769 15.9235 39.2755 15.7091C39.2752 15.5608 39.2749 15.4125 39.2748 15.2642C39.2741 14.8733 39.2724 14.4823 39.2704 14.0914C39.2687 13.6927 39.2679 13.294 39.267 12.8953C39.2651 12.1126 39.2621 11.3299 39.2584 10.5472C38.9389 10.5472 38.5105 10.8049 38.2091 10.9199Z" fill="white"/>
<path d="M18.5255 0.974665C18.8926 1.31015 19.1547 1.66102 19.3813 2.11173C19.3999 2.14711 19.4184 2.18248 19.4374 2.21893C19.9116 3.22386 19.8657 4.35937 19.8571 5.44982C19.8556 5.66857 19.8555 5.88732 19.8552 6.10608C19.8545 6.51846 19.8526 6.93083 19.8502 7.3432C19.8471 7.90176 19.8459 8.46032 19.8445 9.01889C19.8423 9.89625 19.8377 10.7736 19.8334 11.6509C17.6774 11.6509 15.5214 11.6509 13.3001 11.6509C13.3073 12.4591 13.3145 13.2673 13.322 14.0999C13.3239 14.3542 13.3259 14.6085 13.328 14.8705C13.3303 15.1003 13.3303 15.1003 13.3328 15.3302C13.3338 15.4318 13.3346 15.5334 13.3352 15.635C13.3363 15.7898 13.338 15.9445 13.3398 16.0993C13.34 16.1439 13.3401 16.1884 13.3402 16.2343C13.3483 16.7645 13.4414 17.2437 13.7668 17.6604C14.2143 18.0491 14.6876 18.0506 15.2433 18.0513C15.3061 18.0528 15.369 18.0543 15.4337 18.0558C15.8855 18.0576 16.3123 18.0004 16.6738 17.6916C17.0688 17.2521 17.118 16.7103 17.1216 16.131C17.1226 16.0761 17.1236 16.0212 17.1245 15.9646C17.1279 15.7621 17.1298 15.5595 17.1319 15.357C17.1379 14.903 17.1439 14.4489 17.1501 13.9811C18.0356 13.9811 18.9211 13.9811 19.8334 13.9811C19.8375 14.4184 19.8409 14.8557 19.843 15.293C19.8439 15.4413 19.8451 15.5897 19.8466 15.7381C19.862 17.2721 19.7539 18.6161 18.7105 19.7913C18.4347 20.0704 18.1371 20.2507 17.7918 20.4198C17.7463 20.4431 17.7009 20.4663 17.6541 20.4902C16.9143 20.8373 16.1062 20.8796 15.3089 20.873C15.1668 20.8721 15.0249 20.873 14.8828 20.8742C13.5659 20.8761 12.4281 20.5839 11.4305 19.631C10.7215 18.8593 10.4908 17.7322 10.4919 16.6938C10.4917 16.6412 10.4916 16.5886 10.4914 16.5343C10.4909 16.3587 10.4908 16.1831 10.4907 16.0075C10.4904 15.8813 10.4901 15.755 10.4898 15.6288C10.4891 15.2862 10.4887 14.9435 10.4884 14.6009C10.4882 14.3864 10.488 14.1719 10.4877 13.9574C10.4869 13.2851 10.4864 12.6127 10.4862 11.9404C10.4859 11.1666 10.4849 10.3929 10.4832 9.61917C10.4819 9.01969 10.4813 8.42021 10.4813 7.82073C10.4812 7.4634 10.4809 7.10607 10.4798 6.74874C10.4788 6.41192 10.4787 6.07511 10.4792 5.73828C10.4793 5.61556 10.479 5.49284 10.4784 5.37012C10.4718 3.88051 10.6134 2.32781 11.623 1.18042C13.2472 -0.405543 16.7896 -0.464123 18.5255 0.974665ZM13.6977 3.29982C13.2731 3.83755 13.3275 4.54985 13.3356 5.20723C13.3361 5.31213 13.3364 5.41703 13.3366 5.52193C13.3375 5.79584 13.3398 6.06971 13.3424 6.34361C13.3452 6.6734 13.3463 7.00321 13.3476 7.33302C13.3499 7.8321 13.3544 8.33111 13.3584 8.83019C14.6097 8.83019 15.8609 8.83019 17.1501 8.83019C17.1552 8.05254 17.1552 8.05254 17.1586 7.27489C17.1597 6.95719 17.1609 6.63951 17.1633 6.32182C17.1652 6.06536 17.1662 5.80892 17.1667 5.55246C17.167 5.45517 17.1676 5.35788 17.1686 5.26059C17.1863 4.21041 17.1863 4.21041 16.7798 3.2785C16.0387 2.58787 14.4062 2.55366 13.6977 3.29982Z" fill="white"/>
<path d="M7.11676 2.20755C7.12897 2.6937 7.13827 3.17978 7.14396 3.66607C7.14669 3.89193 7.15038 4.11767 7.15636 4.34346C7.16211 4.56175 7.16522 4.77993 7.16657 4.99831C7.168 5.12132 7.17209 5.2443 7.17624 5.36725C7.17646 5.78456 7.15026 6.02449 6.86473 6.32827C6.77547 6.40814 6.68455 6.48603 6.59176 6.56132C6.51858 6.62744 6.44561 6.69381 6.37301 6.76061C6.33541 6.79445 6.29781 6.82828 6.25908 6.86313C6.08159 7.03194 5.91417 7.21027 5.74592 7.38915C5.51206 7.63779 5.27584 7.87603 5.022 8.10225C4.82572 8.28698 4.64311 8.48592 4.45802 8.68289C4.26522 8.88709 4.06648 9.07841 3.85784 9.2647C3.66002 9.45132 3.47489 9.65126 3.28932 9.8512C3.09699 10.0569 2.89666 10.2429 2.68342 10.4245C2.763 10.6139 2.85125 10.7359 2.9956 10.8761C3.03516 10.9148 3.07471 10.9535 3.11547 10.9934C3.15818 11.0346 3.20088 11.0758 3.24488 11.1182C3.3355 11.2067 3.42611 11.2952 3.51673 11.3836C3.56275 11.4283 3.60878 11.473 3.65621 11.5191C3.85915 11.7165 4.06056 11.9156 4.26207 12.1147C4.3393 12.1908 4.41655 12.2669 4.49381 12.343C4.6876 12.5338 4.88134 12.7247 5.07506 12.9157C5.15255 12.992 5.23004 13.0684 5.30754 13.1447C5.50726 13.3415 5.70682 13.5384 5.90611 13.7356C5.94706 13.7761 5.988 13.8166 6.03019 13.8583C6.10726 13.9344 6.18428 14.0107 6.26124 14.087C6.29684 14.1222 6.33245 14.1574 6.36913 14.1936C6.41912 14.2443 6.41912 14.2443 6.47011 14.296C6.58955 14.4133 6.58955 14.4133 6.72654 14.507C6.95064 14.6779 7.09475 14.8076 7.16282 15.0963C7.17744 15.3345 7.17593 15.5691 7.16803 15.8073C7.16705 15.8946 7.1663 15.9819 7.16578 16.0692C7.16378 16.2975 7.15864 16.5256 7.15281 16.7539C7.14741 16.9874 7.14503 17.2209 7.14239 17.4544C7.13678 17.9115 7.12784 18.3685 7.11676 18.8255C7.04318 18.7687 6.96976 18.7117 6.89641 18.6545C6.85551 18.6228 6.81461 18.5911 6.77247 18.5584C6.57949 18.3994 6.41177 18.2173 6.24176 18.0321C5.99403 17.7667 5.74514 17.5106 5.47499 17.2702C5.29853 17.1065 5.13637 16.9281 4.97118 16.7521C4.85376 16.6304 4.73358 16.5161 4.60842 16.4033C4.38713 16.2039 4.18411 15.9889 3.97952 15.7709C3.86209 15.6492 3.74191 15.5349 3.61676 15.4222C3.39555 15.2229 3.1926 15.008 2.98808 14.79C2.83351 14.6298 2.67107 14.4819 2.50637 14.3335C2.3441 14.1819 2.19379 14.0189 2.04153 13.8563C1.9297 13.7406 1.81451 13.6324 1.6954 13.5251C1.47327 13.3245 1.26909 13.1086 1.06353 12.8896C0.909895 12.7303 0.749463 12.5821 0.584563 12.4359C0.545687 12.3995 0.506811 12.363 0.466757 12.3255C0.378624 12.2505 0.378624 12.2505 0.28871 12.1741C0.0532483 11.9237 0.0553208 11.6642 0.0477143 11.3257C0.0449293 11.234 0.0449293 11.234 0.042088 11.1404C0.0390441 11.0111 0.0369966 10.8817 0.0358796 10.7523C0.032937 10.5571 0.0228553 10.3632 0.0125092 10.1682C-0.001652 9.64804 -0.00958006 9.19214 0.327048 8.7815C0.530314 8.5683 0.749655 8.38305 0.979152 8.20219C1.15694 8.05386 1.31258 7.88705 1.46992 7.71547C1.5736 7.60536 1.68134 7.50449 1.79384 7.40448C2.00356 7.21527 2.1977 7.01313 2.39176 6.8066C2.61517 6.56885 2.84212 6.34287 3.08447 6.12633C3.2489 5.97126 3.40322 5.80668 3.55842 5.64151C3.78183 5.40375 4.00879 5.17778 4.25113 4.96123C4.44792 4.77566 4.63129 4.57624 4.81702 4.37858C5.01126 4.17284 5.21155 3.97989 5.42167 3.79207C5.60404 3.62073 5.7739 3.43649 5.94559 3.25353C6.13825 3.04932 6.33761 2.85795 6.54596 2.67176C6.65167 2.57401 6.74922 2.47114 6.84697 2.36468C7.00009 2.20755 7.00009 2.20755 7.11676 2.20755Z" fill="white"/>
<path d="M62.8834 2.20755C63.0972 2.31242 63.2296 2.43811 63.3938 2.61763C63.5675 2.80415 63.7406 2.98523 63.9298 3.15419C64.1253 3.32982 64.3071 3.51756 64.4876 3.70991C64.6657 3.89969 64.8448 4.08515 65.0381 4.25796C65.2446 4.44291 65.4346 4.64164 65.6251 4.84434C65.8144 5.04576 66.0031 5.24337 66.2084 5.42689C66.447 5.64004 66.664 5.87346 66.8838 6.1074C67.0428 6.27577 67.203 6.43823 67.3751 6.59198C67.6136 6.8051 67.8306 7.03846 68.0504 7.27236C68.2446 7.4781 68.4449 7.67106 68.655 7.85888C68.8899 8.07953 69.1071 8.32017 69.3265 8.55765C69.4175 8.65069 69.4175 8.65069 69.5329 8.73442C69.7131 8.87593 69.8566 8.99098 69.9293 9.21998C69.9489 9.38894 69.9542 9.55176 69.9536 9.72197C69.9546 9.78359 69.9556 9.84521 69.9566 9.9087C69.958 10.0387 69.9581 10.1688 69.9571 10.2988C69.9564 10.496 69.9618 10.6923 69.9677 10.8893C69.9796 11.9207 69.9796 11.9207 69.6397 12.3092C69.4948 12.4508 69.3442 12.572 69.1834 12.6934C69.1013 12.7679 69.0197 12.8431 68.9392 12.9195C68.9028 12.952 68.8665 12.9845 68.8291 13.018C68.6516 13.1834 68.4878 13.3629 68.3212 13.5404C68.168 13.6992 68.0069 13.8455 67.8436 13.9926C67.6644 14.1607 67.4983 14.3417 67.3298 14.5213C67.1752 14.6815 67.0127 14.8294 66.848 14.9778C66.7271 15.0908 66.6136 15.209 66.5001 15.3302C66.3508 15.4896 66.1986 15.6406 66.0371 15.7863C65.8626 15.9438 65.6991 16.1085 65.5376 16.2807C65.3415 16.4896 65.1388 16.6838 64.9269 16.8747C64.7946 16.9988 64.6704 17.1291 64.5459 17.2618C64.35 17.4706 64.1475 17.6649 63.9355 17.8554C63.7581 18.0222 63.5944 18.2024 63.4301 18.3833C63.316 18.4951 63.2058 18.5867 63.0789 18.6806C63.024 18.7215 63.024 18.7215 62.9679 18.7632C62.94 18.7837 62.9121 18.8043 62.8834 18.8255C62.8671 18.3255 62.8547 17.8256 62.8472 17.3253C62.8435 17.093 62.8386 16.8608 62.8306 16.6286C62.8229 16.4039 62.8188 16.1794 62.817 15.9546C62.8157 15.8694 62.8132 15.7842 62.8094 15.6991C62.7933 15.3231 62.7861 14.9922 63.035 14.7023C63.2066 14.5273 63.3929 14.3777 63.5834 14.2264C63.6687 14.1449 63.7531 14.0625 63.8359 13.9783C63.8736 13.9409 63.9113 13.9035 63.9501 13.8651C63.9879 13.8275 64.0257 13.7899 64.0647 13.7512C64.15 13.6666 64.2353 13.5821 64.3206 13.4975C64.3629 13.4555 64.4053 13.4135 64.4489 13.3702C64.6474 13.1736 64.8464 12.9776 65.0454 12.7815C65.1027 12.7251 65.1027 12.7251 65.1612 12.6675C65.2383 12.5916 65.3154 12.5156 65.3924 12.4397C65.5095 12.3244 65.6266 12.209 65.7436 12.0936C66.2672 11.5773 66.7917 11.0619 67.3168 10.5472C67.2245 10.2943 67.0492 10.1432 66.861 9.96845C66.5491 9.67299 66.2489 9.3686 65.9557 9.05273C65.795 8.881 65.6304 8.71845 65.4567 8.56119C65.167 8.29783 64.9015 8.0113 64.6334 7.72402C64.5949 7.68307 64.5564 7.64213 64.5168 7.59994C64.4831 7.56382 64.4494 7.52769 64.4147 7.49047C64.1466 7.22085 63.8705 6.96827 63.5691 6.74061C63.2319 6.4663 62.9412 6.19072 62.8346 5.7431C62.7723 5.21133 62.7932 4.68041 62.8193 4.14676C62.829 3.9277 62.8332 3.70852 62.8379 3.4893C62.8478 3.06177 62.8636 2.63469 62.8834 2.20755Z" fill="white"/>
</svg>
