<svg width="24" height="24" viewBox="0 0 24 24" fill="none" xmlns="http://www.w3.org/2000/svg">
<path d="M16.8347 15.6H19.0016C19.4986 15.6 19.9016 16.0029 19.9016 16.5C19.9016 16.9971 19.4986 17.4 19.0016 17.4H16.8347C16.4734 18.336 15.565 19 14.5016 19C13.4381 19 12.5298 18.336 12.1685 17.4H5.00156C4.50451 17.4 4.10156 16.9971 4.10156 16.5C4.10156 16.0029 4.50451 15.6 5.00156 15.6H12.1685C12.5298 14.664 13.4381 14 14.5016 14C15.565 14 16.4734 14.664 16.8347 15.6Z" fill="#E7FF00"/>
<path d="M11.8347 6.6H19.0016C19.4986 6.6 19.9016 7.00294 19.9016 7.5C19.9016 7.99706 19.4986 8.4 19.0016 8.4H11.8347C11.4734 9.33601 10.565 10 9.50156 10C8.43812 10 7.52977 9.33601 7.16846 8.4H5.00156C4.50451 8.4 4.10156 7.99706 4.10156 7.5C4.10156 7.00294 4.50451 6.6 5.00156 6.6H7.16846C7.52977 5.66399 8.43812 5 9.50156 5C10.565 5 11.4734 5.66399 11.8347 6.6Z" fill="#E7FF00"/>
</svg>
