<svg width="24" height="24" viewBox="0 0 24 24" fill="none" xmlns="http://www.w3.org/2000/svg">
<path d="M12.218 2H11.778C11.2476 2 10.7389 2.21071 10.3638 2.58579C9.98876 2.96086 9.77805 3.46957 9.77805 4V4.18C9.77769 4.53073 9.68511 4.87519 9.50959 5.17884C9.33407 5.48248 9.08179 5.73464 8.77805 5.91L8.34805 6.16C8.04401 6.33554 7.69912 6.42795 7.34805 6.42795C6.99698 6.42795 6.65209 6.33554 6.34805 6.16L6.19805 6.08C5.73911 5.81526 5.19389 5.74344 4.68205 5.88031C4.17022 6.01717 3.7336 6.35154 3.46805 6.81L3.24805 7.19C2.98331 7.64893 2.91149 8.19416 3.04836 8.706C3.18522 9.21783 3.51958 9.65445 3.97805 9.92L4.12805 10.02C4.43032 10.1945 4.68167 10.4451 4.8571 10.7468C5.03253 11.0486 5.12594 11.391 5.12805 11.74V12.25C5.12945 12.6024 5.0377 12.949 4.86209 13.2545C4.68649 13.5601 4.43326 13.8138 4.12805 13.99L3.97805 14.08C3.51958 14.3456 3.18522 14.7822 3.04836 15.294C2.91149 15.8058 2.98331 16.3511 3.24805 16.81L3.46805 17.19C3.7336 17.6485 4.17022 17.9828 4.68205 18.1197C5.19389 18.2566 5.73911 18.1847 6.19805 17.92L6.34805 17.84C6.65209 17.6645 6.99698 17.5721 7.34805 17.5721C7.69912 17.5721 8.04401 17.6645 8.34805 17.84L8.77805 18.09C9.08179 18.2654 9.33407 18.5175 9.50959 18.8212C9.68511 19.1248 9.77769 19.4693 9.77805 19.82V20C9.77805 20.5304 9.98876 21.0391 10.3638 21.4142C10.7389 21.7893 11.2476 22 11.778 22H12.218C12.7485 22 13.2572 21.7893 13.6323 21.4142C14.0073 21.0391 14.218 20.5304 14.218 20V19.82C14.2184 19.4693 14.311 19.1248 14.4865 18.8212C14.662 18.5175 14.9143 18.2654 15.218 18.09L15.648 17.84C15.9521 17.6645 16.297 17.5721 16.648 17.5721C16.9991 17.5721 17.344 17.6645 17.648 17.84L17.798 17.92C18.257 18.1847 18.8022 18.2566 19.314 18.1197C19.8259 17.9828 20.2625 17.6485 20.528 17.19L20.748 16.8C21.0128 16.3411 21.0846 15.7958 20.9477 15.284C20.8109 14.7722 20.4765 14.3356 20.018 14.07L19.868 13.99C19.5628 13.8138 19.3096 13.5601 19.134 13.2545C18.9584 12.949 18.8667 12.6024 18.868 12.25V11.75C18.8667 11.3976 18.9584 11.051 19.134 10.7455C19.3096 10.4399 19.5628 10.1862 19.868 10.01L20.018 9.92C20.4765 9.65445 20.8109 9.21783 20.9477 8.706C21.0846 8.19416 21.0128 7.64893 20.748 7.19L20.528 6.81C20.2625 6.35154 19.8259 6.01717 19.314 5.88031C18.8022 5.74344 18.257 5.81526 17.798 6.08L17.648 6.16C17.344 6.33554 16.9991 6.42795 16.648 6.42795C16.297 6.42795 15.9521 6.33554 15.648 6.16L15.218 5.91C14.9143 5.73464 14.662 5.48248 14.4865 5.17884C14.311 4.87519 14.2184 4.53073 14.218 4.18V4C14.218 3.46957 14.0073 2.96086 13.6323 2.58579C13.2572 2.21071 12.7485 2 12.218 2Z" stroke="white" stroke-width="1.5" stroke-linecap="round" stroke-linejoin="round"/>
<path d="M12 15C13.6569 15 15 13.6569 15 12C15 10.3431 13.6569 9 12 9C10.3431 9 9 10.3431 9 12C9 13.6569 10.3431 15 12 15Z" stroke="white" stroke-width="1.5" stroke-linecap="round" stroke-linejoin="round"/>
</svg>
