<svg width="20" height="20" viewBox="0 0 22 21" fill="none" xmlns="http://www.w3.org/2000/svg">
<mask id="path-1-inside-1_5003_1258" fill="white">
<path d="M0.833496 2.12508C0.833496 1.32008 1.55216 0.666748 2.43766 0.666748H17.5627C18.4482 0.666748 19.1668 1.32008 19.1668 2.12508V15.8751C19.1668 16.2619 18.9978 16.6328 18.697 16.9063C18.3961 17.1798 17.9881 17.3334 17.5627 17.3334H7.93766C7.75533 17.3334 7.58046 17.2676 7.45153 17.1504C7.3226 17.0331 7.25016 16.8742 7.25016 16.7084C7.25016 16.5427 7.3226 16.3837 7.45153 16.2665C7.58046 16.1493 7.75533 16.0834 7.93766 16.0834H17.5627C17.6234 16.0834 17.6817 16.0615 17.7247 16.0224C17.7677 15.9833 17.7918 15.9303 17.7918 15.8751V6.50008H2.2085V9.00008C2.2085 9.16584 2.13606 9.32481 2.00713 9.44202C1.8782 9.55923 1.70333 9.62508 1.521 9.62508C1.33866 9.62508 1.16379 9.55923 1.03486 9.44202C0.905929 9.32481 0.833496 9.16584 0.833496 9.00008V2.12508ZM7.25016 5.25008H17.7918V2.12508C17.7918 2.06983 17.7677 2.01684 17.7247 1.97777C17.6817 1.9387 17.6234 1.91675 17.5627 1.91675H7.25016V5.25008ZM2.2085 5.25008H5.87516V1.91675H2.43766C2.37688 1.91675 2.31859 1.9387 2.27562 1.97777C2.23264 2.01684 2.2085 2.06983 2.2085 2.12508V5.25008Z"/>
<path d="M7.5325 11.0834L5.60383 9.22008C5.54001 9.16067 5.48986 9.0903 5.4563 9.01307C5.42274 8.93584 5.40644 8.8533 5.40837 8.77028C5.41029 8.68726 5.43039 8.60542 5.46749 8.52954C5.5046 8.45367 5.55796 8.38527 5.62447 8.32835C5.69098 8.27143 5.76929 8.22714 5.85485 8.19804C5.9404 8.16895 6.03147 8.15565 6.12274 8.15891C6.21401 8.16218 6.30365 8.18194 6.38643 8.21705C6.4692 8.25217 6.54345 8.30192 6.60483 8.36342L9.62433 11.2801C9.74435 11.396 9.81117 11.5492 9.81117 11.7084C9.81117 11.8676 9.74435 12.0208 9.62433 12.1367L6.60483 15.0534C6.54345 15.1149 6.4692 15.1647 6.38643 15.1998C6.30365 15.2349 6.21401 15.2547 6.12274 15.2579C6.03147 15.2612 5.9404 15.2479 5.85485 15.2188C5.76929 15.1897 5.69098 15.1454 5.62447 15.0885C5.55796 15.0316 5.5046 14.9632 5.46749 14.8873C5.43039 14.8114 5.41029 14.7296 5.40837 14.6465C5.40644 14.5635 5.42274 14.481 5.4563 14.4038C5.48986 14.3265 5.54001 14.2562 5.60383 14.1967L7.5325 12.3334H4.58266C3.95299 12.3334 3.34912 12.5608 2.90387 12.9656C2.45863 13.3703 2.2085 13.9193 2.2085 14.4917V16.7084C2.2085 16.8742 2.13606 17.0331 2.00713 17.1504C1.8782 17.2676 1.70333 17.3334 1.521 17.3334C1.33866 17.3334 1.16379 17.2676 1.03486 17.1504C0.905929 17.0331 0.833496 16.8742 0.833496 16.7084V14.4917C0.833496 13.5878 1.2285 12.7209 1.9316 12.0817C2.63471 11.4425 3.58832 11.0834 4.58266 11.0834H7.5325Z"/>
</mask>
<path d="M19.1668 15.8751L17.6668 15.8751L19.1668 15.8751ZM17.7918 6.50008H19.2918V5.00008H17.7918V6.50008ZM2.2085 6.50008V5.00008H0.708496V6.50008H2.2085ZM2.2085 9.00008L3.7085 9.00008V9.00008H2.2085ZM0.833496 9.00008L-0.666504 9.00008L-0.666504 9.00008L0.833496 9.00008ZM7.25016 5.25008H5.75016V6.75008H7.25016V5.25008ZM17.7918 5.25008V6.75008H19.2918V5.25008H17.7918ZM7.25016 1.91675V0.416748H5.75016V1.91675H7.25016ZM2.2085 5.25008H0.708496V6.75008H2.2085V5.25008ZM5.87516 5.25008V6.75008H7.37516V5.25008H5.87516ZM5.87516 1.91675H7.37516V0.416748H5.87516V1.91675ZM7.5325 11.0834V12.5834H11.2439L8.57473 10.0046L7.5325 11.0834ZM5.60383 9.22008L6.64606 8.14131L6.63608 8.13167L6.62593 8.12221L5.60383 9.22008ZM6.60483 8.36342L5.54323 9.42314L5.55288 9.4328L5.5627 9.44229L6.60483 8.36342ZM9.62433 11.2801L10.6665 10.2012L10.6665 10.2012L9.62433 11.2801ZM9.81117 11.7084H8.31117H9.81117ZM9.62433 12.1367L10.6665 13.2156L10.6665 13.2156L9.62433 12.1367ZM6.60483 15.0534L5.5627 13.9745L5.55288 13.984L5.54323 13.9937L6.60483 15.0534ZM5.60383 14.1967L6.62593 15.2946L6.63608 15.2852L6.64606 15.2755L5.60383 14.1967ZM7.5325 12.3334L8.57473 13.4122L11.2439 10.8334H7.5325V12.3334ZM2.2085 14.4917H0.708496H2.2085ZM2.2085 16.7084L3.7085 16.7084V16.7084H2.2085ZM0.833496 16.7084L-0.666504 16.7084L-0.666504 16.7084L0.833496 16.7084ZM4.58266 11.0834L4.58266 9.58342L4.58266 11.0834ZM2.3335 2.12508C2.3335 2.15014 2.32732 2.17384 2.3195 2.19065C2.31243 2.20583 2.30734 2.20867 2.31253 2.20395C2.32418 2.19336 2.36454 2.16675 2.43766 2.16675V-0.833252C0.861472 -0.833252 -0.666504 0.360321 -0.666504 2.12508H2.3335ZM2.43766 2.16675H17.5627V-0.833252H2.43766V2.16675ZM17.5627 2.16675C17.6358 2.16675 17.6761 2.19336 17.6878 2.20395C17.693 2.20867 17.6879 2.20583 17.6808 2.19065C17.673 2.17384 17.6668 2.15014 17.6668 2.12508H20.6668C20.6668 0.360322 19.1389 -0.833252 17.5627 -0.833252V2.16675ZM17.6668 2.12508V15.8751H20.6668V2.12508H17.6668ZM17.6668 15.8751C17.6668 15.8485 17.6729 15.8262 17.6797 15.8112C17.6864 15.7966 17.6918 15.7929 17.688 15.7964L19.706 18.0162C20.3015 17.4749 20.6668 16.7083 20.6668 15.8751L17.6668 15.8751ZM17.688 15.7964C17.677 15.8063 17.634 15.8334 17.5627 15.8334V18.8334C18.3422 18.8334 19.1153 18.5532 19.706 18.0162L17.688 15.7964ZM17.5627 15.8334H7.93766V18.8334H17.5627V15.8334ZM7.93766 15.8334C8.10945 15.8334 8.2996 15.8941 8.46054 16.0404L6.44252 18.2603C6.86132 18.641 7.4012 18.8334 7.93766 18.8334V15.8334ZM8.46054 16.0404C8.62623 16.1911 8.75016 16.4277 8.75016 16.7084H5.75016C5.75016 17.3206 6.01896 17.8752 6.44252 18.2603L8.46054 16.0404ZM8.75016 16.7084C8.75016 16.9891 8.62623 17.2258 8.46054 17.3764L6.44252 15.1566C6.01896 15.5416 5.75016 16.0962 5.75016 16.7084H8.75016ZM8.46054 17.3764C8.2996 17.5227 8.10945 17.5834 7.93766 17.5834V14.5834C7.4012 14.5834 6.86132 14.7758 6.44252 15.1566L8.46054 17.3764ZM7.93766 17.5834H17.5627V14.5834H7.93766V17.5834ZM17.5627 17.5834C17.9776 17.5834 18.4009 17.4349 18.7337 17.1323L16.7157 14.9125C16.9626 14.688 17.2693 14.5834 17.5627 14.5834V17.5834ZM18.7337 17.1323C19.0713 16.8254 19.2918 16.3768 19.2918 15.8751H16.2918C16.2918 15.4839 16.4641 15.1413 16.7157 14.9125L18.7337 17.1323ZM19.2918 15.8751V6.50008H16.2918V15.8751H19.2918ZM17.7918 5.00008H2.2085V8.00008H17.7918V5.00008ZM0.708496 6.50008V9.00008H3.7085V6.50008H0.708496ZM0.708496 9.00008C0.708496 8.71938 0.83243 8.48274 0.998123 8.33211L3.01614 10.5519C3.4397 10.1669 3.7085 9.6123 3.7085 9.00008L0.708496 9.00008ZM0.998123 8.33211C1.15906 8.18581 1.3492 8.12508 1.521 8.12508V11.1251C2.05746 11.1251 2.59734 10.9327 3.01614 10.5519L0.998123 8.33211ZM1.521 8.12508C1.69279 8.12508 1.88293 8.18581 2.04387 8.33211L0.0258509 10.5519C0.444648 10.9327 0.98453 11.1251 1.521 11.1251V8.12508ZM2.04387 8.33211C2.20956 8.48274 2.3335 8.71938 2.3335 9.00008L-0.666504 9.00008C-0.666504 9.6123 -0.397705 10.1669 0.0258509 10.5519L2.04387 8.33211ZM2.3335 9.00008V2.12508H-0.666504V9.00008H2.3335ZM7.25016 6.75008H17.7918V3.75008H7.25016V6.75008ZM19.2918 5.25008V2.12508H16.2918V5.25008H19.2918ZM19.2918 2.12508C19.2918 1.62337 19.0713 1.17477 18.7337 0.867858L16.7157 3.08768C16.4641 2.85891 16.2918 2.51629 16.2918 2.12508H19.2918ZM18.7337 0.867858C18.4009 0.565276 17.9776 0.416748 17.5627 0.416748V3.41675C17.2693 3.41675 16.9626 3.31212 16.7157 3.08768L18.7337 0.867858ZM17.5627 0.416748H7.25016V3.41675H17.5627V0.416748ZM5.75016 1.91675V5.25008H8.75016V1.91675H5.75016ZM2.2085 6.75008H5.87516V3.75008H2.2085V6.75008ZM7.37516 5.25008V1.91675H4.37516V5.25008H7.37516ZM5.87516 0.416748H2.43766V3.41675H5.87516V0.416748ZM2.43766 0.416748C2.02275 0.416748 1.59945 0.565273 1.26661 0.867858L3.28463 3.08768C3.03774 3.31212 2.73101 3.41675 2.43766 3.41675V0.416748ZM1.26661 0.867858C0.929007 1.17477 0.708496 1.62337 0.708496 2.12508H3.7085C3.7085 2.51629 3.53627 2.85891 3.28463 3.08768L1.26661 0.867858ZM0.708496 2.12508V5.25008H3.7085V2.12508H0.708496ZM8.57473 10.0046L6.64606 8.14131L4.5616 10.2989L6.49026 12.1622L8.57473 10.0046ZM6.62593 8.12221C6.70764 8.19829 6.78042 8.2965 6.83202 8.41524L4.08058 9.61089C4.1993 9.88409 4.37239 10.1231 4.58173 10.318L6.62593 8.12221ZM6.83202 8.41524C6.88385 8.5345 6.91115 8.66755 6.90796 8.80499L3.90877 8.73557C3.90174 9.03905 3.96164 9.33717 4.08058 9.61089L6.83202 8.41524ZM6.90796 8.80499C6.90478 8.94238 6.87141 9.07314 6.81501 9.18848L4.11997 7.87061C3.98937 8.1377 3.91579 8.43214 3.90877 8.73557L6.90796 8.80499ZM6.81501 9.18848C6.75887 9.30329 6.68306 9.39672 6.59978 9.46799L4.64916 7.18872C4.43286 7.37383 4.25032 7.60404 4.11997 7.87061L6.81501 9.18848ZM6.59978 9.46799C6.51678 9.53902 6.42674 9.58792 6.33777 9.61818L5.37192 6.77791C5.11185 6.86635 4.86517 7.00385 4.64916 7.18872L6.59978 9.46799ZM6.33777 9.61818C6.24889 9.6484 6.15803 9.66113 6.06913 9.65795L6.17635 6.65987C5.90491 6.65016 5.63191 6.6895 5.37192 6.77791L6.33777 9.61818ZM6.06913 9.65795C5.98022 9.65477 5.88925 9.63553 5.80065 9.59795L6.9722 6.83616C6.71806 6.72835 6.4478 6.66958 6.17635 6.65987L6.06913 9.65795ZM5.80065 9.59795C5.71193 9.56031 5.62306 9.50311 5.54323 9.42314L7.66643 7.30369C7.46383 7.10074 7.22647 6.94402 6.9722 6.83616L5.80065 9.59795ZM5.5627 9.44229L8.5822 12.359L10.6665 10.2012L7.64696 7.28454L5.5627 9.44229ZM8.58217 12.3589C8.42536 12.2075 8.31117 11.9775 8.31117 11.7084L11.3112 11.7084C11.3112 11.121 11.0633 10.5846 10.6665 10.2012L8.58217 12.3589ZM8.31117 11.7084C8.31117 11.4394 8.42536 11.2094 8.58217 11.0579L10.6665 13.2156C11.0633 12.8322 11.3112 12.2959 11.3112 11.7084H8.31117ZM8.5822 11.0579L5.5627 13.9745L7.64696 16.1323L10.6665 13.2156L8.5822 11.0579ZM5.54323 13.9937C5.62306 13.9137 5.71193 13.8565 5.80065 13.8189L6.9722 16.5807C7.22647 16.4728 7.46383 16.3161 7.66643 16.1131L5.54323 13.9937ZM5.80065 13.8189C5.88925 13.7813 5.98023 13.7621 6.06913 13.7589L6.17635 16.757C6.44779 16.7473 6.71805 16.6885 6.9722 16.5807L5.80065 13.8189ZM6.06913 13.7589C6.15802 13.7557 6.24888 13.7684 6.33777 13.7987L5.37192 16.6389C5.63191 16.7273 5.90492 16.7667 6.17635 16.757L6.06913 13.7589ZM6.33777 13.7987C6.42675 13.8289 6.51679 13.8778 6.59978 13.9488L4.64916 16.2281C4.86517 16.413 5.11184 16.5505 5.37192 16.6389L6.33777 13.7987ZM6.59978 13.9488C6.68306 14.0201 6.75887 14.1135 6.81501 14.2284L4.11997 15.5462C4.25032 15.8128 4.43286 16.043 4.64916 16.2281L6.59978 13.9488ZM6.81501 14.2284C6.87141 14.3437 6.90478 14.4745 6.90796 14.6118L3.90877 14.6813C3.91579 14.9847 3.98937 15.2791 4.11997 15.5462L6.81501 14.2284ZM6.90796 14.6118C6.91115 14.7493 6.88385 14.8823 6.83202 15.0016L4.08058 13.8059C3.96164 14.0797 3.90174 14.3778 3.90877 14.6813L6.90796 14.6118ZM6.83202 15.0016C6.78042 15.1203 6.70764 15.2185 6.62593 15.2946L4.58173 13.0989C4.37239 13.2938 4.1993 13.5327 4.08058 13.8059L6.83202 15.0016ZM6.64606 15.2755L8.57473 13.4122L6.49026 11.2546L4.5616 13.118L6.64606 15.2755ZM7.5325 10.8334H4.58266V13.8334H7.5325V10.8334ZM4.58266 10.8334C3.59887 10.8334 2.62997 11.1874 1.89486 11.8557L3.91288 14.0755C4.06826 13.9342 4.30712 13.8334 4.58266 13.8334V10.8334ZM1.89486 11.8557C1.155 12.5283 0.708496 13.4729 0.708496 14.4917L3.7085 14.4917C3.7085 14.3658 3.76227 14.2124 3.91288 14.0755L1.89486 11.8557ZM0.708496 14.4917V16.7084H3.7085V14.4917H0.708496ZM0.708496 16.7084C0.708496 16.4277 0.832428 16.1911 0.998123 16.0404L3.01614 18.2603C3.4397 17.8752 3.7085 17.3206 3.7085 16.7084L0.708496 16.7084ZM0.998123 16.0404C1.15906 15.8941 1.34921 15.8334 1.521 15.8334V18.8334C2.05746 18.8334 2.59734 18.641 3.01614 18.2603L0.998123 16.0404ZM1.521 15.8334C1.69278 15.8334 1.88293 15.8941 2.04387 16.0404L0.0258509 18.2603C0.444652 18.641 0.984536 18.8334 1.521 18.8334V15.8334ZM2.04387 16.0404C2.20956 16.1911 2.3335 16.4277 2.3335 16.7084L-0.666504 16.7084C-0.666504 17.3206 -0.397707 17.8752 0.0258509 18.2603L2.04387 16.0404ZM2.3335 16.7084V14.4917H-0.666504V16.7084H2.3335ZM2.3335 14.4917C2.3335 14.0343 2.53213 13.5629 2.94061 13.1916L0.922592 10.9718C-0.0751379 11.8788 -0.666504 13.1413 -0.666504 14.4917H2.3335ZM2.94061 13.1916C3.35385 12.8159 3.94245 12.5834 4.58266 12.5834L4.58266 9.58342C3.2342 9.58342 1.91557 10.0691 0.922592 10.9718L2.94061 13.1916ZM4.58266 12.5834H7.5325V9.58342H4.58266V12.5834Z" fill="white" mask="url(#path-1-inside-1_5003_1258)"/>
</svg>
