<svg width="24" height="24" viewBox="0 0 24 24" fill="none" xmlns="http://www.w3.org/2000/svg">
<mask id="path-1-inside-1_5004_1609" fill="white">
<path d="M19.931 16C19.4483 16 18.9655 16.2 18.6207 16.4667L15.0345 14.4C15.0345 14.2667 15.1034 14.1333 15.1034 14C15.1034 13.8667 15.1034 13.7333 15.0345 13.6L18.6207 11.5333C18.9655 11.8 19.4483 12 19.931 12C21.1034 12 22 11.1333 22 10C22 8.86667 21.1034 8 19.931 8C18.7586 8 17.8621 8.86667 17.8621 10C17.8621 10.1333 17.8621 10.2667 17.931 10.4L14.3448 12.4667C14 12.2 13.5172 12 13.0345 12C11.8621 12 10.9655 12.8667 10.9655 14C10.9655 15.1333 11.8621 16 13.0345 16C13.5172 16 14 15.8 14.3448 15.5333L17.931 17.6C17.931 17.7333 17.8621 17.8667 17.8621 18C17.8621 19.1333 18.7586 20 19.931 20C21.1034 20 22 19.1333 22 18C22 16.8667 21.1034 16 19.931 16ZM19.931 9.33333C20.3448 9.33333 20.6207 9.6 20.6207 10C20.6207 10.4 20.3448 10.6667 19.931 10.6667C19.5172 10.6667 19.2414 10.4 19.2414 10C19.2414 9.6 19.5172 9.33333 19.931 9.33333ZM13.0345 14.6667C12.6207 14.6667 12.3448 14.4 12.3448 14C12.3448 13.6 12.6207 13.3333 13.0345 13.3333C13.4483 13.3333 13.7241 13.6 13.7241 14C13.7241 14.4 13.4483 14.6667 13.0345 14.6667ZM19.931 18.6667C19.5172 18.6667 19.2414 18.4 19.2414 18C19.2414 17.6 19.5172 17.3333 19.931 17.3333C20.3448 17.3333 20.6207 17.6 20.6207 18C20.6207 18.4 20.3448 18.6667 19.931 18.6667Z"/>
<path d="M14.4138 18H7.17241C5.10345 18 3.37931 16.3333 3.37931 14.3333C3.37931 12.5333 4.68966 11.0667 6.48276 10.7333L7.37931 10.6L7.58621 9.73333C8.13793 7.13333 10.4138 5.33333 13.0345 5.33333C13.3793 5.33333 13.7241 5.33333 14.069 5.4C15.1724 5.6 16.1379 6.13333 16.9655 6.86667L17.931 5.93333C16.9655 5 15.7241 4.33333 14.3448 4.13333C13.931 4.06667 13.4483 4 13.0345 4C9.7931 4 6.89655 6.2 6.27586 9.4C3.7931 9.86667 2 11.9333 2 14.3333C2 17.0667 4.27586 19.3333 7.17241 19.3333H14.4138V18Z"/>
</mask>
<path d="M18.6207 16.4667L17.8717 17.7663L18.7429 18.2684L19.5383 17.6532L18.6207 16.4667ZM15.0345 14.4H13.5345V15.2668L14.2855 15.6996L15.0345 14.4ZM15.0345 13.6L14.2855 12.3004L13.0437 13.016L13.7022 14.2891L15.0345 13.6ZM18.6207 11.5333L19.5383 10.3468L18.7429 9.73165L17.8717 10.2337L18.6207 11.5333ZM17.931 10.4L18.68 11.6996L19.9219 10.984L19.2634 9.71087L17.931 10.4ZM14.3448 12.4667L13.4272 13.6532L14.2226 14.2684L15.0938 13.7663L14.3448 12.4667ZM14.3448 15.5333L15.0938 14.2337L14.2226 13.7316L13.4272 14.3468L14.3448 15.5333ZM17.931 17.6H19.431V16.7332L18.68 16.3004L17.931 17.6ZM14.4138 18H15.9138V16.5H14.4138V18ZM6.48276 10.7333L6.26211 9.24965L6.23528 9.25364L6.20861 9.2586L6.48276 10.7333ZM7.37931 10.6L7.59996 12.0837L8.60287 11.9345L8.83831 10.9483L7.37931 10.6ZM7.58621 9.73333L9.04521 10.0816L9.0496 10.0632L9.05353 10.0447L7.58621 9.73333ZM14.069 5.4L13.7842 6.87273L13.7928 6.87439L13.8014 6.87595L14.069 5.4ZM16.9655 6.86667L15.9707 7.98933L17.0098 8.9101L18.0081 7.94515L16.9655 6.86667ZM17.931 5.93333L18.9736 7.01182L20.0892 5.93333L18.9736 4.85485L17.931 5.93333ZM14.3448 4.13333L14.1062 5.61424L14.1179 5.61611L14.1296 5.61781L14.3448 4.13333ZM6.27586 9.4L6.55295 10.8742L7.55439 10.686L7.74842 9.68563L6.27586 9.4ZM2 14.3333H0.5H2ZM14.4138 19.3333V20.8333H15.9138V19.3333H14.4138ZM19.931 14.5C19.0617 14.5 18.264 14.8463 17.7031 15.2801L19.5383 17.6532C19.5906 17.6128 19.6643 17.57 19.7469 17.5393C19.8294 17.5086 19.8936 17.5 19.931 17.5V14.5ZM19.3696 15.167L15.7834 13.1004L14.2855 15.6996L17.8717 17.7663L19.3696 15.167ZM16.5345 14.4C16.5345 14.4935 16.5226 14.5611 16.5178 14.5856C16.514 14.6053 16.5105 14.6168 16.5212 14.5756C16.5278 14.5502 16.5485 14.472 16.5652 14.3856C16.5829 14.2944 16.6034 14.1601 16.6034 14H13.6034C13.6034 13.9065 13.6154 13.8389 13.6201 13.8144C13.6239 13.7947 13.6274 13.7832 13.6167 13.8244C13.6102 13.8498 13.5894 13.928 13.5727 14.0144C13.555 14.1056 13.5345 14.2399 13.5345 14.4H16.5345ZM16.6034 14C16.6034 13.9042 16.6263 13.4126 16.3668 12.9109L13.7022 14.2891C13.6389 14.1668 13.6156 14.0569 13.6072 13.9924C13.6035 13.9636 13.6031 13.9463 13.6032 13.9485C13.6033 13.9535 13.6034 13.9626 13.6034 14H16.6034ZM15.7834 14.8996L19.3696 12.833L17.8717 10.2337L14.2855 12.3004L15.7834 14.8996ZM17.7031 12.7199C18.264 13.1537 19.0617 13.5 19.931 13.5V10.5C19.8936 10.5 19.8294 10.4914 19.7469 10.4607C19.6643 10.43 19.5906 10.3872 19.5383 10.3468L17.7031 12.7199ZM19.931 13.5C21.8835 13.5 23.5 12.0093 23.5 10H20.5C20.5 10.1577 20.4426 10.2692 20.3626 10.3465C20.2806 10.4258 20.1409 10.5 19.931 10.5V13.5ZM23.5 10C23.5 7.99071 21.8835 6.5 19.931 6.5V9.5C20.1409 9.5 20.2806 9.57422 20.3626 9.65348C20.4426 9.73081 20.5 9.84229 20.5 10H23.5ZM19.931 6.5C17.9785 6.5 16.3621 7.99071 16.3621 10H19.3621C19.3621 9.84229 19.4194 9.73081 19.4994 9.65348C19.5814 9.57422 19.7212 9.5 19.931 9.5V6.5ZM16.3621 10C16.3621 10.0958 16.3392 10.5874 16.5987 11.0891L19.2634 9.71087C19.3267 9.83324 19.35 9.94313 19.3583 10.0076C19.362 10.0364 19.3624 10.0537 19.3624 10.0515C19.3622 10.0465 19.3621 10.0374 19.3621 10H16.3621ZM17.1821 9.10036L13.5959 11.167L15.0938 13.7663L18.68 11.6996L17.1821 9.10036ZM15.2624 11.2801C14.7015 10.8463 13.9038 10.5 13.0345 10.5V13.5C13.072 13.5 13.1361 13.5086 13.2186 13.5393C13.3012 13.57 13.3749 13.6128 13.4272 13.6532L15.2624 11.2801ZM13.0345 10.5C11.082 10.5 9.46552 11.9907 9.46552 14H12.4655C12.4655 13.8423 12.5229 13.7308 12.6029 13.6535C12.6849 13.5742 12.8246 13.5 13.0345 13.5V10.5ZM9.46552 14C9.46552 16.0093 11.082 17.5 13.0345 17.5V14.5C12.8246 14.5 12.6849 14.4258 12.6029 14.3465C12.5229 14.2692 12.4655 14.1577 12.4655 14H9.46552ZM13.0345 17.5C13.9038 17.5 14.7015 17.1537 15.2624 16.7199L13.4272 14.3468C13.3749 14.3872 13.3012 14.43 13.2186 14.4607C13.1361 14.4914 13.072 14.5 13.0345 14.5V17.5ZM13.5959 16.833L17.1821 18.8996L18.68 16.3004L15.0938 14.2337L13.5959 16.833ZM16.431 17.6C16.431 17.5065 16.4429 17.4389 16.4477 17.4144C16.4515 17.3947 16.455 17.3832 16.4443 17.4244C16.4378 17.4498 16.417 17.528 16.4003 17.6144C16.3826 17.7056 16.3621 17.8399 16.3621 18H19.3621C19.3621 18.0935 19.3502 18.1611 19.3454 18.1856C19.3416 18.2053 19.3381 18.2168 19.3488 18.1756C19.3553 18.1502 19.3761 18.072 19.3928 17.9856C19.4105 17.8944 19.431 17.7601 19.431 17.6H16.431ZM16.3621 18C16.3621 20.0093 17.9785 21.5 19.931 21.5V18.5C19.7212 18.5 19.5814 18.4258 19.4994 18.3465C19.4194 18.2692 19.3621 18.1577 19.3621 18H16.3621ZM19.931 21.5C21.8835 21.5 23.5 20.0093 23.5 18H20.5C20.5 18.1577 20.4426 18.2692 20.3626 18.3465C20.2806 18.4258 20.1409 18.5 19.931 18.5V21.5ZM23.5 18C23.5 15.9907 21.8835 14.5 19.931 14.5V17.5C20.1409 17.5 20.2806 17.5742 20.3626 17.6535C20.4426 17.7308 20.5 17.8423 20.5 18H23.5ZM19.931 10.8333C19.812 10.8333 19.5898 10.7898 19.3885 10.5951C19.1826 10.3961 19.1207 10.1565 19.1207 10H22.1207C22.1207 9.44353 21.9208 8.87054 21.4736 8.43818C21.0309 8.01024 20.4639 7.83333 19.931 7.83333V10.8333ZM19.1207 10C19.1207 9.84353 19.1826 9.60387 19.3885 9.40485C19.5898 9.21024 19.812 9.16667 19.931 9.16667V12.1667C20.4639 12.1667 21.0309 11.9898 21.4736 11.5618C21.9208 11.1295 22.1207 10.5565 22.1207 10H19.1207ZM19.931 9.16667C20.0501 9.16667 20.2722 9.21024 20.4736 9.40485C20.6795 9.60387 20.7414 9.84353 20.7414 10H17.7414C17.7414 10.5565 17.9412 11.1295 18.3885 11.5618C18.8312 11.9898 19.3982 12.1667 19.931 12.1667V9.16667ZM20.7414 10C20.7414 10.1565 20.6795 10.3961 20.4736 10.5951C20.2722 10.7898 20.0501 10.8333 19.931 10.8333V7.83333C19.3982 7.83333 18.8312 8.01024 18.3885 8.43818C17.9412 8.87054 17.7414 9.44353 17.7414 10H20.7414ZM13.0345 13.1667C13.1535 13.1667 13.3757 13.2102 13.577 13.4049C13.7829 13.6039 13.8448 13.8435 13.8448 14H10.8448C10.8448 14.5565 11.0447 15.1295 11.492 15.5618C11.9346 15.9898 12.5017 16.1667 13.0345 16.1667V13.1667ZM13.8448 14C13.8448 14.1565 13.7829 14.3961 13.577 14.5951C13.3757 14.7898 13.1535 14.8333 13.0345 14.8333V11.8333C12.5017 11.8333 11.9346 12.0102 11.492 12.4382C11.0447 12.8705 10.8448 13.4435 10.8448 14H13.8448ZM13.0345 14.8333C12.9155 14.8333 12.6933 14.7898 12.492 14.5951C12.2861 14.3961 12.2241 14.1565 12.2241 14H15.2241C15.2241 13.4435 15.0243 12.8705 14.577 12.4382C14.1343 12.0102 13.5673 11.8333 13.0345 11.8333V14.8333ZM12.2241 14C12.2241 13.8435 12.2861 13.6039 12.492 13.4049C12.6933 13.2102 12.9155 13.1667 13.0345 13.1667V16.1667C13.5673 16.1667 14.1343 15.9898 14.577 15.5618C15.0243 15.1295 15.2241 14.5565 15.2241 14H12.2241ZM19.931 17.1667C20.0501 17.1667 20.2722 17.2102 20.4736 17.4049C20.6795 17.6039 20.7414 17.8435 20.7414 18H17.7414C17.7414 18.5565 17.9412 19.1295 18.3885 19.5618C18.8312 19.9898 19.3982 20.1667 19.931 20.1667V17.1667ZM20.7414 18C20.7414 18.1565 20.6795 18.3961 20.4736 18.5951C20.2722 18.7898 20.0501 18.8333 19.931 18.8333V15.8333C19.3982 15.8333 18.8312 16.0102 18.3885 16.4382C17.9412 16.8705 17.7414 17.4435 17.7414 18H20.7414ZM19.931 18.8333C19.812 18.8333 19.5898 18.7898 19.3885 18.5951C19.1826 18.3961 19.1207 18.1565 19.1207 18H22.1207C22.1207 17.4435 21.9208 16.8705 21.4736 16.4382C21.0309 16.0102 20.4639 15.8333 19.931 15.8333V18.8333ZM19.1207 18C19.1207 17.8435 19.1826 17.6039 19.3885 17.4049C19.5898 17.2102 19.812 17.1667 19.931 17.1667V20.1667C20.4639 20.1667 21.0309 19.9898 21.4736 19.5618C21.9208 19.1295 22.1207 18.5565 22.1207 18H19.1207ZM14.4138 16.5H7.17241V19.5H14.4138V16.5ZM7.17241 16.5C5.88354 16.5 4.87931 15.4574 4.87931 14.3333H1.87931C1.87931 17.2093 4.32336 19.5 7.17241 19.5V16.5ZM4.87931 14.3333C4.87931 13.3154 5.61434 12.4205 6.75691 12.2081L6.20861 9.2586C3.76497 9.71286 1.87931 11.7513 1.87931 14.3333H4.87931ZM6.70341 12.217L7.59996 12.0837L7.15866 9.11632L6.26211 9.24965L6.70341 12.217ZM8.83831 10.9483L9.04521 10.0816L6.12721 9.38503L5.92031 10.2517L8.83831 10.9483ZM9.05353 10.0447C9.45582 8.14894 11.1107 6.83333 13.0345 6.83333V3.83333C9.71692 3.83333 6.82004 6.11773 6.11888 9.42196L9.05353 10.0447ZM13.0345 6.83333C13.4019 6.83333 13.6034 6.83776 13.7842 6.87273L14.3537 3.92727C13.8449 3.82891 13.3567 3.83333 13.0345 3.83333V6.83333ZM13.8014 6.87595C14.5847 7.01792 15.307 7.40119 15.9707 7.98933L17.9603 5.74401C16.9689 4.86548 15.7601 4.18208 14.3365 3.92405L13.8014 6.87595ZM18.0081 7.94515L18.9736 7.01182L16.8885 4.85485L15.923 5.78818L18.0081 7.94515ZM18.9736 4.85485C17.8067 3.72691 16.2837 2.89878 14.5601 2.64886L14.1296 5.61781C15.1646 5.76789 16.1243 6.27309 16.8885 7.01182L18.9736 4.85485ZM14.5834 2.65243C14.1646 2.58495 13.5786 2.5 13.0345 2.5V5.5C13.318 5.5 13.6975 5.54838 14.1062 5.61424L14.5834 2.65243ZM13.0345 2.5C9.1346 2.5 5.57185 5.15212 4.80331 9.11438L7.74842 9.68563C8.22125 7.24788 10.4516 5.5 13.0345 5.5V2.5ZM5.99877 7.92582C2.8632 8.51519 0.5 11.1559 0.5 14.3333H3.5C3.5 12.7107 4.723 11.2181 6.55295 10.8742L5.99877 7.92582ZM0.5 14.3333C0.5 17.9298 3.48256 20.8333 7.17241 20.8333V17.8333C5.06917 17.8333 3.5 16.2035 3.5 14.3333H0.5ZM7.17241 20.8333H14.4138V17.8333H7.17241V20.8333ZM15.9138 19.3333V18H12.9138V19.3333H15.9138Z" fill="white" mask="url(#path-1-inside-1_5004_1609)"/>
</svg>
