<svg width="24" height="24" viewBox="0 0 24 24" fill="none" xmlns="http://www.w3.org/2000/svg">
<mask id="path-1-inside-1_5004_6976" fill="white">
<path d="M8.11111 18.8571H20.2056C20.3759 18.8571 20.5326 18.784 20.6756 18.6377C20.8185 18.4914 20.8896 18.3299 20.8889 18.1531V15.2286H8.11111V18.8571ZM3.11111 8.77143H7V5.14286H3.79556C3.62444 5.14286 3.46741 5.216 3.32444 5.36229C3.18148 5.50857 3.11037 5.6701 3.11111 5.84686V8.77143ZM3.11111 14.1143H7V9.91429H3.11111V14.1143ZM3.79556 18.8571H7V15.2286H3.11111V18.1543C3.11111 18.3295 3.18222 18.4907 3.32444 18.6377C3.46667 18.7848 3.62333 18.8579 3.79444 18.8571M8.11111 14.1143H20.8889V9.91429H8.11111V14.1143ZM8.11111 8.77143H20.8889V5.84571C20.8889 5.67048 20.8178 5.50933 20.6756 5.36229C20.5333 5.21524 20.3767 5.1421 20.2056 5.14286H8.11111V8.77143ZM3.79556 20C3.2837 20 2.85667 19.824 2.51444 19.472C2.17222 19.12 2.00074 18.6804 2 18.1531V5.84686C2 5.32038 2.17148 4.88114 2.51444 4.52914C2.85741 4.17714 3.28407 4.00076 3.79444 4H20.2056C20.7167 4 21.1433 4.17638 21.4856 4.52914C21.8278 4.8819 21.9993 5.32114 22 5.84686V18.1543C22 18.68 21.8285 19.1192 21.4856 19.472C21.1426 19.8248 20.7159 20.0008 20.2056 20H3.79556Z"/>
</mask>
<path d="M8.11111 18.8571H6.61111V20.3571H8.11111V18.8571ZM20.8889 18.1531H19.3889L19.3889 18.1594L20.8889 18.1531ZM20.8889 15.2286H22.3889V13.7286H20.8889V15.2286ZM8.11111 15.2286V13.7286H6.61111V15.2286H8.11111ZM3.11111 8.77143H1.61111V10.2714H3.11111V8.77143ZM7 8.77143V10.2714H8.5V8.77143H7ZM7 5.14286H8.5V3.64286H7V5.14286ZM3.11111 5.84686H4.61112L4.6111 5.84057L3.11111 5.84686ZM3.11111 14.1143H1.61111V15.6143H3.11111V14.1143ZM7 14.1143V15.6143H8.5V14.1143H7ZM7 9.91429H8.5V8.41429H7V9.91429ZM3.11111 9.91429V8.41429H1.61111V9.91429H3.11111ZM7 18.8571V20.3571H8.5V18.8571H7ZM7 15.2286H8.5V13.7286H7V15.2286ZM3.11111 15.2286V13.7286H1.61111V15.2286H3.11111ZM8.11111 14.1143H6.61111V15.6143H8.11111V14.1143ZM20.8889 14.1143V15.6143H22.3889V14.1143H20.8889ZM20.8889 9.91429H22.3889V8.41429H20.8889V9.91429ZM8.11111 9.91429V8.41429H6.61111V9.91429H8.11111ZM8.11111 8.77143H6.61111V10.2714H8.11111V8.77143ZM20.8889 8.77143V10.2714H22.3889V8.77143H20.8889ZM20.2056 5.14286V6.64287L20.2122 6.64284L20.2056 5.14286ZM8.11111 5.14286V3.64286H6.61111V5.14286H8.11111ZM2 18.1531H0.499999L0.500001 18.1552L2 18.1531ZM3.79444 4V2.5L3.7922 2.5L3.79444 4ZM22 5.84686H23.5L23.5 5.84474L22 5.84686ZM20.2056 20L20.2078 18.5H20.2056V20ZM8.11111 20.3571H20.2056V17.3571H8.11111V20.3571ZM20.2056 20.3571C20.8591 20.3571 21.3839 20.059 21.7483 19.6861L19.6028 17.5893C19.6349 17.5564 19.7041 17.4955 19.8163 17.4431C19.9336 17.3883 20.0681 17.3571 20.2056 17.3571V20.3571ZM21.7483 19.6861C22.12 19.3059 22.3915 18.7798 22.3889 18.1469L19.3889 18.1594C19.3884 18.0379 19.414 17.9144 19.4633 17.8025C19.5108 17.6945 19.5681 17.6248 19.6028 17.5893L21.7483 19.6861ZM22.3889 18.1531V15.2286H19.3889V18.1531H22.3889ZM20.8889 13.7286H8.11111V16.7286H20.8889V13.7286ZM6.61111 15.2286V18.8571H9.61111V15.2286H6.61111ZM3.11111 10.2714H7V7.27143H3.11111V10.2714ZM8.5 8.77143V5.14286H5.5V8.77143H8.5ZM7 3.64286H3.79556V6.64286H7V3.64286ZM3.79556 3.64286C3.14302 3.64286 2.61756 3.93949 2.25167 4.31388L4.39722 6.41069C4.36458 6.44409 4.29503 6.50517 4.18277 6.55746C4.06548 6.61209 3.9316 6.64286 3.79556 6.64286V3.64286ZM2.25167 4.31388C1.88005 4.69414 1.60847 5.22017 1.61112 5.85314L4.6111 5.84057C4.61161 5.96207 4.58602 6.08558 4.53673 6.19754C4.48918 6.30555 4.43191 6.37519 4.39722 6.41069L2.25167 4.31388ZM1.61111 5.84686V8.77143H4.61111V5.84686H1.61111ZM3.11111 15.6143H7V12.6143H3.11111V15.6143ZM8.5 14.1143V9.91429H5.5V14.1143H8.5ZM7 8.41429H3.11111V11.4143H7V8.41429ZM1.61111 9.91429V14.1143H4.61111V9.91429H1.61111ZM3.79556 20.3571H7V17.3571H3.79556V20.3571ZM8.5 18.8571V15.2286H5.5V18.8571H8.5ZM7 13.7286H3.11111V16.7286H7V13.7286ZM1.61111 15.2286V18.1543H4.61111V15.2286H1.61111ZM1.61111 18.1543C1.61111 18.7834 1.88211 19.304 2.24624 19.6805L4.40265 17.5949C4.43508 17.6284 4.49033 17.6957 4.53676 17.801C4.58496 17.9102 4.61111 18.0323 4.61111 18.1543H1.61111ZM2.24624 19.6805C2.61273 20.0595 3.14231 20.3601 3.80112 20.3571L3.78777 17.3572C3.92611 17.3565 4.06294 17.3876 4.18316 17.4437C4.29815 17.4974 4.36926 17.5604 4.40265 17.5949L2.24624 19.6805ZM8.11111 15.6143H20.8889V12.6143H8.11111V15.6143ZM22.3889 14.1143V9.91429H19.3889V14.1143H22.3889ZM20.8889 8.41429H8.11111V11.4143H20.8889V8.41429ZM6.61111 9.91429V14.1143H9.61111V9.91429H6.61111ZM8.11111 10.2714H20.8889V7.27143H8.11111V10.2714ZM22.3889 8.77143V5.84571H19.3889V8.77143H22.3889ZM22.3889 5.84571C22.3889 5.21655 22.1179 4.69595 21.7538 4.31946L19.5974 6.40511C19.5649 6.37157 19.5097 6.30425 19.4632 6.19902C19.415 6.08981 19.3889 5.96774 19.3889 5.84571H22.3889ZM21.7538 4.31946C21.3873 3.94054 20.8577 3.63994 20.1989 3.64287L20.2122 6.64284C20.0739 6.64346 19.9371 6.61244 19.8168 6.55631C19.7019 6.50263 19.6307 6.43963 19.5974 6.40511L21.7538 4.31946ZM20.2056 3.64286H8.11111V6.64286H20.2056V3.64286ZM6.61111 5.14286V8.77143H9.61111V5.14286H6.61111ZM3.79556 18.5C3.71447 18.5 3.67652 18.4868 3.66296 18.4812C3.65071 18.4761 3.62729 18.4648 3.58994 18.4264L1.43895 20.5176C2.07679 21.1737 2.89788 21.5 3.79556 21.5V18.5ZM3.58994 18.4264C3.54076 18.3758 3.50024 18.3202 3.5 18.151L0.500001 18.1552C0.501245 19.0405 0.803683 19.8642 1.43895 20.5176L3.58994 18.4264ZM3.5 18.1531V5.84686H0.5V18.1531H3.5ZM3.5 5.84686C3.5 5.68073 3.53947 5.62656 3.58881 5.57592L1.44008 3.48236C0.803497 4.13572 0.5 4.96003 0.5 5.84686H3.5ZM3.58881 5.57592C3.63805 5.52539 3.67271 5.50018 3.79668 5.5L3.7922 2.5C2.89544 2.50134 2.07677 2.8289 1.44008 3.48236L3.58881 5.57592ZM3.79444 5.5H20.2056V2.5H3.79444V5.5ZM20.2056 5.5C20.2856 5.5 20.3227 5.51309 20.3358 5.51851C20.3477 5.52341 20.3712 5.53471 20.4089 5.5736L22.5622 3.48469C21.9251 2.82794 21.1042 2.5 20.2056 2.5V5.5ZM20.4089 5.5736C20.46 5.62627 20.4998 5.68261 20.5 5.84897L23.5 5.84474C23.4988 4.95968 23.1955 4.13753 22.5622 3.48469L20.4089 5.5736ZM20.5 5.84686V18.1543H23.5V5.84686H20.5ZM20.5 18.1543C20.5 18.319 20.4609 18.3741 20.4101 18.4264L22.5611 20.5176C23.1961 19.8644 23.5 19.041 23.5 18.1543H20.5ZM20.4101 18.4264C20.3718 18.4657 20.348 18.4771 20.3363 18.4819C20.3235 18.4872 20.2869 18.5001 20.2078 18.5L20.2033 21.5C21.1026 21.5013 21.9235 21.1734 22.5611 20.5176L20.4101 18.4264ZM20.2056 18.5H3.79556V21.5H20.2056V18.5Z" fill="white" mask="url(#path-1-inside-1_5004_6976)"/>
</svg>
