<svg width="24" height="24" viewBox="0 0 24 24" fill="none" xmlns="http://www.w3.org/2000/svg">
<path d="M5.60718 8.12147H18.3928M5.60718 12H15.0964M5.60718 15.8791H18.3928M4.84256 4H3.40051C3.21658 3.99993 3.03443 4.0376 2.86448 4.11085C2.69453 4.18411 2.54011 4.29152 2.41005 4.42694C2.27999 4.56236 2.17683 4.72313 2.10647 4.90008C2.03611 5.07703 1.99993 5.26667 2 5.45819V18.5418C1.99993 18.7333 2.03611 18.923 2.10647 19.0999C2.17683 19.2769 2.27999 19.4376 2.41005 19.5731C2.54011 19.7085 2.69453 19.8159 2.86448 19.8891C3.03443 19.9624 3.21658 20.0001 3.40051 20H4.84256M19.1574 4H20.5995C20.7834 3.99993 20.9656 4.0376 21.1355 4.11085C21.3055 4.18411 21.4599 4.29152 21.59 4.42694C21.72 4.56236 21.8232 4.72313 21.8935 4.90008C21.9639 5.07703 22.0001 5.26667 22 5.45819V18.5418C22.0001 18.7333 21.9639 18.923 21.8935 19.0999C21.8232 19.2769 21.72 19.4376 21.59 19.5731C21.4599 19.7085 21.3055 19.8159 21.1355 19.8891C20.9656 19.9624 20.7834 20.0001 20.5995 20H19.1574" stroke="white" stroke-width="1.5" stroke-linecap="round" stroke-linejoin="round"/>
</svg>
