<svg width="24" height="24" viewBox="0 0 24 24" fill="none" xmlns="http://www.w3.org/2000/svg">
<path d="M21.5984 8.84765V17.4C21.5984 18.1957 21.2824 18.9588 20.7198 19.5214C20.1572 20.084 19.3941 20.4 18.5984 20.4H5.39844C4.60279 20.4 3.83973 20.084 3.27712 19.5214C2.71451 18.9588 2.39844 18.1957 2.39844 17.4V8.84765L11.6936 14.3172C11.786 14.3717 11.8912 14.4004 11.9984 14.4004C12.1056 14.4004 12.2109 14.3717 12.3032 14.3172L21.5984 8.84765ZM18.5984 4.80005C19.3366 4.79993 20.0489 5.07198 20.5991 5.56414C21.1493 6.0563 21.4986 6.73402 21.5804 7.46765L11.9984 13.104L2.41644 7.46765C2.49823 6.73402 2.84763 6.0563 3.39779 5.56414C3.94796 5.07198 4.66026 4.79993 5.39844 4.80005H18.5984Z" fill="#B6B6B6"/>
</svg>
