<svg width="24" height="24" viewBox="0 0 24 24" fill="none" xmlns="http://www.w3.org/2000/svg">
<path d="M21 6.55556V17.4444C21 17.857 20.8541 18.2527 20.5945 18.5444C20.3348 18.8361 19.9826 19 19.6154 19H4.38462C4.01739 19 3.66521 18.8361 3.40554 18.5444C3.14588 18.2527 3 17.857 3 17.4444V6.55556M21 6.55556C21 6.143 20.8541 5.74733 20.5945 5.45561C20.3348 5.16389 19.9826 5 19.6154 5H4.38462C4.01739 5 3.66521 5.16389 3.40554 5.45561C3.14588 5.74733 3 6.143 3 6.55556M21 6.55556L12.7878 12.9427C12.5563 13.1226 12.2815 13.219 12 13.219C11.7185 13.219 11.4437 13.1226 11.2122 12.9427L3 6.55556" stroke="white" stroke-linecap="round" stroke-linejoin="round"/>
</svg>
