<svg width="24" height="24" viewBox="0 0 24 24" fill="none" xmlns="http://www.w3.org/2000/svg">
<path d="M5.32989 6.64546L6.02182 6.93482L5.32988 6.64546C5.17564 7.01429 5.09615 7.40987 5.09615 7.80952C5.09615 8.61697 5.42006 9.38989 5.99427 9.95863C6.56824 10.5271 7.3452 10.8452 8.15385 10.8452C8.96249 10.8452 9.73945 10.5271 10.3134 9.95863C10.8876 9.38989 11.2115 8.61697 11.2115 7.80952C11.2115 7.40987 11.1321 7.0143 10.9778 6.64546C10.8236 6.27663 10.5977 5.94198 10.3134 5.66042C10.0292 5.37887 9.69209 5.15591 9.32164 5.00393C8.95119 4.85194 8.5544 4.77381 8.15385 4.77381C7.7533 4.77381 7.3565 4.85194 6.98606 5.00393C6.6156 5.15591 6.27853 5.37887 5.99427 5.66042C5.71001 5.94198 5.48413 6.27663 5.32989 6.64546ZM13.55 15.7012L13.5486 15.7105L13.5475 15.7198C13.4753 16.3297 13.2461 16.9116 12.8812 17.4097L12.8808 17.4102C12.2083 18.3296 10.8567 19.25 8.15385 19.25C5.45211 19.25 4.10109 18.3303 3.42496 17.4096C3.06139 16.9125 2.83291 16.3321 2.76064 15.7237C2.75565 15.6771 2.7521 15.6304 2.75 15.5836V15.4286C2.75 15.0236 2.91235 14.6338 3.20369 14.3452C3.49528 14.0564 3.89226 13.8929 4.30769 13.8929H12C12.4154 13.8929 12.8124 14.0564 13.104 14.3452C13.3953 14.6338 13.5577 15.0236 13.5577 15.4286V15.5974C13.5575 15.6321 13.5549 15.6668 13.55 15.7012ZM2.78846 15.5764V15.6072L2.791 15.638L2.79715 15.7127L2.79847 15.7287L2.80049 15.7447C2.87583 16.3432 3.10272 16.9126 3.45941 17.3999L3.4602 17.401C4.12968 18.3123 5.46864 19.2262 8.15385 19.2262C10.8391 19.2262 12.178 18.3123 12.8475 17.401L12.8483 17.3999C13.205 16.9126 13.4319 16.3432 13.5072 15.7447L13.5093 15.7281L13.5106 15.7114L13.5168 15.6352L13.5192 15.6051V15.5749V15.4286C13.5192 15.0253 13.3574 14.6399 13.0717 14.357C12.7863 14.0742 12.4006 13.9167 12 13.9167H4.30769C3.90707 13.9167 3.52143 14.0742 3.23598 14.357C2.95028 14.6399 2.78846 15.0253 2.78846 15.4286V15.5657V15.5764ZM21.2439 15.143L21.2438 15.143L21.2423 15.1568C21.1931 15.5991 21.0299 16.0221 20.7676 16.385L20.767 16.3858C20.2844 17.0552 19.3158 17.7262 17.3846 17.7262C16.9339 17.7262 16.5361 17.6891 16.1862 17.6248C16.1889 17.6175 16.1917 17.6101 16.1945 17.6027C16.5452 17.6669 16.9399 17.7024 17.3846 17.7024C19.2994 17.7024 20.2538 17.0402 20.731 16.3768C20.9883 16.0223 21.151 15.6083 21.2031 15.1734L21.2052 15.1558L21.2065 15.1382L21.2096 15.0955L21.212 15.0625L21.2114 15.0294C21.2066 14.7303 21.0832 14.4466 20.8702 14.239C20.6575 14.0316 20.3724 13.9167 20.0769 13.9167C20.0769 13.9167 20.0769 13.9167 20.0768 13.9167H16.3367C16.3339 13.9087 16.331 13.9008 16.3282 13.8929H20.0769C20.731 13.8929 21.25 14.4172 21.25 15.0476V15.0653C21.2493 15.0913 21.2473 15.1172 21.2439 15.143ZM5.96199 5.64865C6.54209 5.07407 7.33039 4.75 8.15385 4.75C8.9773 4.75 9.7656 5.07407 10.3457 5.64865C10.9256 6.22298 11.25 7.00042 11.25 7.80952C11.25 8.61863 10.9256 9.39607 10.3457 9.9704C9.7656 10.545 8.9773 10.869 8.15385 10.869C7.33039 10.869 6.54209 10.545 5.96199 9.9704C5.38213 9.39607 5.05769 8.61863 5.05769 7.80952C5.05769 7.00042 5.38213 6.22298 5.96199 5.64865ZM15.769 6.96107C15.339 7.38693 15.0962 7.96605 15.0962 8.57143C15.0962 9.17681 15.339 9.75593 15.769 10.1818C16.1987 10.6074 16.78 10.8452 17.3846 10.8452C17.9893 10.8452 18.5705 10.6074 19.0003 10.1818C19.4302 9.75593 19.6731 9.17681 19.6731 8.57143C19.6731 7.96605 19.4302 7.38693 19.0003 6.96107C18.5705 6.53545 17.9893 6.29762 17.3846 6.29762C16.78 6.29762 16.1987 6.53545 15.769 6.96107ZM15.7367 6.9493C16.1725 6.51761 16.7652 6.27381 17.3846 6.27381C18.0041 6.27381 18.5967 6.51761 19.0325 6.9493C19.4681 7.38075 19.7115 7.96439 19.7115 8.57143C19.7115 9.17847 19.4681 9.76211 19.0325 10.1936C18.5967 10.6253 18.0041 10.869 17.3846 10.869C16.7652 10.869 16.1725 10.6253 15.7367 10.1936C15.3011 9.76211 15.0577 9.17847 15.0577 8.57143C15.0577 7.96439 15.3011 7.38075 15.7367 6.9493Z" stroke="white" stroke-width="1.5"/>
</svg>
