<svg width="24" height="24" viewBox="0 0 24 24" fill="none" xmlns="http://www.w3.org/2000/svg">
  <path d="M11.0436 15.25L9.85421 13.986L9.58389 13.6988L11.0438 15.25L9.58115 16.8041L9.85421 16.514L11.0436 15.25ZM2.75 3.75C2.75 3.57864 2.79323 3.41727 2.86936 3.27622C2.79171 3.42055 2.75 3.58313 2.75 3.75ZM3.75 2.75C3.58313 2.75 3.42055 2.79171 3.27622 2.86936C3.41727 2.79323 3.57864 2.75 3.75 2.75ZM20.25 2.75C20.4214 2.75 20.5827 2.79323 20.7238 2.86937C20.5795 2.79172 20.4169 2.75 20.25 2.75ZM21.25 3.75C21.25 3.58326 21.2084 3.42081 21.1308 3.27656C21.2068 3.41753 21.25 3.57878 21.25 3.75Z" stroke="white" stroke-width="1.5" />
</svg>
