<svg width="120" height="28" viewBox="0 0 120 28" fill="none" xmlns="http://www.w3.org/2000/svg">
<g clip-path="url(#clip0_3952_1750)">
<path d="M67.2374 0.867779H76.1274L76.2015 3.16321H69.4599V5.5378H76.1274L76.2015 7.83324H69.4599V10.2078H76.1274V12.5033H67.2374V0.867779Z" fill="white"/>
<path d="M95.6856 0.867779H104.576V3.16321H97.9081V5.5378H104.576V7.83324H97.9081V10.2078H104.576V12.5033H95.6856V0.867779Z" fill="white"/>
<path d="M55.2357 0.788626H59.014L59.2363 1.3427L59.8289 3.32152L61.3106 8.229L62.4219 11.9492L62.5701 12.5824H59.903L59.1622 10.1287L57.6064 5.06289L57.236 3.79644L57.0138 3.55898L56.4211 5.69611L54.7171 11.316L54.3467 12.5033L54.2726 12.5824H51.6797L51.902 11.7117L53.0873 7.75409L54.7171 2.45084L55.2357 0.788626Z" fill="white"/>
<path d="M23.0833 0.709473H32.7883V3.24237H25.4539V12.5033H23.0833V0.709473Z" fill="white"/>
<path fill-rule="evenodd" clip-rule="evenodd" d="M88.2772 0.867779H81.0911V12.5033H83.3136V9.02053H87.9809L88.8699 8.86223L89.5367 8.54562L90.3516 7.99155L90.9443 7.27917L91.3888 6.40849L91.611 5.45865V4.50881L91.5369 3.95474L91.1665 3.00491L90.722 2.29253L89.9812 1.58016L89.1662 1.10524L88.2772 0.867779ZM87.6105 3.16321H83.3877L83.3136 3.24237V6.64595L83.3877 6.7251H86.1288L88.2031 6.64595L88.7217 6.32933L89.1662 5.77526L89.3885 5.06289L89.3144 4.42966L89.0181 3.79644L88.4254 3.32152L87.6105 3.16321Z" fill="white"/>
<path fill-rule="evenodd" clip-rule="evenodd" d="M119.467 0.867779H112.28L111.836 0.946932L111.243 1.18439L110.502 1.65931L109.836 2.37168L109.317 3.24237L109.021 4.27136V5.61696L109.317 6.64595L109.836 7.51663L110.428 8.14985L110.799 8.30816L110.651 8.94138L109.91 11.87L109.836 12.5033H111.984L112.058 12.345L112.577 10.287L112.873 9.02053H117.244V12.5033H119.467V0.867779ZM117.17 3.16321H112.799L112.355 3.24237L112.058 3.40067L111.614 3.79644L111.243 4.58797V5.22119L111.391 5.69611L111.836 6.32933L112.429 6.64595L117.17 6.7251L117.244 6.64595V3.24237L117.17 3.16321Z" fill="white"/>
<path fill-rule="evenodd" clip-rule="evenodd" d="M10.6371 0.867779H3.52507L3.08056 0.946932L2.33972 1.26354L1.5248 1.81761L0.858041 2.60914L0.413536 3.47983L0.191284 4.42966V5.45865L0.339452 6.17103L0.635789 6.8834L1.22846 7.75409L1.9693 8.38731L1.89522 8.78308L1.30254 11.0785L1.00621 12.5033H3.15465L3.30281 12.1867L3.89549 9.81206L4.04365 9.02053H8.4887L8.41461 12.5033H10.6371V0.867779ZM8.41461 3.16321H4.11774L3.3769 3.32152L2.85831 3.71729L2.48789 4.42966V5.3795L2.63606 5.77526L3.08056 6.32933L3.67323 6.64595L8.41461 6.7251L8.4887 6.64595V3.24237L8.41461 3.16321Z" fill="white"/>
<path d="M98.0563 21.2101H99.3158L99.8343 22.3182L100.575 24.3762L100.723 24.1388L101.835 21.3684L101.983 21.2101H103.168L103.242 21.2892V25.0886L103.168 25.8801H102.279V22.6348L102.131 22.5557L102.057 23.0306L101.242 25.326L100.946 25.8801L100.427 25.9593L100.131 25.6427L99.6862 24.3762L99.1676 22.7931L99.0935 22.714L99.0194 23.0306L98.9453 25.8801H98.0563V21.2101Z" fill="white"/>
<path d="M50.7166 19.4687H55.3098V25.801L55.2357 25.8801H54.4208V20.2603L51.6797 20.3394L51.6056 25.801L51.5315 25.8801H50.7166V19.4687Z" fill="white"/>
<path d="M21.083 21.2101H21.972L22.0461 21.2892V25.0886L24.0463 25.1677V21.2101H24.9354V25.1677L25.6021 25.2469V27.1466L25.4539 27.2257H24.7131L24.639 25.9593L21.1571 25.8801L21.083 25.801V21.2101Z" fill="white"/>
<path d="M32.0474 21.2101H32.9364V23.0306H35.159V21.2101H35.9739L36.048 21.2892V24.4554L35.9739 25.8801H35.159V23.8221H32.9364V25.8801H32.0474V21.2101Z" fill="white"/>
<path d="M84.7212 21.2101H85.5361L85.8325 21.8433L86.7215 24.6137L86.8696 24.772L87.4623 22.714L87.9068 21.3684L88.055 21.2101H88.7958L88.7217 21.685L87.3882 25.5635L86.9437 26.7508L86.4992 27.4632L85.9806 27.8589L85.7584 27.9381H85.1657L84.9434 27.8589L84.8694 27.4632L84.9434 27.3049L85.7584 27.0674L86.1288 26.5925L86.2029 26.355V25.801L85.462 23.5847L84.7212 21.5267V21.2101Z" fill="white"/>
<path d="M68.2004 21.2101H71.1638L71.2379 21.2892V23.3472L71.1638 25.801L71.0897 25.8801H70.423L70.3489 25.801V22.0016L68.9413 21.9225V23.0306L68.7931 25.0886L68.5709 25.5635L68.1264 25.8801L67.9041 25.9593H67.3114L67.2374 25.8801V25.2469L67.9041 25.0094L67.9782 24.772L68.0523 23.6638L68.1264 21.2892L68.2004 21.2101Z" fill="white"/>
<path d="M80.7947 19.4687H84.1285L84.0544 20.1811L83.9803 20.2603H81.7578V24.772L81.6837 25.801L81.6097 25.8801H80.8688L80.7947 25.801V19.4687Z" fill="white"/>
<path fill-rule="evenodd" clip-rule="evenodd" d="M107.539 21.1309H106.428L105.983 21.2892L105.317 21.7642L104.872 22.5557L104.65 23.3472L104.724 24.2179L105.168 25.1677L105.687 25.6427L106.428 25.9593H107.391L107.687 25.8801L108.428 25.4844L108.947 24.8511L109.243 24.1388V22.9515L108.799 22.0016L108.206 21.4476L107.539 21.1309ZM107.317 21.8433H106.576L106.428 21.9225L105.909 22.3974L105.613 23.0306V24.1388L106.057 24.9303L106.65 25.2469H107.243L107.761 25.0094L108.132 24.5345L108.354 23.9804V23.1098L108.206 22.6348L107.761 22.0808L107.317 21.8433Z" fill="white"/>
<path fill-rule="evenodd" clip-rule="evenodd" d="M10.2667 21.1309H9.30362L8.9332 21.2892L8.26645 21.5267L8.19236 21.2101H7.52561L7.45152 27.7798L7.52561 27.8589H8.11828L8.34053 27.7006V25.4844L8.63687 25.6427L9.37771 25.9593H10.1926L10.4149 25.8801L10.9335 25.5635L11.4521 24.9303L11.7484 24.0596V23.0306L11.6743 22.6348L11.4521 22.0808L11.0076 21.5267L10.2667 21.1309ZM9.97038 21.8433H9.30362L9.08137 21.9225L8.56278 22.3974L8.34053 23.0306V24.0596L8.41461 24.4554L8.85912 25.0094L9.30362 25.2469H9.97038L10.1185 25.1677L10.5631 24.772L10.8594 23.9804V22.9515L10.7853 22.714L10.489 22.1599L9.97038 21.8433Z" fill="white"/>
<path fill-rule="evenodd" clip-rule="evenodd" d="M45.1603 21.1309H44.1972L43.6786 21.3684L43.2341 21.5267L43.0119 21.2101H42.3451V27.8589H43.16L43.2341 27.7006V25.4844L43.5305 25.6427L44.1972 25.9593H45.0862L45.753 25.6427L46.2716 25.0094L46.5679 24.2971V22.714L46.3456 22.1599L45.9011 21.5267L45.1603 21.1309ZM44.864 21.8433H44.1231L43.975 21.9225L43.5305 22.3182L43.2341 22.9515V24.2179L43.3082 24.4554L43.7527 25.0094L44.1972 25.2469H44.7899L45.1603 25.0886L45.5307 24.6137L45.753 23.743V23.1889L45.6048 22.5557L45.3085 22.1599L44.864 21.8433Z" fill="white"/>
<path fill-rule="evenodd" clip-rule="evenodd" d="M43.8268 0.788626H39.9744L39.6781 1.81761L36.6406 11.87L36.4925 12.5824H39.0854L39.1595 12.5033L39.7522 10.3661H44.049L44.1231 10.5244L44.6417 12.5824H47.3087V12.345L46.4938 9.5746L45.3085 5.61696L44.049 1.501L43.8268 0.788626ZM42.0488 3.63813L41.7524 3.55898L41.5302 4.35051L40.6412 7.35832L40.5671 7.91239H43.3082V7.75409L42.6414 5.61696L42.0488 3.63813Z" fill="white"/>
<path d="M12.7115 21.2101H16.6379V21.685L16.4157 21.9225L15.0822 22.0016V24.772L15.0081 25.801L14.934 25.8801H14.1932L14.1191 25.801V22.0016L12.7115 21.9225L12.6374 21.8433V21.2892L12.7115 21.2101Z" fill="white"/>
<path d="M37.2333 21.2101H41.1598L41.2338 21.5267L41.1598 21.8433L41.0116 21.9225H39.604V25.8801H38.715V22.0016L37.4556 21.9225L37.1592 21.8433V21.3684L37.2333 21.2101Z" fill="white"/>
<path fill-rule="evenodd" clip-rule="evenodd" d="M93.6113 21.2101H90.5738L90.4997 21.4475L90.4257 22.714L90.2775 24.2179L90.1293 24.6928L90.0552 25.0886L89.4626 25.1677L89.3885 25.5635V27.2257H90.1293L90.2775 27.1466V26.1967L90.3516 25.9593L93.3149 25.8801V26.9091L93.389 27.2257H94.1299L94.2039 27.1466V25.2469L93.6113 25.0886V21.2101ZM92.7223 21.9225H91.3147L91.1665 23.5055L91.0183 24.2971L90.722 25.0094L90.7961 25.1677H92.6482L92.7223 25.0886V21.9225Z" fill="white"/>
<path d="M95.3893 21.2101H96.2783V25.8801H95.3893V21.2101Z" fill="white"/>
<path fill-rule="evenodd" clip-rule="evenodd" d="M3.67323 19.4687L3.15465 19.3896L2.71014 19.5479L2.19155 20.7352L1.08029 23.5055L0.265368 25.4844L0.191284 25.8801H0.932125L1.15438 25.6427L1.74705 24.3762H4.63633L4.71041 24.4554L5.00675 25.2469L5.30308 25.8801H6.04392L6.19209 25.801L6.11801 25.4052L5.37717 23.5847L4.19182 20.5769L3.67323 19.4687ZM3.30281 20.5769L3.15465 20.4977L3.08056 20.5769L2.11747 22.9515L2.04339 23.5055H4.26591L4.33999 23.1889L3.8214 21.9225L3.30281 20.5769Z" fill="white"/>
<path fill-rule="evenodd" clip-rule="evenodd" d="M75.3125 21.1309H74.1272L73.6086 21.2892L73.3122 21.5267L73.1641 21.9225L73.2382 22.2391H73.3863L74.2013 21.9225H75.0162L75.2384 22.0016L75.6088 22.3974L75.6829 22.8723L75.3866 22.9515L74.1272 23.0306L73.4604 23.2681L72.9418 23.743L72.7196 24.4554L72.7937 25.1677L73.3122 25.7218L73.8308 25.9593H74.6458L75.3866 25.6427L75.757 25.5635L75.9052 25.9593H76.2756L76.4979 25.801V22.3182L76.4238 22.0016L76.0534 21.5267L75.3125 21.1309ZM75.6088 23.6638H74.4235L73.979 23.8221L73.6086 24.2971V24.772L73.7567 25.0094L74.1272 25.2469H74.7939L75.3866 24.9303L75.6829 24.3762V23.743L75.6088 23.6638Z" fill="white"/>
<path fill-rule="evenodd" clip-rule="evenodd" d="M59.5326 21.1309H58.3473L57.6064 21.3684L57.4583 21.6059V22.1599L57.5323 22.2391L58.4213 21.9225H59.1622L59.4585 22.0016L59.7549 22.2391L59.903 22.9515L58.3473 23.0306L57.6805 23.2681L57.1619 23.743L56.9397 24.2179V25.0094L57.3842 25.6427L57.9768 25.9593H58.9399L59.1622 25.8801L59.9771 25.4844L60.0512 25.8801H60.718V22.3182L60.5698 21.9225L60.2734 21.5267L59.5326 21.1309ZM59.7549 23.6638H58.6436L58.3473 23.743L57.9768 23.9804L57.8287 24.2971V24.8511L57.9768 25.0094L58.3473 25.2469H59.014L59.2363 25.1677L59.6808 24.772L59.903 24.3762V23.8221L59.7549 23.6638Z" fill="white"/>
<path fill-rule="evenodd" clip-rule="evenodd" d="M118.355 21.1309H117.096L116.429 21.3684L116.207 21.7642L116.281 22.2391L116.577 22.1599L117.17 21.9225H117.985L118.207 22.0016L118.504 22.2391L118.652 22.9515L117.096 23.0306L116.8 23.1098L116.207 23.4264L115.911 23.8221L115.688 24.5345L115.836 25.1677L116.207 25.6427L116.8 25.9593H117.689L118.281 25.7218L118.726 25.5635L119.022 25.9593H119.393L119.541 25.7218V22.4765L119.393 22.0016L118.948 21.4476L118.355 21.1309ZM118.652 23.8221L118.504 23.6638H117.466L117.17 23.743L116.8 23.9804L116.577 24.3762L116.651 24.8511L117.096 25.2469H117.763L117.985 25.1677L118.355 24.9303L118.652 24.4554V23.8221Z" fill="white"/>
<path fill-rule="evenodd" clip-rule="evenodd" d="M29.0841 21.1309H28.121L27.6024 21.2892L27.306 21.5267L26.7875 22.1599L26.4911 22.9515V24.1388L26.5652 24.4554L26.8615 25.0886L27.3801 25.6427L28.1951 25.9593H29.4545L29.899 25.801L30.2694 25.4844V24.9303H29.9731L29.1581 25.1677H28.4914L27.9728 24.9303L27.6024 24.5345L27.3801 23.743H30.4176L30.5657 23.6638V23.0306L30.4917 22.6348L30.2694 22.0808L29.8249 21.5267L29.0841 21.1309ZM28.8618 21.8433H28.1951L28.0469 21.9225L27.6765 22.2391L27.3801 22.714L27.4542 23.0306L28.0469 23.1098H29.5286L29.6767 23.0306V22.5557L29.3804 22.1599L28.8618 21.8433Z" fill="white"/>
<path fill-rule="evenodd" clip-rule="evenodd" d="M62.5701 21.2101H65.0148L65.6075 21.5267L65.9779 22.0016L66.052 22.5557L65.7557 23.1098L65.4593 23.5055L66.052 23.9804L66.2002 24.2971V24.8511L65.9038 25.4052L65.3852 25.801L65.0148 25.8801H62.5701L62.496 25.801V21.2892L62.5701 21.2101ZM63.6072 23.743L64.7185 23.8221L65.163 24.0596L65.2371 24.2179V24.8511L65.0148 25.0886L64.7185 25.1677H63.4591L63.385 25.0886V23.8221L63.6072 23.743ZM64.7185 21.9225H63.4591L63.385 22.0016V23.0306L63.4591 23.1098H64.4222L64.9407 23.0306L65.163 22.7931V22.3182L65.0889 22.1599L64.7185 21.9225Z" fill="white"/>
<path fill-rule="evenodd" clip-rule="evenodd" d="M110.799 21.2101H113.169L113.762 21.4475L114.207 22.0016L114.281 22.5557L113.984 23.1098L113.762 23.3472L113.688 23.5847L114.058 23.743L114.355 24.1388L114.429 24.2971V24.8511L114.133 25.4052L113.54 25.801L113.169 25.8801H110.799L110.725 25.801V22.5557L110.799 21.2101ZM111.688 23.743H112.355L113.169 23.9013L113.54 24.2971L113.466 24.8511L113.244 25.0886L112.873 25.1677H111.614L111.54 24.6928L111.614 23.8221L111.688 23.743ZM112.947 21.9225H111.614V23.1098H112.577L113.169 23.0306L113.318 22.8723V22.1599L112.947 21.9225Z" fill="white"/>
<path d="M17.527 23.0306H18.9345L19.6754 23.1098V23.743H17.4529V23.1098L17.527 23.0306Z" fill="white"/>
<path d="M95.3152 19.1521H96.2783L96.3524 19.2313V19.7853L96.2783 20.1019H95.3152V19.1521Z" fill="white"/>
</g>
<defs>
<clipPath id="clip0_3952_1750">
<rect width="120" height="28" fill="white"/>
</clipPath>
</defs>
</svg>
