<svg width="63" height="33" viewBox="0 0 63 33" fill="none" xmlns="http://www.w3.org/2000/svg">
<path d="M36 16.5C41.308 11.2406 46.2436 6.41015 51.4958 1.57569C54.2336 -0.94206 58.6476 -0.288635 61.1433 2.44388C63.6111 5.14441 63.6437 9.29803 61.0921 12.0168C59.686 13.5156 58.0068 14.6311 56 16.5C57.6716 17.9531 59.2343 19.3279 60.566 20.6256C63.6391 23.6369 63.7229 28.1012 60.8407 30.9251C57.9259 33.781 53.4886 33.685 50.341 30.6601C45.5592 26.0724 40.8005 21.1334 36 16.5Z" fill="white"/>
<path d="M16.5 11.3789C15.3203 14.6562 12.1836 17 8.5 17C3.80566 17 0 13.1943 0 8.5C0 3.80566 3.80566 9.78525e-09 8.5 9.78525e-09C12.1836 9.78525e-09 15.3203 2.34375 16.5 5.62109C17.6797 2.34375 20.8164 9.78525e-09 24.5 9.78525e-09C29.1943 9.78525e-09 33 3.80566 33 8.5C33 13.1943 29.1943 17 24.5 17C20.8164 17 17.6797 14.6562 16.5 11.3789Z" fill="white"/>
<path d="M16.5 29.9074C16.2963 29.0862 16.0312 28.2796 15.706 27.4944C14.8516 25.4318 13.5994 23.5578 12.0208 21.9792C10.4422 20.4006 8.56815 19.1484 6.50562 18.294C4.44308 17.4397 2.23247 17 0 17V33H33V17.0001C30.7675 17.0001 28.5569 17.4398 26.4944 18.2941C24.4318 19.1485 22.5578 20.4007 20.9792 21.9793C19.4006 23.5579 18.1484 25.4319 17.294 27.4945C16.9688 28.2796 16.7037 29.0863 16.5 29.9074Z" fill="white"/>
</svg>
