<svg width="163" height="42" viewBox="0 0 163 42" fill="none" xmlns="http://www.w3.org/2000/svg">
<path d="M41.887 10.8339C41.887 16.816 37.0044 21.6678 30.9845 21.6678C26.4695 21.6678 22.5979 18.9451 20.9435 15.0579C19.2834 18.9394 15.4118 21.6678 10.9026 21.6678C4.8826 21.6678 0 16.816 0 10.8339C0 4.85187 4.8826 0 10.9026 0C15.4176 0 19.2892 2.72276 20.9435 6.60996C22.6036 2.72847 26.4752 0 30.9845 0C37.0044 0 41.887 4.84616 41.887 10.8339ZM41.4332 21.9875C40.0316 21.8619 38.5382 21.8962 37.2285 22.0902C37.2227 22.0902 37.217 22.0902 37.217 22.0902C34.9537 22.427 32.8399 23.2318 30.8868 24.5047C25.8032 27.4672 22.0981 32.5018 20.9378 38.4382C20.932 38.4496 20.932 38.4553 20.932 38.461C19.1513 29.2881 11.2874 22.2672 1.67731 21.7078C1.26372 21.6793 0.844399 21.6678 0.425069 21.6678V42H41.4332C41.4332 35.607 41.4792 22.4613 41.4332 21.9875Z" fill="#151515"/>
<path d="M45.4844 21.418C52.0722 14.7242 58.1977 8.15837 64.7161 2.00543C68.114 -1.19899 73.5923 -0.367353 76.6897 3.1104C79.7525 6.54743 79.7929 11.8339 76.6262 15.2942C74.881 17.2017 72.9104 18.894 70.4198 21.2726C72.4943 23.122 74.3204 24.5992 75.9732 26.2508C79.7871 30.0833 79.8912 35.7652 76.3141 39.3592C72.6966 42.994 67.1895 42.8719 63.283 39.0219C57.3482 33.183 51.4423 27.3151 45.4844 21.418Z" fill="#151515"/>
<path d="M84.8833 20.0477H85.822V16.5447L85.7876 16.4989H84.8833V15.4114H87.4017L89.199 19.4868L90.9734 15.4114H93.4805V16.4989H92.5532V20.0477H93.4805V21.1353H90.6529V20.0477H91.5V16.7851H91.4657L89.5997 21.1353H88.7755L86.898 16.7851H86.8751V20.0477H87.7223V21.1353H84.8833V20.0477ZM95.4611 16.4989H94.6254V15.4114H97.2355V16.4989H96.5486V19.3838L99.3762 15.4114H101.38V16.4989H100.441V20.0477H101.38V21.1353H98.4375V20.2194H99.3762V17.0141L96.4456 21.1925H95.4611V16.4989ZM107.228 20.5972C107.075 20.7575 106.873 20.8987 106.621 21.0208C106.461 21.0971 106.289 21.1543 106.106 21.1925C105.923 21.2307 105.728 21.2497 105.522 21.2497C104.996 21.2497 104.515 21.12 104.08 20.8605C103.652 20.601 103.313 20.2462 103.061 19.7959C102.817 19.338 102.695 18.8305 102.695 18.2733C102.695 17.7162 102.817 17.2125 103.061 16.7622C103.313 16.3043 103.652 15.9456 104.08 15.6862C104.515 15.4267 104.996 15.2969 105.522 15.2969C105.889 15.2969 106.224 15.3618 106.53 15.4915C106.759 15.5908 106.961 15.7205 107.136 15.8808V15.068H108.155V17.6208H107.068V17.3232C107.045 17.1476 106.961 16.9874 106.816 16.8424C106.678 16.6974 106.503 16.5829 106.289 16.4989C106.083 16.4074 105.862 16.3616 105.625 16.3616C105.297 16.3616 104.996 16.4455 104.721 16.6134C104.454 16.7813 104.24 17.0103 104.08 17.3003C103.927 17.5903 103.851 17.9146 103.851 18.2733C103.851 18.632 103.927 18.9564 104.08 19.2464C104.24 19.5364 104.454 19.7653 104.721 19.9332C104.996 20.0935 105.297 20.1736 105.625 20.1736C105.885 20.1736 106.125 20.1279 106.347 20.0363C106.575 19.9447 106.762 19.8188 106.907 19.6585C107.052 19.4982 107.136 19.3189 107.159 19.1205V18.7885H108.235V21.2612H107.228V20.5972ZM111.053 20.0477H112.312V16.4989H110.927C110.92 16.4989 110.916 16.5028 110.916 16.5104C110.916 16.5104 110.912 16.5104 110.904 16.5104C110.904 16.5104 110.904 16.5142 110.904 16.5218V17.7467H109.817V14.9192H110.859V15.4114H114.831V14.9192H115.884V17.7467H114.797V16.5218C114.797 16.5142 114.793 16.5104 114.785 16.5104C114.785 16.5028 114.781 16.4989 114.774 16.4989H113.4V20.0477H114.659V21.1353H111.053V20.0477ZM121.795 20.6888C121.65 20.8185 121.447 20.9406 121.188 21.0551C121.028 21.1162 120.852 21.162 120.661 21.1925C120.471 21.2307 120.272 21.2497 120.066 21.2497C119.524 21.2497 119.036 21.1314 118.601 20.8949C118.173 20.6506 117.834 20.3072 117.582 19.8646C117.33 19.4219 117.204 18.9068 117.204 18.3191C117.204 17.7315 117.334 17.2087 117.593 16.7508C117.853 16.2929 118.208 15.938 118.658 15.6862C119.108 15.4267 119.612 15.2969 120.169 15.2969C120.734 15.2969 121.238 15.4229 121.68 15.6747C122.123 15.9266 122.466 16.2776 122.711 16.7279C122.962 17.1782 123.088 17.6933 123.088 18.2733C123.088 18.3573 123.084 18.4412 123.077 18.5252C123.077 18.6091 123.073 18.6931 123.065 18.777H118.338C118.399 19.067 118.513 19.3265 118.681 19.5555C118.856 19.7768 119.074 19.9485 119.333 20.0706C119.593 20.1927 119.883 20.2538 120.203 20.2538C120.44 20.2538 120.669 20.2118 120.89 20.1279C121.119 20.0363 121.302 19.9256 121.44 19.7959C121.577 19.6661 121.646 19.544 121.646 19.4295V19.2693H122.814V21.2612H121.795V20.6888ZM121.921 17.7925C121.867 17.4949 121.757 17.2354 121.589 17.0141C121.428 16.7851 121.222 16.6096 120.97 16.4875C120.719 16.3654 120.44 16.3043 120.135 16.3043C119.837 16.3043 119.562 16.3692 119.311 16.4989C119.059 16.621 118.849 16.7966 118.681 17.0255C118.513 17.2545 118.402 17.5102 118.349 17.7925H121.921ZM130.354 21.1581C130.354 21.1505 130.351 21.1467 130.343 21.1467C130.343 21.1467 130.343 21.1429 130.343 21.1353C130.343 21.1353 130.339 21.1353 130.332 21.1353H124.528V20.0477H125.478V16.4989H124.528V15.4114H126.565V20.0477H129.37V16.4989H128.191V15.4114H131.396V16.4989H130.457V20.0477H131.442V22.509H130.354V21.1581ZM132.515 20.0477H133.465V16.4989H132.515V15.4114H135.72V16.4989H134.552V17.5865H135.731C136.434 17.5865 136.983 17.7467 137.38 18.0673C137.784 18.3802 137.987 18.8114 137.987 19.3609C137.987 19.9104 137.781 20.3454 137.368 20.6659C136.964 20.9788 136.418 21.1353 135.731 21.1353H132.515V20.0477ZM135.777 20.105C136.098 20.105 136.35 20.0325 136.533 19.8875C136.724 19.7425 136.819 19.544 136.819 19.2922C136.819 19.048 136.724 18.8533 136.533 18.7083C136.35 18.5557 136.098 18.4794 135.777 18.4794H134.552V20.105H135.777ZM139.182 20.0477H140.133V14.2094H139.182V13.1219H141.22V17.7582H142.193L143.281 16.4989H142.571V15.4114H145.376V16.4989H144.551L143.098 18.1932L144.7 20.0477H145.708V21.1353H142.537V20.0477H143.281L142.147 18.7885H141.22V20.0477H141.964V21.1353H139.182V20.0477ZM147.569 16.4989H146.733V15.4114H149.343V16.4989H148.657V19.3838L151.484 15.4114H153.488V16.4989H152.549V20.0477H153.488V21.1353H150.545V20.2194H151.484V17.0141L148.554 21.1925H147.569V16.4989ZM155.467 16.4989H154.631V15.4114H157.241V16.4989H156.554V19.3838L159.382 15.4114H161.385V16.4989H160.446V20.0477H161.385V21.1353H158.443V20.2194H159.382V17.0141L156.451 21.1925H155.467V16.4989ZM158.031 14.6902C157.604 14.6902 157.226 14.6063 156.898 14.4384C156.569 14.2705 156.314 14.0377 156.131 13.74C155.947 13.4348 155.856 13.0875 155.856 12.6983V12.6067H156.898V12.6869C156.898 12.9998 157.001 13.2516 157.207 13.4424C157.42 13.6332 157.695 13.7286 158.031 13.7286C158.367 13.7286 158.641 13.6332 158.855 13.4424C159.069 13.244 159.176 12.9921 159.176 12.6869V12.6067H160.206V12.6983C160.206 13.0875 160.114 13.4348 159.931 13.74C159.748 14.0377 159.492 14.2705 159.164 14.4384C158.836 14.6063 158.458 14.6902 158.031 14.6902ZM84.8833 32.0477H85.8334V26.2094H84.8833V25.1219H86.9209V29.7582H87.894L88.9815 28.4989H88.2718V27.4114H91.0765V28.4989H90.2522L88.7984 30.1932L90.401 32.0477H91.4084V33.1353H88.2374V32.0477H88.9815L87.8482 30.7885H86.9209V32.0477H87.665V33.1353H84.8833V32.0477ZM95.6968 33.2497C95.1092 33.2497 94.5788 33.1238 94.1056 32.872C93.6401 32.6125 93.2738 32.2576 93.0066 31.8073C92.7395 31.3494 92.606 30.8381 92.606 30.2733C92.606 29.7086 92.7395 29.2011 93.0066 28.7508C93.2738 28.2929 93.6401 27.938 94.1056 27.6862C94.5788 27.4267 95.1092 27.2969 95.6968 27.2969C96.2845 27.2969 96.8111 27.4267 97.2766 27.6862C97.7498 27.938 98.1199 28.2929 98.3871 28.7508C98.6542 29.2011 98.7877 29.7086 98.7877 30.2733C98.7877 30.8381 98.6542 31.3494 98.3871 31.8073C98.1199 32.2576 97.7498 32.6125 97.2766 32.872C96.8111 33.1238 96.2845 33.2497 95.6968 33.2497ZM95.6968 32.1622C96.0632 32.1622 96.3913 32.0821 96.6813 31.9218C96.979 31.7539 97.2079 31.5288 97.3682 31.2464C97.5361 30.9564 97.6201 30.632 97.6201 30.2733C97.6201 29.9146 97.5361 29.5941 97.3682 29.3117C97.2079 29.0217 96.979 28.7966 96.6813 28.6363C96.3913 28.4684 96.0632 28.3845 95.6968 28.3845C95.3305 28.3845 94.9985 28.4684 94.7009 28.6363C94.4109 28.7966 94.1819 29.0217 94.014 29.3117C93.8538 29.5941 93.7736 29.9146 93.7736 30.2733C93.7736 30.632 93.8538 30.9564 94.014 31.2464C94.1819 31.5288 94.4109 31.7539 94.7009 31.9218C94.9985 32.0821 95.3305 32.1622 95.6968 32.1622ZM100.108 32.0477H101.047V28.5447L101.013 28.4989H100.108V27.4114H102.627L104.424 31.4868L106.198 27.4114H108.705V28.4989H107.778V32.0477H108.705V33.1353H105.878V32.0477H106.725V28.7851H106.691L104.825 33.1353H104L102.123 28.7851H102.1V32.0477H102.947V33.1353H100.108V32.0477ZM113.193 33.2497C112.605 33.2497 112.075 33.12 111.602 32.8605C111.136 32.5934 110.77 32.2156 110.503 31.7272C110.236 31.2388 110.102 30.674 110.102 30.0329V29.243C110.102 28.457 110.232 27.8044 110.491 27.2855C110.751 26.7665 111.121 26.3773 111.602 26.1178C112.083 25.8507 112.663 25.6943 113.342 25.6485L113.846 25.6141C114.029 25.5912 114.166 25.5683 114.258 25.5454C114.357 25.5149 114.426 25.4767 114.464 25.431C114.51 25.3775 114.532 25.3127 114.532 25.2363V24.7784H115.609V26.9764H114.532V26.507C114.487 26.5528 114.407 26.5872 114.292 26.6101C114.185 26.633 114.014 26.6559 113.777 26.6788L113.445 26.7131C112.926 26.7513 112.499 26.8505 112.163 27.0107C111.827 27.1634 111.575 27.3771 111.407 27.6518C111.247 27.9266 111.167 28.27 111.167 28.6821V29.0828C111.358 28.7012 111.655 28.3921 112.06 28.1555C112.472 27.9189 112.915 27.8006 113.388 27.8006C113.884 27.8006 114.342 27.9113 114.761 28.1326C115.181 28.3539 115.517 28.6707 115.769 29.0828C116.021 29.4873 116.147 29.9566 116.147 30.4908C116.147 31.0098 116.017 31.4792 115.757 31.8989C115.498 32.3187 115.143 32.6506 114.693 32.8949C114.25 33.1314 113.75 33.2497 113.193 33.2497ZM113.147 32.1736C113.483 32.1736 113.792 32.1011 114.075 31.9561C114.357 31.8035 114.578 31.6013 114.739 31.3494C114.899 31.0899 114.979 30.8037 114.979 30.4908C114.979 30.1779 114.899 29.8956 114.739 29.6437C114.578 29.3842 114.357 29.182 114.075 29.037C113.792 28.8843 113.483 28.808 113.147 28.808C112.804 28.808 112.491 28.8843 112.209 29.037C111.934 29.182 111.716 29.3842 111.556 29.6437C111.396 29.8956 111.316 30.1779 111.316 30.4908C111.316 30.8037 111.396 31.0899 111.556 31.3494C111.716 31.6013 111.934 31.8035 112.209 31.9561C112.491 32.1011 112.804 32.1736 113.147 32.1736ZM117.379 32.0477H118.444V28.4989H117.379V27.4114H119.531V32.0477H120.584V33.1353H117.379V32.0477ZM117.791 24.6067H119.714L118.81 26.6673H118.684L117.791 24.6067ZM121.677 32.0477H122.627V28.4989H121.677V27.4114H123.715V29.7582H126.519V28.4989H125.34V27.4114H128.545V28.4989H127.607V32.0477H128.545V33.1353H125.569V32.0477H126.519V30.7885H123.715V32.0477H124.653V33.1353H121.677V32.0477ZM131.678 33.2612C131.121 33.2612 130.675 33.1085 130.339 32.8033C130.011 32.498 129.846 32.0973 129.846 31.6013C129.846 30.9907 130.106 30.5404 130.625 30.2504C131.151 29.9528 131.842 29.7887 132.697 29.7582C132.972 29.7506 133.208 29.7238 133.407 29.6781C133.605 29.6246 133.754 29.5598 133.853 29.4834C133.96 29.3995 134.013 29.3079 134.013 29.2087C134.013 28.9111 133.891 28.6745 133.647 28.4989C133.411 28.3234 133.113 28.2356 132.754 28.2356C132.525 28.2356 132.3 28.27 132.079 28.3387C131.865 28.3997 131.686 28.4989 131.541 28.6363C131.403 28.7737 131.335 28.9492 131.335 29.1629V29.4605H130.293V27.1596H131.312V27.835C131.419 27.7358 131.545 27.6518 131.69 27.5831C131.865 27.4915 132.056 27.4229 132.262 27.3771C132.476 27.3236 132.697 27.2969 132.926 27.2969C133.62 27.2969 134.17 27.4992 134.574 27.9037C134.979 28.3081 135.181 28.8576 135.181 29.5521V32.0477H135.994V33.1353H134.105V32.1279C133.884 32.4713 133.552 32.746 133.109 32.9521C132.674 33.1581 132.197 33.2612 131.678 33.2612ZM132.044 32.2767C132.411 32.2767 132.75 32.1965 133.063 32.0363C133.384 31.8684 133.636 31.6509 133.819 31.3838C134.002 31.1166 134.094 30.8305 134.094 30.5252V30.2733C133.994 30.3573 133.846 30.4222 133.647 30.4679C133.449 30.5137 133.182 30.5519 132.846 30.5824C132.212 30.6282 131.747 30.7236 131.449 30.8686C131.151 31.0136 131.003 31.2311 131.003 31.5211C131.003 31.7653 131.094 31.9523 131.277 32.0821C131.461 32.2118 131.716 32.2767 132.044 32.2767ZM138.351 32.0477H139.61V28.4989H138.225C138.217 28.4989 138.213 28.5028 138.213 28.5104C138.213 28.5104 138.209 28.5104 138.202 28.5104C138.202 28.5104 138.202 28.5142 138.202 28.5218V29.7467H137.114V26.9192H138.156V27.4114H142.128V26.9192H143.182V29.7467H142.094V28.5218C142.094 28.5142 142.09 28.5104 142.083 28.5104C142.083 28.5028 142.079 28.4989 142.071 28.4989H140.697V32.0477H141.957V33.1353H138.351V32.0477Z" fill="#151515"/>
</svg>
