<svg width="128" height="33" viewBox="0 0 128 33" fill="none" xmlns="http://www.w3.org/2000/svg">
<path d="M36 16.5C41.308 11.2406 46.2436 6.41015 51.4958 1.57569C54.2336 -0.94206 58.6476 -0.288635 61.1433 2.44388C63.6111 5.14441 63.6437 9.29803 61.0921 12.0168C59.686 13.5156 58.0068 14.6311 56 16.5C57.6716 17.9531 59.2343 19.3279 60.566 20.6256C63.6391 23.6369 63.7229 28.1012 60.8407 30.9251C57.9259 33.781 53.4886 33.685 50.341 30.6601C45.5592 26.0724 40.8005 21.1334 36 16.5Z" fill="white"/>
<path d="M16.5 11.3789C15.3203 14.6562 12.1836 17 8.5 17C3.80566 17 0 13.1943 0 8.5C0 3.80566 3.80566 1.95705e-08 8.5 1.95705e-08C12.1836 1.95705e-08 15.3203 2.34375 16.5 5.62109C17.6797 2.34375 20.8164 1.95705e-08 24.5 1.95705e-08C29.1943 1.95705e-08 33 3.80566 33 8.5C33 13.1943 29.1943 17 24.5 17C20.8164 17 17.6797 14.6562 16.5 11.3789Z" fill="white"/>
<path d="M16.5 29.9074C16.2963 29.0862 16.0312 28.2796 15.706 27.4944C14.8516 25.4318 13.5994 23.5578 12.0208 21.9792C10.4422 20.4006 8.56815 19.1484 6.50562 18.294C4.44308 17.4397 2.23247 17 0 17V33H33V17.0001C30.7675 17.0001 28.5569 17.4398 26.4944 18.2941C24.4318 19.1485 22.5578 20.4007 20.9792 21.9793C19.4006 23.5579 18.1484 25.4319 17.294 27.4945C16.9688 28.2796 16.7037 29.0863 16.5 29.9074Z" fill="white"/>
<path d="M67 14.722H67.7968V11.5076L67.7693 11.4616H67V10.7892H68.7035L70.4437 14.4088L72.1014 10.7892H73.8691V11.4616H73.0723V14.722H73.8691V15.3943H71.6527V14.722H72.422V11.6273H72.4037L70.7001 15.3943H70.1781L68.4562 11.7471H68.4471V14.722H69.2256V15.3943H67V14.722Z" fill="white"/>
<path d="M75.4908 11.4616H74.7764V10.7892H76.8737V11.4616H76.1594V14.3167L78.7513 10.7892H80.1801V11.4616H79.3832V14.722H80.1801V15.3943H77.872V14.8233H78.7238V11.8115L76.0861 15.4496H75.4908V11.4616Z" fill="white"/>
<path d="M84.9782 14.8878C84.8561 15.0351 84.6882 15.1641 84.4745 15.2746C84.3401 15.3421 84.1936 15.3943 84.0348 15.4312C83.8761 15.468 83.7082 15.4864 83.5311 15.4864C83.1098 15.4864 82.7282 15.382 82.3863 15.1733C82.0443 14.9645 81.7757 14.679 81.5803 14.3167C81.3849 13.9483 81.2872 13.54 81.2872 13.0918C81.2872 12.6435 81.3849 12.2383 81.5803 11.876C81.7757 11.5076 82.0443 11.219 82.3863 11.0103C82.7282 10.8015 83.1098 10.6971 83.5311 10.6971C83.8364 10.6971 84.1203 10.7554 84.3829 10.8721C84.5783 10.9642 84.7462 11.0809 84.8866 11.2221V10.4576H85.5094V12.5023H84.85V12.1892C84.8378 12.0418 84.7675 11.9037 84.6393 11.7747C84.5172 11.6458 84.3615 11.5445 84.1722 11.4708C83.989 11.391 83.7937 11.351 83.5861 11.351C83.2869 11.351 83.0152 11.4278 82.7709 11.5813C82.5328 11.7348 82.3435 11.9436 82.2031 12.2076C82.0626 12.4716 81.9924 12.7663 81.9924 13.0918C81.9924 13.4172 82.0626 13.7119 82.2031 13.9759C82.3435 14.24 82.5328 14.4487 82.7709 14.6022C83.0152 14.7496 83.2869 14.8233 83.5861 14.8233C83.8181 14.8233 84.0348 14.7834 84.2363 14.7036C84.4378 14.6176 84.6027 14.504 84.7309 14.3628C84.8591 14.2154 84.9293 14.0558 84.9416 13.8838V13.5431H85.601V15.4956H84.9782V14.8878Z" fill="white"/>
<path d="M87.9197 14.722H88.9547V11.4616H87.6358C87.6297 11.4616 87.6267 11.4646 87.6267 11.4708C87.6267 11.4708 87.6236 11.4708 87.6175 11.4708C87.6175 11.4708 87.6175 11.4738 87.6175 11.48V12.576H86.9489V10.3748H87.59V10.7892H90.9696V10.3748H91.6107V12.576H90.9421V11.48C90.9421 11.4738 90.9391 11.4708 90.933 11.4708C90.933 11.4646 90.9299 11.4616 90.9238 11.4616H89.6141V14.722H90.6491V15.3943H87.9197V14.722Z" fill="white"/>
<path d="M96.517 14.943C96.3949 15.072 96.2239 15.1886 96.0041 15.293C95.8697 15.3544 95.7202 15.4005 95.5553 15.4312C95.3904 15.468 95.2195 15.4864 95.0424 15.4864C94.6089 15.4864 94.2181 15.3882 93.8701 15.1917C93.522 14.9952 93.2473 14.7189 93.0458 14.3628C92.8443 14.0066 92.7436 13.5922 92.7436 13.1194C92.7436 12.6527 92.8443 12.2352 93.0458 11.8668C93.2534 11.4984 93.5343 11.2129 93.8884 11.0103C94.2486 10.8015 94.6455 10.6971 95.079 10.6971C95.5248 10.6971 95.9217 10.7984 96.2697 11.0011C96.6238 11.2037 96.8986 11.4861 97.094 11.8484C97.2894 12.2107 97.3871 12.6251 97.3871 13.0918C97.3871 13.1409 97.384 13.1931 97.3779 13.2483C97.3779 13.3036 97.3779 13.3558 97.3779 13.4049H93.4305C93.4671 13.6874 93.5617 13.9422 93.7144 14.1694C93.867 14.3904 94.0624 14.5623 94.3005 14.6851C94.5448 14.8079 94.8165 14.8693 95.1157 14.8693C95.3355 14.8693 95.5461 14.8294 95.7476 14.7496C95.9552 14.6698 96.1201 14.5685 96.2422 14.4457C96.3704 14.3167 96.4345 14.1878 96.4345 14.0588V13.8931H97.1398V15.4956H96.517V14.943ZM96.6727 12.797C96.6421 12.5023 96.5536 12.2444 96.4071 12.0234C96.2605 11.7962 96.0712 11.6243 95.8392 11.5076C95.6072 11.3848 95.3477 11.3234 95.0607 11.3234C94.7799 11.3234 94.5204 11.3879 94.2822 11.5168C94.0502 11.6396 93.8579 11.8146 93.7052 12.0418C93.5587 12.269 93.4702 12.5207 93.4396 12.797H96.6727Z" fill="white"/>
<path d="M103.437 15.4127C103.437 15.4066 103.434 15.4035 103.428 15.4035C103.428 15.4035 103.428 15.4005 103.428 15.3943C103.428 15.3943 103.425 15.3943 103.419 15.3943H98.6014V14.722H99.4073V11.4616H98.6014V10.7892H100.076V14.722H102.631V11.4616H101.642V10.7892H104.097V11.4616H103.3V14.722H104.097V16.5548H103.437V15.4127Z" fill="white"/>
<path d="M104.991 14.722H105.797V11.4616H104.991V10.7892H107.391V11.4616H106.466V12.5944H107.464C108.014 12.5944 108.447 12.7203 108.765 12.972C109.082 13.2176 109.241 13.5584 109.241 13.9944C109.241 14.4242 109.079 14.765 108.756 15.0167C108.438 15.2684 108.008 15.3943 107.464 15.3943H104.991V14.722ZM107.492 14.7588C107.815 14.7588 108.069 14.6882 108.252 14.547C108.435 14.4058 108.527 14.2093 108.527 13.9575C108.527 13.7119 108.435 13.5185 108.252 13.3773C108.069 13.2299 107.815 13.1562 107.492 13.1562H106.466V14.7588H107.492Z" fill="white"/>
<path d="M110.237 14.722H111.043V9.61952H110.237V8.94717H111.711V12.7694H112.554L113.708 11.4616H113.039V10.7892H115.173V11.4616H114.495L113.103 13.0457L114.596 14.722H115.466V15.3943H112.993V14.722H113.726L112.517 13.4141H111.711V14.722H112.398V15.3943H110.237V14.722Z" fill="white"/>
<path d="M116.992 11.4616H116.278V10.7892H118.375V11.4616H117.661V14.3167L120.253 10.7892H121.682V11.4616H120.885V14.722H121.682V15.3943H119.373V14.8233H120.225V11.8115L117.588 15.4496H116.992V11.4616Z" fill="white"/>
<path d="M123.311 11.4616H122.596V10.7892H124.694V11.4616H123.979V14.3167L126.571 10.7892H128V11.4616H127.203V14.722H128V15.3943H125.692V14.8233H126.544V11.8115L123.906 15.4496H123.311V11.4616ZM125.307 10.1445C124.978 10.1445 124.685 10.08 124.428 9.95109C124.178 9.82214 123.982 9.64408 123.842 9.41689C123.701 9.18357 123.631 8.9134 123.631 8.6064V8.53271H124.263V8.59719C124.263 8.88577 124.358 9.1191 124.547 9.29716C124.736 9.46909 124.99 9.55505 125.307 9.55505C125.625 9.55505 125.878 9.46909 126.067 9.29716C126.263 9.1191 126.361 8.88577 126.361 8.59719V8.53271H126.983V8.6064C126.983 8.9134 126.913 9.18357 126.773 9.41689C126.632 9.64408 126.434 9.82214 126.177 9.95109C125.927 10.08 125.637 10.1445 125.307 10.1445Z" fill="white"/>
<path d="M67 23.7591H67.806V18.6566H67V17.9843H68.4746V21.8065H69.3172L70.4712 20.4986H69.8026V19.8263H71.9366V20.4986H71.2588L69.8667 22.0828L71.3596 23.7591H72.2297V24.4314H69.7568V23.7591H70.4895L69.2805 22.4512H68.4746V23.7591H69.1615V24.4314H67V23.7591Z" fill="white"/>
<path d="M75.6789 24.5235C75.2149 24.5235 74.7967 24.4191 74.4242 24.2104C74.0578 24.0016 73.7678 23.7161 73.5541 23.3538C73.3404 22.9854 73.2336 22.5771 73.2336 22.1289C73.2336 21.6806 73.3404 21.2754 73.5541 20.9131C73.7678 20.5447 74.0578 20.2561 74.4242 20.0473C74.7967 19.8386 75.2149 19.7342 75.6789 19.7342C76.1369 19.7342 76.5521 19.8386 76.9245 20.0473C77.297 20.2561 77.5901 20.5447 77.8038 20.9131C78.0175 21.2754 78.1243 21.6806 78.1243 22.1289C78.1243 22.5771 78.0175 22.9854 77.8038 23.3538C77.5901 23.7161 77.297 24.0016 76.9245 24.2104C76.5521 24.4191 76.1369 24.5235 75.6789 24.5235ZM75.6789 23.8512C76.0087 23.8512 76.3048 23.7775 76.5674 23.6301C76.836 23.4766 77.0436 23.2709 77.1901 23.013C77.3428 22.749 77.4191 22.4543 77.4191 22.1289C77.4191 21.8034 77.3428 21.5118 77.1901 21.2539C77.0436 20.9899 76.836 20.7842 76.5674 20.6368C76.3048 20.4833 76.0087 20.4065 75.6789 20.4065C75.3492 20.4065 75.05 20.4833 74.7814 20.6368C74.5188 20.7842 74.3112 20.9899 74.1586 21.2539C74.0121 21.5118 73.9388 21.8034 73.9388 22.1289C73.9388 22.4543 74.0121 22.749 74.1586 23.013C74.3112 23.2709 74.5188 23.4766 74.7814 23.6301C75.05 23.7775 75.3492 23.8512 75.6789 23.8512Z" fill="white"/>
<path d="M79.2345 23.7591H80.0313V20.5447L80.0038 20.4986H79.2345V19.8263H80.938L82.6782 23.4459L84.3359 19.8263H86.1036V20.4986H85.3068V23.7591H86.1036V24.4314H83.8872V23.7591H84.6565V20.6644H84.6382L82.9346 24.4314H82.4126L80.6907 20.7842H80.6816V23.7591H81.4601V24.4314H79.2345V23.7591Z" fill="white"/>
<path d="M89.6944 24.5235C89.2365 24.5235 88.8243 24.4222 88.458 24.2196C88.0916 24.0108 87.8016 23.7191 87.5879 23.3446C87.3803 22.9639 87.2765 22.531 87.2765 22.046V21.2263C87.2765 20.6307 87.3742 20.1333 87.5695 19.7342C87.771 19.3351 88.058 19.0312 88.4305 18.8224C88.8029 18.6136 89.2609 18.4877 89.8043 18.4448L90.2256 18.4079C90.4149 18.3834 90.5584 18.3588 90.6561 18.3342C90.7538 18.3035 90.824 18.2636 90.8667 18.2145C90.9095 18.1593 90.9308 18.0917 90.9308 18.0119V17.6527H91.5811V19.375H90.9308V18.8684C90.8942 18.9176 90.8179 18.9575 90.7019 18.9882C90.5858 19.0127 90.4149 19.0373 90.189 19.0619L89.8684 19.0987C89.4288 19.1417 89.0655 19.2368 88.7785 19.3842C88.4915 19.5254 88.2778 19.7219 88.1374 19.9737C87.997 20.2193 87.9268 20.5263 87.9268 20.8947V21.2631C88.0794 20.9254 88.3267 20.6521 88.6686 20.4434C89.0166 20.2346 89.3952 20.1302 89.8043 20.1302C90.2073 20.1302 90.5797 20.2223 90.9217 20.4065C91.2636 20.5846 91.5353 20.8394 91.7368 21.171C91.9383 21.5026 92.039 21.8802 92.039 22.3038C92.039 22.7214 91.9352 23.099 91.7276 23.4367C91.52 23.7744 91.2392 24.0415 90.885 24.238C90.5309 24.4283 90.134 24.5235 89.6944 24.5235ZM89.6669 23.8604C89.9722 23.8604 90.25 23.7928 90.5004 23.6577C90.7568 23.5165 90.9583 23.3292 91.1048 23.0959C91.2514 22.8626 91.3247 22.5986 91.3247 22.3038C91.3247 22.0153 91.2514 21.7543 91.1048 21.521C90.9583 21.2815 90.7568 21.0942 90.5004 20.9592C90.25 20.8179 89.9722 20.7473 89.6669 20.7473C89.3555 20.7473 89.0746 20.8179 88.8243 20.9592C88.574 21.0942 88.3755 21.2815 88.229 21.521C88.0825 21.7543 88.0092 22.0153 88.0092 22.3038C88.0092 22.5986 88.0825 22.8626 88.229 23.0959C88.3755 23.3292 88.574 23.5165 88.8243 23.6577C89.0746 23.7928 89.3555 23.8604 89.6669 23.8604Z" fill="white"/>
<path d="M93.0431 23.7591H93.9682V20.4986H93.0431V19.8263H94.6368V23.7591H95.5527V24.4314H93.0431V23.7591ZM93.5835 17.5698H94.7558L94.2155 19.1724H94.1147L93.5835 17.5698Z" fill="white"/>
<path d="M96.4101 23.7591H97.216V20.4986H96.4101V19.8263H97.8846V21.8065H100.44V20.4986H99.4508V19.8263H101.905V20.4986H101.109V23.7591H101.905V24.4314H99.579V23.7591H100.44V22.4512H97.8846V23.7591H98.7364V24.4314H96.4101V23.7591Z" fill="white"/>
<path d="M104.457 24.5327C103.999 24.5327 103.639 24.4161 103.377 24.1827C103.12 23.9433 102.992 23.6332 102.992 23.2525C102.992 22.749 103.206 22.3867 103.633 22.1657C104.061 21.9446 104.619 21.8188 105.309 21.7881C105.547 21.7758 105.749 21.7543 105.914 21.7236C106.079 21.6868 106.207 21.6376 106.298 21.5762C106.39 21.5087 106.436 21.4289 106.436 21.3368C106.436 21.0298 106.326 20.7842 106.106 20.6C105.886 20.4096 105.605 20.3144 105.263 20.3144C105.074 20.3144 104.882 20.3482 104.686 20.4158C104.491 20.4833 104.329 20.5785 104.201 20.7013C104.079 20.8241 104.018 20.9714 104.018 21.1434V21.4473H103.377V19.596H103.999V20.2408C104.085 20.1548 104.189 20.075 104.311 20.0013C104.457 19.9153 104.619 19.8509 104.796 19.8079C104.979 19.7588 105.169 19.7342 105.364 19.7342C105.908 19.7342 106.341 19.9 106.665 20.2315C106.988 20.557 107.15 20.996 107.15 21.5486V23.7591H107.864V24.4314H106.491V23.4551C106.326 23.7805 106.057 24.0415 105.685 24.238C105.312 24.4345 104.903 24.5327 104.457 24.5327ZM104.659 23.9248C104.995 23.9248 105.303 23.8512 105.584 23.7038C105.865 23.5564 106.085 23.363 106.243 23.1236C106.408 22.8779 106.491 22.6139 106.491 22.3315V22.046C106.399 22.1135 106.265 22.1688 106.088 22.2117C105.917 22.2486 105.685 22.2793 105.392 22.3038C104.799 22.3468 104.369 22.4389 104.1 22.5802C103.832 22.7152 103.697 22.924 103.697 23.2064C103.697 23.4398 103.783 23.6178 103.954 23.7406C104.125 23.8634 104.36 23.9248 104.659 23.9248Z" fill="white"/>
<path d="M109.75 23.7591H110.785V20.4986H109.466C109.46 20.4986 109.457 20.5017 109.457 20.5079C109.457 20.5079 109.454 20.5079 109.448 20.5079C109.448 20.5079 109.448 20.5109 109.448 20.5171V21.6131H108.779V19.4118H109.42V19.8263H112.8V19.4118H113.441V21.6131H112.773V20.5171C112.773 20.5109 112.77 20.5079 112.763 20.5079C112.763 20.5017 112.76 20.4986 112.754 20.4986H111.445V23.7591H112.48V24.4314H109.75V23.7591Z" fill="white"/>
</svg>
