<svg width="117" height="48" viewBox="0 0 117 48" fill="none" xmlns="http://www.w3.org/2000/svg">
<path d="M82.5 24C84.4905 22.0875 86.3413 20.331 88.3109 18.573C89.3376 17.6574 90.9929 17.895 91.9288 18.8887C92.8542 19.8707 92.8664 21.3811 91.9095 22.3698C91.3822 22.9148 90.7526 23.3204 90 24C90.6268 24.5284 91.2129 25.0283 91.7122 25.5002C92.8646 26.5952 92.8961 28.2186 91.8153 29.2455C90.7222 30.284 89.0582 30.2491 87.8779 29.1491C86.0847 27.4809 84.3002 25.6849 82.5 24Z" fill="white"/>
<path d="M75.1875 22.1378C74.7451 23.3295 73.5688 24.1818 72.1875 24.1818C70.4271 24.1818 69 22.7979 69 21.0909C69 19.3839 70.4271 18 72.1875 18C73.5688 18 74.7451 18.8523 75.1875 20.044C75.6299 18.8523 76.8062 18 78.1875 18C79.9479 18 81.375 19.3839 81.375 21.0909C81.375 22.7979 79.9479 24.1818 78.1875 24.1818C76.8062 24.1818 75.6299 23.3295 75.1875 22.1378Z" fill="white"/>
<path d="M75.1875 28.8754C75.1111 28.5768 75.0117 28.2835 74.8897 27.998C74.5694 27.2479 74.0998 26.5665 73.5078 25.9924C72.9158 25.4184 72.2131 24.963 71.4396 24.6524C70.6662 24.3417 69.8372 24.1818 69 24.1818V30H81.375V24.1819C80.5378 24.1819 79.7088 24.3418 78.9354 24.6524C78.1619 24.9631 77.4592 25.4184 76.8672 25.9925C76.2752 26.5665 75.8056 27.248 75.4853 27.998C75.3633 28.2835 75.2639 28.5768 75.1875 28.8754Z" fill="white"/>
<path d="M94.125 23.3534H94.4238V22.1846L94.4135 22.1678H94.125V21.9234H94.7638L95.4164 23.2396L96.038 21.9234H96.7009V22.1678H96.4021V23.3534H96.7009V23.5979H95.8697V23.3534H96.1582V22.2281H96.1514L95.5126 23.5979H95.3168L94.6711 22.2717H94.6677V23.3534H94.9596V23.5979H94.125V23.3534Z" fill="white"/>
<path d="M97.309 22.1678H97.0411V21.9234H97.8277V22.1678H97.5598V23.2061L98.5317 21.9234H99.0675V22.1678H98.7687V23.3534H99.0675V23.5979H98.202V23.3903H98.5214V22.2951L97.5323 23.618H97.309V22.1678Z" fill="white"/>
<path d="M100.867 23.4137C100.821 23.4673 100.758 23.5142 100.678 23.5544C100.628 23.579 100.573 23.5979 100.513 23.6113C100.454 23.6247 100.391 23.6314 100.324 23.6314C100.166 23.6314 100.023 23.5935 99.8948 23.5176C99.7666 23.4416 99.6659 23.3378 99.5926 23.2061C99.5193 23.0721 99.4827 22.9236 99.4827 22.7606C99.4827 22.5977 99.5193 22.4503 99.5926 22.3186C99.6659 22.1846 99.7666 22.0796 99.8948 22.0037C100.023 21.9278 100.166 21.8899 100.324 21.8899C100.439 21.8899 100.545 21.9111 100.644 21.9535C100.717 21.987 100.78 22.0294 100.832 22.0808V21.8028H101.066V22.5463H100.819V22.4324C100.814 22.3788 100.788 22.3286 100.74 22.2817C100.694 22.2348 100.636 22.198 100.565 22.1712C100.496 22.1422 100.423 22.1277 100.345 22.1277C100.233 22.1277 100.131 22.1556 100.039 22.2114C99.9498 22.2672 99.8788 22.3431 99.8262 22.4391C99.7735 22.5351 99.7472 22.6423 99.7472 22.7606C99.7472 22.879 99.7735 22.9862 99.8262 23.0822C99.8788 23.1782 99.9498 23.2541 100.039 23.3099C100.131 23.3635 100.233 23.3903 100.345 23.3903C100.432 23.3903 100.513 23.3758 100.589 23.3467C100.664 23.3155 100.726 23.2742 100.774 23.2228C100.822 23.1692 100.849 23.1112 100.853 23.0487V22.9248H101.1V23.6348H100.867V23.4137Z" fill="white"/>
<path d="M101.97 23.3534H102.358V22.1678H101.863C101.861 22.1678 101.86 22.169 101.86 22.1712C101.86 22.1712 101.859 22.1712 101.857 22.1712C101.857 22.1712 101.857 22.1723 101.857 22.1745V22.5731H101.606V21.7726H101.846V21.9234H103.114V21.7726H103.354V22.5731H103.103V22.1745C103.103 22.1723 103.102 22.1712 103.1 22.1712C103.1 22.169 103.099 22.1678 103.096 22.1678H102.605V23.3534H102.993V23.5979H101.97V23.3534Z" fill="white"/>
<path d="M105.194 23.4338C105.148 23.4807 105.084 23.5231 105.002 23.5611C104.951 23.5834 104.895 23.6002 104.833 23.6113C104.771 23.6247 104.707 23.6314 104.641 23.6314C104.478 23.6314 104.332 23.5957 104.201 23.5243C104.071 23.4528 103.968 23.3523 103.892 23.2228C103.817 23.0933 103.779 22.9426 103.779 22.7707C103.779 22.601 103.817 22.4492 103.892 22.3152C103.97 22.1812 104.075 22.0774 104.208 22.0037C104.343 21.9278 104.492 21.8899 104.655 21.8899C104.822 21.8899 104.971 21.9267 105.101 22.0004C105.234 22.0741 105.337 22.1768 105.41 22.3085C105.484 22.4402 105.52 22.591 105.52 22.7606C105.52 22.7785 105.519 22.7975 105.517 22.8176C105.517 22.8377 105.517 22.8567 105.517 22.8745H104.036C104.05 22.9772 104.086 23.0699 104.143 23.1525C104.2 23.2329 104.273 23.2954 104.363 23.34C104.454 23.3847 104.556 23.407 104.668 23.407C104.751 23.407 104.83 23.3925 104.905 23.3635C104.983 23.3345 105.045 23.2976 105.091 23.253C105.139 23.2061 105.163 23.1592 105.163 23.1123V23.052H105.427V23.6348H105.194V23.4338ZM105.252 22.6535C105.241 22.5463 105.208 22.4525 105.153 22.3721C105.098 22.2895 105.027 22.227 104.94 22.1846C104.853 22.1399 104.755 22.1176 104.648 22.1176C104.542 22.1176 104.445 22.141 104.356 22.1879C104.269 22.2326 104.197 22.2962 104.139 22.3788C104.085 22.4615 104.051 22.553 104.04 22.6535H105.252Z" fill="white"/>
<path d="M107.789 23.6046C107.789 23.6024 107.788 23.6013 107.786 23.6013C107.786 23.6013 107.786 23.6002 107.786 23.5979C107.786 23.5979 107.784 23.5979 107.782 23.5979H105.976V23.3534H106.278V22.1678H105.976V21.9234H106.528V23.3534H107.487V22.1678H107.116V21.9234H108.036V22.1678H107.737V23.3534H108.036V24.0199H107.789V23.6046Z" fill="white"/>
<path d="M108.372 23.3534H108.674V22.1678H108.372V21.9234H109.272V22.1678H108.925V22.5798H109.299C109.505 22.5798 109.668 22.6256 109.787 22.7171C109.906 22.8064 109.965 22.9303 109.965 23.0889C109.965 23.2452 109.905 23.3691 109.783 23.4606C109.664 23.5522 109.503 23.5979 109.299 23.5979H108.372V23.3534ZM109.309 23.3668C109.431 23.3668 109.526 23.3412 109.594 23.2898C109.663 23.2385 109.698 23.167 109.698 23.0755C109.698 22.9862 109.663 22.9158 109.594 22.8645C109.526 22.8109 109.431 22.7841 109.309 22.7841H108.925V23.3668H109.309Z" fill="white"/>
<path d="M110.339 23.3534H110.641V21.498H110.339V21.2535H110.892V22.6434H111.208L111.64 22.1678H111.39V21.9234H112.19V22.1678H111.936L111.414 22.7439L111.974 23.3534H112.3V23.5979H111.373V23.3534H111.647L111.194 22.8779H110.892V23.3534H111.149V23.5979H110.339V23.3534Z" fill="white"/>
<path d="M112.872 22.1678H112.604V21.9234H113.391V22.1678H113.123V23.2061L114.095 21.9234H114.631V22.1678H114.332V23.3534H114.631V23.5979H113.765V23.3903H114.084V22.2951L113.095 23.618H112.872V22.1678Z" fill="white"/>
<path d="M115.242 22.1678H114.974V21.9234H115.76V22.1678H115.492V23.2061L116.464 21.9234H117V22.1678H116.701V23.3534H117V23.5979H116.134V23.3903H116.454V22.2951L115.465 23.618H115.242V22.1678ZM115.99 21.6889C115.867 21.6889 115.757 21.6655 115.661 21.6186C115.567 21.5717 115.493 21.5069 115.441 21.4243C115.388 21.3395 115.362 21.2412 115.362 21.1296V21.1028H115.599V21.1262C115.599 21.2312 115.634 21.316 115.705 21.3808C115.776 21.4433 115.871 21.4746 115.99 21.4746C116.109 21.4746 116.204 21.4433 116.275 21.3808C116.349 21.316 116.385 21.2312 116.385 21.1262V21.1028H116.619V21.1296C116.619 21.2412 116.592 21.3395 116.54 21.4243C116.487 21.5069 116.413 21.5717 116.317 21.6186C116.223 21.6655 116.114 21.6889 115.99 21.6889Z" fill="white"/>
<path d="M94.125 26.6397H94.4272V24.7842H94.125V24.5397H94.678V25.9296H94.9939L95.4267 25.4541H95.176V25.2096H95.9762V25.4541H95.7221L95.2 26.0301L95.7598 26.6397H96.0861V26.8841H95.1588V26.6397H95.4336L94.9802 26.1641H94.678V26.6397H94.9356V26.8841H94.125V26.6397Z" fill="white"/>
<path d="M97.3796 26.9176C97.2056 26.9176 97.0487 26.8797 96.9091 26.8038C96.7717 26.7279 96.6629 26.624 96.5828 26.4923C96.5027 26.3583 96.4626 26.2098 96.4626 26.0469C96.4626 25.8839 96.5027 25.7365 96.5828 25.6048C96.6629 25.4708 96.7717 25.3659 96.9091 25.2899C97.0487 25.214 97.2056 25.1761 97.3796 25.1761C97.5513 25.1761 97.707 25.214 97.8467 25.2899C97.9864 25.3659 98.0963 25.4708 98.1764 25.6048C98.2566 25.7365 98.2966 25.8839 98.2966 26.0469C98.2966 26.2098 98.2566 26.3583 98.1764 26.4923C98.0963 26.624 97.9864 26.7279 97.8467 26.8038C97.707 26.8797 97.5513 26.9176 97.3796 26.9176ZM97.3796 26.6731C97.5032 26.6731 97.6143 26.6464 97.7128 26.5928C97.8135 26.537 97.8914 26.4622 97.9463 26.3684C98.0035 26.2724 98.0322 26.1652 98.0322 26.0469C98.0322 25.9285 98.0035 25.8225 97.9463 25.7287C97.8914 25.6327 97.8135 25.5579 97.7128 25.5043C97.6143 25.4485 97.5032 25.4206 97.3796 25.4206C97.256 25.4206 97.1438 25.4485 97.043 25.5043C96.9446 25.5579 96.8667 25.6327 96.8095 25.7287C96.7545 25.8225 96.727 25.9285 96.727 26.0469C96.727 26.1652 96.7545 26.2724 96.8095 26.3684C96.8667 26.4622 96.9446 26.537 97.043 26.5928C97.1438 26.6464 97.256 26.6731 97.3796 26.6731Z" fill="white"/>
<path d="M98.7129 26.6397H99.0117V25.4708L99.0014 25.4541H98.7129V25.2096H99.3518L100.004 26.5258L100.626 25.2096H101.289V25.4541H100.99V26.6397H101.289V26.8841H100.458V26.6397H100.746V25.5143H100.739L100.1 26.8841H99.9047L99.259 25.5579H99.2556V26.6397H99.5475V26.8841H98.7129V26.6397Z" fill="white"/>
<path d="M102.635 26.9176C102.464 26.9176 102.309 26.8808 102.172 26.8071C102.034 26.7312 101.926 26.6251 101.845 26.4889C101.768 26.3505 101.729 26.1931 101.729 26.0167V25.7186C101.729 25.5021 101.765 25.3212 101.839 25.1761C101.914 25.0309 102.022 24.9204 102.161 24.8445C102.301 24.7686 102.473 24.7228 102.677 24.7072L102.835 24.6938C102.906 24.6849 102.959 24.6759 102.996 24.667C103.033 24.6558 103.059 24.6413 103.075 24.6235C103.091 24.6034 103.099 24.5788 103.099 24.5498V24.4192H103.343V25.0455H103.099V24.8613C103.085 24.8791 103.057 24.8936 103.013 24.9048C102.97 24.9137 102.906 24.9227 102.821 24.9316L102.701 24.945C102.536 24.9606 102.4 24.9952 102.292 25.0488C102.184 25.1002 102.104 25.1716 102.052 25.2631C101.999 25.3525 101.973 25.4641 101.973 25.5981V25.732C102.03 25.6092 102.123 25.5099 102.251 25.434C102.381 25.358 102.523 25.3201 102.677 25.3201C102.828 25.3201 102.967 25.3536 103.096 25.4206C103.224 25.4853 103.326 25.578 103.401 25.6985C103.477 25.8191 103.515 25.9564 103.515 26.1105C103.515 26.2623 103.476 26.3996 103.398 26.5224C103.32 26.6452 103.215 26.7424 103.082 26.8138C102.949 26.883 102.8 26.9176 102.635 26.9176ZM102.625 26.6765C102.74 26.6765 102.844 26.6519 102.938 26.6028C103.034 26.5515 103.109 26.4834 103.164 26.3985C103.219 26.3137 103.247 26.2177 103.247 26.1105C103.247 26.0055 103.219 25.9107 103.164 25.8258C103.109 25.7387 103.034 25.6706 102.938 25.6215C102.844 25.5702 102.74 25.5445 102.625 25.5445C102.508 25.5445 102.403 25.5702 102.309 25.6215C102.215 25.6706 102.141 25.7387 102.086 25.8258C102.031 25.9107 102.003 26.0055 102.003 26.1105C102.003 26.2177 102.031 26.3137 102.086 26.3985C102.141 26.4834 102.215 26.5515 102.309 26.6028C102.403 26.6519 102.508 26.6765 102.625 26.6765Z" fill="white"/>
<path d="M103.891 26.6397H104.238V25.4541H103.891V25.2096H104.489V26.6397H104.832V26.8841H103.891V26.6397ZM104.094 24.389H104.533L104.331 24.9718H104.293L104.094 24.389Z" fill="white"/>
<path d="M105.154 26.6397H105.456V25.4541H105.154V25.2096H105.707V25.9296H106.665V25.4541H106.294V25.2096H107.215V25.4541H106.916V26.6397H107.215V26.8841H106.342V26.6397H106.665V26.1641H105.707V26.6397H106.026V26.8841H105.154V26.6397Z" fill="white"/>
<path d="M108.172 26.921C108 26.921 107.865 26.8786 107.766 26.7937C107.67 26.7066 107.622 26.5939 107.622 26.4555C107.622 26.2724 107.702 26.1406 107.862 26.0603C108.023 25.9799 108.232 25.9341 108.491 25.9229C108.58 25.9185 108.656 25.9107 108.718 25.8995C108.779 25.8861 108.828 25.8682 108.862 25.8459C108.896 25.8213 108.913 25.7923 108.913 25.7588C108.913 25.6472 108.872 25.5579 108.79 25.4909C108.707 25.4217 108.602 25.3871 108.474 25.3871C108.403 25.3871 108.331 25.3993 108.257 25.4239C108.184 25.4485 108.123 25.4831 108.075 25.5277C108.03 25.5724 108.007 25.626 108.007 25.6885V25.799H107.766V25.1258H108V25.3603C108.032 25.329 108.071 25.3 108.117 25.2732C108.172 25.2419 108.232 25.2185 108.299 25.2029C108.367 25.185 108.438 25.1761 108.512 25.1761C108.715 25.1761 108.878 25.2364 108.999 25.3569C109.121 25.4753 109.181 25.6349 109.181 25.8359V26.6397H109.449V26.8841H108.934V26.5291C108.872 26.6475 108.771 26.7424 108.632 26.8138C108.492 26.8853 108.339 26.921 108.172 26.921ZM108.247 26.6999C108.373 26.6999 108.489 26.6731 108.594 26.6196C108.699 26.566 108.782 26.4956 108.841 26.4086C108.903 26.3193 108.934 26.2232 108.934 26.1205V26.0167C108.9 26.0413 108.849 26.0614 108.783 26.077C108.719 26.0904 108.632 26.1016 108.522 26.1105C108.3 26.1261 108.138 26.1596 108.038 26.211C107.937 26.2601 107.886 26.336 107.886 26.4387C107.886 26.5236 107.919 26.5883 107.983 26.633C108.047 26.6776 108.135 26.6999 108.247 26.6999Z" fill="white"/>
<path d="M110.156 26.6397H110.544V25.4541H110.05C110.048 25.4541 110.046 25.4552 110.046 25.4574C110.046 25.4574 110.045 25.4574 110.043 25.4574C110.043 25.4574 110.043 25.4585 110.043 25.4608V25.8593H109.792V25.0589H110.033V25.2096H111.3V25.0589H111.54V25.8593H111.29V25.4608C111.29 25.4585 111.289 25.4574 111.286 25.4574C111.286 25.4552 111.285 25.4541 111.283 25.4541H110.792V26.6397H111.18V26.8841H110.156V26.6397Z" fill="white"/>
<path d="M13.5 24C15.4905 22.0875 17.3413 20.331 19.3109 18.573C20.3376 17.6574 21.9929 17.895 22.9288 18.8887C23.8542 19.8707 23.8664 21.3811 22.9095 22.3698C22.3822 22.9148 21.7526 23.3204 21 24C21.6268 24.5284 22.2129 25.0283 22.7122 25.5002C23.8646 26.5952 23.8961 28.2186 22.8153 29.2455C21.7222 30.284 20.0582 30.2491 18.8779 29.1491C17.0847 27.4809 15.3002 25.6849 13.5 24Z" fill="#151515"/>
<path d="M6.1875 22.1378C5.74512 23.3295 4.56885 24.1818 3.1875 24.1818C1.42712 24.1818 0 22.7979 0 21.0909C0 19.3839 1.42712 18 3.1875 18C4.56885 18 5.74512 18.8523 6.1875 20.044C6.62988 18.8523 7.80615 18 9.1875 18C10.9479 18 12.375 19.3839 12.375 21.0909C12.375 22.7979 10.9479 24.1818 9.1875 24.1818C7.80615 24.1818 6.62988 23.3295 6.1875 22.1378Z" fill="#151515"/>
<path d="M6.1875 28.8754C6.11113 28.5768 6.0117 28.2835 5.88973 27.998C5.56936 27.2479 5.09978 26.5665 4.50781 25.9924C3.91583 25.4184 3.21306 24.963 2.43961 24.6524C1.66616 24.3417 0.837177 24.1818 0 24.1818V30H12.375V24.1819C11.5378 24.1819 10.7088 24.3418 9.93539 24.6524C9.16194 24.9631 8.45917 25.4184 7.86719 25.9925C7.27522 26.5665 6.80564 27.248 6.48527 27.998C6.36331 28.2835 6.26388 28.5768 6.1875 28.8754Z" fill="#151515"/>
<path d="M25.125 23.3534H25.4238V22.1846L25.4135 22.1678H25.125V21.9234H25.7638L26.4164 23.2396L27.038 21.9234H27.7009V22.1678H27.4021V23.3534H27.7009V23.5979H26.8697V23.3534H27.1582V22.2281H27.1514L26.5126 23.5979H26.3168L25.6711 22.2717H25.6677V23.3534H25.9596V23.5979H25.125V23.3534Z" fill="#151515"/>
<path d="M28.309 22.1678H28.0411V21.9234H28.8277V22.1678H28.5598V23.2061L29.5317 21.9234H30.0675V22.1678H29.7687V23.3534H30.0675V23.5979H29.202V23.3903H29.5214V22.2951L28.5323 23.618H28.309V22.1678Z" fill="#151515"/>
<path d="M31.8668 23.4137C31.821 23.4673 31.7581 23.5142 31.6779 23.5544C31.6275 23.579 31.5726 23.5979 31.5131 23.6113C31.4535 23.6247 31.3906 23.6314 31.3242 23.6314C31.1662 23.6314 31.0231 23.5935 30.8948 23.5176C30.7666 23.4416 30.6659 23.3378 30.5926 23.2061C30.5193 23.0721 30.4827 22.9236 30.4827 22.7606C30.4827 22.5976 30.5193 22.4503 30.5926 22.3186C30.6659 22.1846 30.7666 22.0796 30.8948 22.0037C31.0231 21.9278 31.1662 21.8899 31.3242 21.8899C31.4387 21.8899 31.5451 21.9111 31.6436 21.9535C31.7168 21.987 31.7798 22.0294 31.8325 22.0808V21.8028H32.066V22.5463H31.8187V22.4324C31.8142 22.3788 31.7878 22.3286 31.7397 22.2817C31.6939 22.2348 31.6356 22.198 31.5646 22.1712C31.4959 22.1422 31.4226 22.1277 31.3448 22.1277C31.2326 22.1277 31.1307 22.1556 31.0391 22.2114C30.9498 22.2672 30.8788 22.3431 30.8262 22.4391C30.7735 22.5351 30.7472 22.6423 30.7472 22.7606C30.7472 22.879 30.7735 22.9862 30.8262 23.0822C30.8788 23.1782 30.9498 23.2541 31.0391 23.3099C31.1307 23.3635 31.2326 23.3903 31.3448 23.3903C31.4318 23.3903 31.5131 23.3758 31.5886 23.3467C31.6642 23.3155 31.726 23.2742 31.7741 23.2228C31.8222 23.1692 31.8485 23.1112 31.8531 23.0487V22.9248H32.1004V23.6348H31.8668V23.4137Z" fill="#151515"/>
<path d="M32.9699 23.3534H33.358V22.1678H32.8634C32.8611 22.1678 32.86 22.169 32.86 22.1712C32.86 22.1712 32.8588 22.1712 32.8566 22.1712C32.8566 22.1712 32.8566 22.1723 32.8566 22.1745V22.5731H32.6058V21.7726H32.8463V21.9234H34.1136V21.7726H34.354V22.5731H34.1033V22.1745C34.1033 22.1723 34.1022 22.1712 34.0999 22.1712C34.0999 22.169 34.0987 22.1678 34.0964 22.1678H33.6053V23.3534H33.9934V23.5979H32.9699V23.3534Z" fill="#151515"/>
<path d="M36.1939 23.4338C36.1481 23.4807 36.084 23.5231 36.0015 23.5611C35.9512 23.5834 35.8951 23.6002 35.8332 23.6113C35.7714 23.6247 35.7073 23.6314 35.6409 23.6314C35.4783 23.6314 35.3318 23.5957 35.2013 23.5243C35.0708 23.4528 34.9677 23.3523 34.8922 23.2228C34.8166 23.0933 34.7788 22.9426 34.7788 22.7707C34.7788 22.601 34.8166 22.4492 34.8922 22.3152C34.97 22.1812 35.0753 22.0774 35.2081 22.0037C35.3432 21.9278 35.4921 21.8899 35.6546 21.8899C35.8218 21.8899 35.9706 21.9267 36.1011 22.0004C36.2339 22.0741 36.337 22.1768 36.4102 22.3085C36.4835 22.4402 36.5201 22.591 36.5201 22.7606C36.5201 22.7785 36.519 22.7975 36.5167 22.8176C36.5167 22.8377 36.5167 22.8567 36.5167 22.8745H35.0364C35.0502 22.9772 35.0856 23.0699 35.1429 23.1525C35.2001 23.2329 35.2734 23.2954 35.3627 23.34C35.4543 23.3847 35.5562 23.407 35.6684 23.407C35.7508 23.407 35.8298 23.3925 35.9054 23.3635C35.9832 23.3345 36.045 23.2976 36.0908 23.253C36.1389 23.2061 36.163 23.1592 36.163 23.1123V23.052H36.4274V23.6348H36.1939V23.4338ZM36.2523 22.6535C36.2408 22.5463 36.2076 22.4525 36.1526 22.3721C36.0977 22.2895 36.0267 22.227 35.9397 22.1846C35.8527 22.1399 35.7554 22.1176 35.6478 22.1176C35.5424 22.1176 35.4451 22.141 35.3558 22.1879C35.2688 22.2326 35.1967 22.2962 35.1395 22.3788C35.0845 22.4615 35.0513 22.553 35.0399 22.6535H36.2523Z" fill="#151515"/>
<path d="M38.789 23.6046C38.789 23.6024 38.7878 23.6013 38.7855 23.6013C38.7855 23.6013 38.7855 23.6002 38.7855 23.5979C38.7855 23.5979 38.7844 23.5979 38.7821 23.5979H36.9755V23.3534H37.2778V22.1678H36.9755V21.9234H37.5285V23.3534H38.4867V22.1678H38.1158V21.9234H39.0362V22.1678H38.7374V23.3534H39.0362V24.0199H38.789V23.6046Z" fill="#151515"/>
<path d="M39.3718 23.3534H39.674V22.1678H39.3718V21.9234H40.2716V22.1678H39.9247V22.5798H40.2991C40.5052 22.5798 40.6678 22.6256 40.7868 22.7171C40.9059 22.8064 40.9654 22.9303 40.9654 23.0889C40.9654 23.2452 40.9047 23.3691 40.7834 23.4606C40.6643 23.5522 40.5029 23.5979 40.2991 23.5979H39.3718V23.3534ZM40.3094 23.3668C40.4308 23.3668 40.5258 23.3412 40.5945 23.2898C40.6632 23.2385 40.6975 23.167 40.6975 23.0755C40.6975 22.9862 40.6632 22.9158 40.5945 22.8645C40.5258 22.8109 40.4308 22.7841 40.3094 22.7841H39.9247V23.3668H40.3094Z" fill="#151515"/>
<path d="M41.3387 23.3534H41.641V21.498H41.3387V21.2535H41.8917V22.6434H42.2077L42.6404 22.1678H42.3897V21.9234H43.1899V22.1678H42.9358L42.4137 22.7439L42.9736 23.3534H43.2999V23.5979H42.3725V23.3534H42.6473L42.1939 22.8779H41.8917V23.3534H42.1493V23.5979H41.3387V23.3534Z" fill="#151515"/>
<path d="M43.8721 22.1678H43.6042V21.9234H44.3907V22.1678H44.1228V23.2061L45.0948 21.9234H45.6306V22.1678H45.3318V23.3534H45.6306V23.5979H44.7651V23.3903H45.0845V22.2951L44.0953 23.618H43.8721V22.1678Z" fill="#151515"/>
<path d="M46.2415 22.1678H45.9736V21.9234H46.7601V22.1678H46.4922V23.2061L47.4642 21.9234H48V22.1678H47.7012V23.3534H48V23.5979H47.1345V23.3903H47.4539V22.2951L46.4648 23.618H46.2415V22.1678ZM46.9902 21.6889C46.8666 21.6889 46.7567 21.6655 46.6605 21.6186C46.5667 21.5717 46.4934 21.5069 46.4407 21.4243C46.3881 21.3395 46.3617 21.2412 46.3617 21.1296V21.1028H46.5987V21.1262C46.5987 21.2312 46.6342 21.316 46.7052 21.3808C46.7762 21.4433 46.8712 21.4746 46.9902 21.4746C47.1093 21.4746 47.2043 21.4433 47.2753 21.3808C47.3486 21.316 47.3852 21.2312 47.3852 21.1262V21.1028H47.6188V21.1296C47.6188 21.2412 47.5924 21.3395 47.5398 21.4243C47.4871 21.5069 47.4127 21.5717 47.3165 21.6186C47.2227 21.6655 47.1139 21.6889 46.9902 21.6889Z" fill="#151515"/>
<path d="M25.125 26.6397H25.4272V24.7842H25.125V24.5397H25.678V25.9296H25.9939L26.4267 25.4541H26.176V25.2096H26.9762V25.4541H26.7221L26.2 26.0301L26.7598 26.6397H27.0861V26.8841H26.1588V26.6397H26.4336L25.9802 26.1641H25.678V26.6397H25.9356V26.8841H25.125V26.6397Z" fill="#151515"/>
<path d="M28.3796 26.9176C28.2056 26.9176 28.0487 26.8797 27.9091 26.8038C27.7717 26.7279 27.6629 26.624 27.5828 26.4923C27.5027 26.3583 27.4626 26.2098 27.4626 26.0469C27.4626 25.8839 27.5027 25.7365 27.5828 25.6048C27.6629 25.4708 27.7717 25.3659 27.9091 25.2899C28.0487 25.214 28.2056 25.1761 28.3796 25.1761C28.5513 25.1761 28.707 25.214 28.8467 25.2899C28.9864 25.3659 29.0963 25.4708 29.1764 25.6048C29.2566 25.7365 29.2966 25.8839 29.2966 26.0469C29.2966 26.2098 29.2566 26.3583 29.1764 26.4923C29.0963 26.624 28.9864 26.7279 28.8467 26.8038C28.707 26.8797 28.5513 26.9176 28.3796 26.9176ZM28.3796 26.6731C28.5032 26.6731 28.6143 26.6464 28.7128 26.5928C28.8135 26.5369 28.8914 26.4622 28.9463 26.3684C29.0035 26.2724 29.0322 26.1652 29.0322 26.0469C29.0322 25.9285 29.0035 25.8225 28.9463 25.7287C28.8914 25.6327 28.8135 25.5579 28.7128 25.5043C28.6143 25.4485 28.5032 25.4206 28.3796 25.4206C28.256 25.4206 28.1438 25.4485 28.043 25.5043C27.9446 25.5579 27.8667 25.6327 27.8095 25.7287C27.7545 25.8225 27.727 25.9285 27.727 26.0469C27.727 26.1652 27.7545 26.2724 27.8095 26.3684C27.8667 26.4622 27.9446 26.5369 28.043 26.5928C28.1438 26.6464 28.256 26.6731 28.3796 26.6731Z" fill="#151515"/>
<path d="M29.7129 26.6397H30.0117V25.4708L30.0014 25.4541H29.7129V25.2096H30.3518L31.0043 26.5258L31.626 25.2096H32.2888V25.4541H31.99V26.6397H32.2888V26.8841H31.4577V26.6397H31.7462V25.5143H31.7393L31.1005 26.8841H30.9047L30.259 25.5579H30.2556V26.6397H30.5475V26.8841H29.7129V26.6397Z" fill="#151515"/>
<path d="M33.6354 26.9176C33.4637 26.9176 33.3091 26.8808 33.1717 26.8071C33.0344 26.7312 32.9256 26.6251 32.8455 26.4889C32.7676 26.3505 32.7287 26.1931 32.7287 26.0167V25.7186C32.7287 25.5021 32.7653 25.3212 32.8386 25.1761C32.9141 25.0309 33.0218 24.9204 33.1614 24.8445C33.3011 24.7686 33.4728 24.7228 33.6766 24.7072L33.8346 24.6938C33.9056 24.6849 33.9594 24.6759 33.996 24.667C34.0327 24.6558 34.059 24.6413 34.075 24.6235C34.091 24.6034 34.0991 24.5788 34.0991 24.5498V24.4192H34.3429V25.0455H34.0991V24.8613C34.0853 24.8791 34.0567 24.8936 34.0132 24.9048C33.9697 24.9137 33.9056 24.9227 33.8209 24.9316L33.7007 24.945C33.5358 24.9606 33.3996 24.9952 33.2919 25.0488C33.1843 25.1002 33.1042 25.1716 33.0515 25.2631C32.9989 25.3525 32.9725 25.4641 32.9725 25.5981V25.732C33.0298 25.6092 33.1225 25.5099 33.2507 25.434C33.3812 25.358 33.5232 25.3201 33.6766 25.3201C33.8277 25.3201 33.9674 25.3536 34.0956 25.4206C34.2238 25.4853 34.3257 25.578 34.4013 25.6985C34.4769 25.8191 34.5146 25.9564 34.5146 26.1105C34.5146 26.2623 34.4757 26.3996 34.3979 26.5224C34.32 26.6452 34.2147 26.7424 34.0819 26.8138C33.9491 26.883 33.8003 26.9176 33.6354 26.9176ZM33.6251 26.6765C33.7396 26.6765 33.8438 26.6519 33.9376 26.6028C34.0338 26.5515 34.1094 26.4834 34.1643 26.3985C34.2193 26.3137 34.2467 26.2177 34.2467 26.1105C34.2467 26.0055 34.2193 25.9107 34.1643 25.8258C34.1094 25.7387 34.0338 25.6706 33.9376 25.6215C33.8438 25.5702 33.7396 25.5445 33.6251 25.5445C33.5083 25.5445 33.403 25.5702 33.3091 25.6215C33.2152 25.6706 33.1408 25.7387 33.0859 25.8258C33.0309 25.9107 33.0034 26.0055 33.0034 26.1105C33.0034 26.2177 33.0309 26.3137 33.0859 26.3985C33.1408 26.4834 33.2152 26.5515 33.3091 26.6028C33.403 26.6519 33.5083 26.6765 33.6251 26.6765Z" fill="#151515"/>
<path d="M34.8912 26.6397H35.2381V25.4541H34.8912V25.2096H35.4888V26.6397H35.8322V26.8841H34.8912V26.6397ZM35.0938 24.389H35.5334L35.3308 24.9718H35.293L35.0938 24.389Z" fill="#151515"/>
<path d="M36.1538 26.6397H36.456V25.4541H36.1538V25.2096H36.7067V25.9296H37.665V25.4541H37.294V25.2096H38.2145V25.4541H37.9157V26.6397H38.2145V26.8841H37.3421V26.6397H37.665V26.1641H36.7067V26.6397H37.0261V26.8841H36.1538V26.6397Z" fill="#151515"/>
<path d="M39.1715 26.921C38.9998 26.921 38.8647 26.8786 38.7663 26.7937C38.6701 26.7066 38.622 26.5939 38.622 26.4555C38.622 26.2724 38.7021 26.1406 38.8624 26.0603C39.0227 25.9799 39.2322 25.9341 39.4909 25.9229C39.5802 25.9185 39.6558 25.9107 39.7176 25.8995C39.7794 25.8861 39.8275 25.8682 39.8619 25.8459C39.8962 25.8213 39.9134 25.7923 39.9134 25.7588C39.9134 25.6472 39.8722 25.5579 39.7897 25.4909C39.7073 25.4217 39.602 25.3871 39.4738 25.3871C39.4028 25.3871 39.3307 25.3993 39.2574 25.4239C39.1841 25.4485 39.1234 25.4831 39.0754 25.5277C39.0296 25.5724 39.0067 25.626 39.0067 25.6885V25.799H38.7663V25.1258H38.9998V25.3603C39.0319 25.329 39.0708 25.3 39.1166 25.2732C39.1715 25.2419 39.2322 25.2185 39.2986 25.2029C39.3673 25.185 39.4383 25.1761 39.5116 25.1761C39.7153 25.1761 39.8779 25.2364 39.9993 25.3569C40.1206 25.4753 40.1813 25.6349 40.1813 25.8359V26.6397H40.4492V26.8841H39.934V26.5291C39.8722 26.6475 39.7714 26.7424 39.6318 26.8138C39.4921 26.8853 39.3387 26.921 39.1715 26.921ZM39.2471 26.6999C39.373 26.6999 39.4887 26.6731 39.594 26.6196C39.6993 26.566 39.7817 26.4956 39.8413 26.4086C39.9031 26.3193 39.934 26.2232 39.934 26.1205V26.0167C39.8997 26.0413 39.8493 26.0614 39.7829 26.077C39.7188 26.0904 39.6318 26.1016 39.5219 26.1105C39.2998 26.1261 39.1383 26.1596 39.0376 26.211C38.9368 26.2601 38.8865 26.336 38.8865 26.4387C38.8865 26.5236 38.9185 26.5883 38.9826 26.633C39.0467 26.6776 39.1349 26.6999 39.2471 26.6999Z" fill="#151515"/>
<path d="M41.1563 26.6397H41.5444V25.4541H41.0499C41.0476 25.4541 41.0464 25.4552 41.0464 25.4574C41.0464 25.4574 41.0453 25.4574 41.043 25.4574C41.043 25.4574 41.043 25.4585 41.043 25.4608V25.8593H40.7923V25.0589H41.0327V25.2096H42.3V25.0589H42.5404V25.8593H42.2897V25.4608C42.2897 25.4585 42.2886 25.4574 42.2863 25.4574C42.2863 25.4552 42.2851 25.4541 42.2829 25.4541H41.7917V26.6397H42.1798V26.8841H41.1563V26.6397Z" fill="#151515"/>
</svg>
