<svg width="98" height="100" viewBox="0 0 98 100" fill="none" xmlns="http://www.w3.org/2000/svg">
<path d="M46.4579 17.1808C45.0368 7.49833 35.2233 0 23.3204 0C10.4406 0 0 8.77678 0 19.6035V100H20.9623V17.1808H25.6788" fill="#FF4E00"/>
<path d="M51.5421 17.1808C52.9632 7.49833 62.7767 0 74.6796 0C87.5594 0 98 8.77678 98 19.6035V100H77.0377V17.1808H72.3212" fill="#FF4E00"/>
<path d="M26.2127 78.3415C26.2127 90.1657 36.4027 99.7516 48.9722 99.7516C61.5418 99.7516 71.7317 90.1661 71.7317 78.3415V17.1565H51.4788V81.8702C51.4788 83.1719 50.3566 84.2287 48.9718 84.2287C47.587 84.2287 46.4649 83.1719 46.4649 81.8702V17.1565H26.2119" fill="#FF4E00"/>
<path d="M44.0561 19.4034H26.1895V15.314H44.0561C45.2736 15.314 46.2604 16.2201 46.2604 17.3378V17.3791C46.2604 18.4968 45.2736 19.403 44.0561 19.403" fill="#FF4E00"/>
<path d="M53.8181 15.314H71.6846V19.4034H53.8181C52.6005 19.4034 51.6137 18.4972 51.6137 17.3795V17.3382C51.6137 16.2205 52.6005 15.3144 53.8181 15.3144" fill="#FF4E00"/>
</svg>
