<svg width="90" height="24" viewBox="0 0 90 24" fill="none" xmlns="http://www.w3.org/2000/svg">
<g clip-path="url(#clip0_3952_3278)">
<path d="M45.5054 0.345548C48.2404 0.345548 50.9755 0.345548 53.7934 0.345548C53.8048 1.8634 53.8048 1.8634 53.8163 3.41192C53.8224 4.05659 53.8288 4.70126 53.8357 5.34592C53.8466 6.36704 53.8569 7.38814 53.8635 8.4093C53.8687 9.23346 53.8769 10.0575 53.8871 10.8817C53.8904 11.1946 53.8927 11.5075 53.894 11.8205C53.8893 14.3848 53.8893 14.3848 54.602 16.8139C55.4295 17.5306 56.311 17.5483 57.3508 17.5042C58.07 17.4199 58.4806 17.2919 59.0493 16.8139C59.7849 15.1006 59.7518 13.3843 59.7592 11.5413C59.7626 11.2174 59.7662 10.8935 59.7702 10.5696C59.7797 9.72308 59.7858 8.87655 59.7911 8.02997C59.7982 7.01103 59.8097 5.99213 59.8205 4.97322C59.8363 3.43067 59.8465 1.88817 59.8579 0.345548C62.5262 0.345548 65.1946 0.345548 67.9438 0.345548C67.9438 7.1039 67.9438 13.8622 67.9438 20.8254C66.9432 20.8254 65.9425 20.8254 64.9116 20.8254C64.9116 15.0425 64.9116 9.25956 64.9116 3.3014C64.1778 3.3014 63.444 3.3014 62.6879 3.3014C62.6943 3.86044 62.6943 3.86044 62.7008 4.43077C62.7139 5.66953 62.7231 6.90829 62.7298 8.14709C62.734 8.89735 62.7397 9.64753 62.7489 10.3977C62.7595 11.2625 62.7633 12.1272 62.7669 12.9921C62.7711 13.2583 62.7752 13.5244 62.7795 13.7987C62.7801 16.0185 62.3424 17.7705 60.8686 19.4126C59.6002 20.533 58.0029 20.9065 56.3787 20.884C54.9298 20.7335 53.5443 20.1513 52.4795 19.1033C51.4221 17.7459 50.9369 16.2448 50.9404 14.5188C50.9404 14.2695 50.9404 14.0202 50.9404 13.7633C50.9415 13.4952 50.9425 13.2271 50.9436 12.9508C50.9439 12.6755 50.9442 12.4002 50.9445 12.1166C50.9452 11.3863 50.9472 10.656 50.9495 9.92572C50.9515 9.17987 50.9525 8.43402 50.9535 7.68817C50.9556 6.22591 50.9592 4.76366 50.9634 3.3014C50.2296 3.3014 49.4958 3.3014 48.7397 3.3014C48.7397 9.08432 48.7397 14.8672 48.7397 20.8254C47.7391 20.8254 46.7385 20.8254 45.7075 20.8254C45.3235 20.4243 45.4811 19.8353 45.4802 19.3017C45.4813 19.0186 45.4813 19.0186 45.4824 18.7297C45.4824 18.532 45.4823 18.3342 45.4823 18.1305C45.4825 17.4736 45.484 16.8168 45.4856 16.1599C45.486 15.7057 45.4863 15.2516 45.4865 14.7975C45.4873 13.5996 45.4892 12.4018 45.4915 11.204C45.4935 9.98268 45.4945 8.76141 45.4955 7.54013C45.4977 5.14194 45.5012 2.74374 45.5054 0.345548Z" fill="white"/>
<path d="M31.734 0.253177C32.0698 0.246849 32.0698 0.246849 32.4123 0.240394C34.8406 0.241884 36.5016 0.898883 38.228 2.668C38.2947 1.90159 38.3614 1.13518 38.4302 0.345547C39.4308 0.345547 40.4314 0.345547 41.4624 0.345547C41.4624 7.1039 41.4624 13.8622 41.4624 20.8254C40.4618 20.8254 39.4611 20.8254 38.4302 20.8254C38.3635 19.9893 38.2968 19.1532 38.228 18.2918C37.9737 18.5531 37.7194 18.8144 37.4573 19.0836C35.6774 20.7402 33.5164 21.1089 31.1971 21.0819C28.3299 20.882 26.0362 19.5991 24.0777 17.4473C22.462 15.4774 21.7676 12.7154 21.8106 10.1475C22.0773 7.00191 23.1001 4.62464 25.2905 2.45687C27.3217 0.685135 29.119 0.235811 31.734 0.253177ZM26.5034 5.62386C25.144 7.71712 24.8594 10.1359 25.2905 12.5912C25.8002 14.4971 26.6841 16.0342 28.2975 17.1042C30.1483 18.1691 31.8547 18.3198 33.8818 17.7508C35.8246 17.0799 37.0996 15.7559 38.0259 13.858C38.7265 11.7733 38.7777 9.2346 38.0006 7.16776C37.1269 5.30928 35.9618 4.04001 34.0587 3.35418C31.1816 2.53873 28.4664 3.23538 26.5034 5.62386Z" fill="white"/>
<path d="M1.03277 0.345548C2.31474 0.129224 3.61129 -0.0608656 4.87359 0.345548C5.91844 1.13823 6.56936 2.34508 7.23175 3.48016C7.58506 4.0756 7.98653 4.62293 8.39854 5.1752C8.91844 5.90084 9.43447 6.62922 9.94782 7.35993C11.3937 9.41752 12.8567 11.4596 14.3434 13.4852C14.4735 13.6627 14.6037 13.8401 14.7378 14.023C14.8532 14.1799 14.9685 14.3368 15.0874 14.4984C15.3323 14.8398 15.563 15.1922 15.7896 15.5471C15.8563 10.5306 15.923 5.51407 15.9917 0.345548C16.9924 0.345548 17.993 0.345548 19.024 0.345548C19.024 7.1039 19.024 13.8622 19.024 20.8254C15.7896 20.8254 15.7896 20.8254 15.0426 20.2736C14.7866 19.9032 14.7866 19.9032 14.5514 19.4926C14.4112 19.282 14.4112 19.282 14.268 19.0672C14.0662 18.7635 13.8685 18.4567 13.6749 18.1472C13.2371 17.4594 12.7638 16.8017 12.2907 16.1402C11.925 15.6284 11.5638 15.1136 11.2033 14.5978C10.4925 13.5843 9.76091 12.5895 9.02394 11.5966C8.02875 10.2519 7.06039 8.88557 6.08648 7.52405C5.33927 10.313 4.72911 13.1325 4.11553 15.9562C4.01214 16.43 3.9087 16.9038 3.8052 17.3776C3.55431 18.5267 3.30409 19.676 3.05425 20.8254C2.05362 20.8254 1.05299 20.8254 0.0220337 20.8254C0.14058 19.086 0.541735 17.4264 0.936561 15.7381C1.14407 14.8483 1.34622 13.9572 1.5492 13.0663C1.63228 12.7023 1.71539 12.3383 1.79853 11.9743C1.83927 11.7959 1.88001 11.6175 1.92198 11.4336C2.00176 11.0848 2.08172 10.736 2.16189 10.3872C2.3807 9.43519 2.59595 8.48246 2.80521 7.52808C2.8698 7.23674 2.93583 6.94575 3.00334 6.65513C3.09665 6.25263 3.18456 5.84878 3.2722 5.44489C3.34851 5.10521 3.34851 5.10521 3.42637 4.75866C3.49299 3.4902 2.45272 2.5458 1.72529 1.60987C1.43707 1.19008 1.43707 1.19008 1.43707 0.767813C1.30365 0.767813 1.17023 0.767813 1.03277 0.767813C1.03277 0.628465 1.03277 0.489118 1.03277 0.345548Z" fill="white"/>
<path d="M71.9867 0.345548C72.9207 0.345548 73.8546 0.345548 74.8168 0.345548C74.8208 0.699053 74.8248 1.05256 74.829 1.41678C74.8427 2.59237 74.8583 3.76793 74.8749 4.94349C74.885 5.65535 74.8944 6.36721 74.9021 7.07911C74.9114 7.89989 74.9231 8.72061 74.9353 9.54136C74.9376 9.7937 74.9399 10.046 74.9424 10.306C74.9827 12.728 75.1976 14.6032 76.6614 16.5368C77.4538 17.2025 78.3102 17.5232 79.2641 17.8695C79.2641 17.2425 79.2641 16.6154 79.2641 15.9693C80.198 15.9693 81.1319 15.9693 82.0942 15.9693C82.0942 16.5964 82.0942 17.2235 82.0942 17.8695C84.2609 17.0819 84.2609 17.0819 85.7328 15.336C86.4489 13.7726 86.4353 12.2809 86.4427 10.5723C86.4461 10.2765 86.4498 9.98066 86.4537 9.68486C86.4633 8.91155 86.4693 8.13826 86.4746 7.36491C86.4807 6.57368 86.4901 5.78249 86.4992 4.99129C86.5165 3.44272 86.5298 1.89417 86.5414 0.345548C87.542 0.345548 88.5427 0.345548 89.5736 0.345548C89.5874 2.07089 89.5985 3.79619 89.605 5.52158C89.6082 6.32294 89.6125 7.12426 89.6194 7.92559C89.626 8.70043 89.6296 9.47523 89.6312 10.2501C89.6323 10.5442 89.6345 10.8383 89.6378 11.1323C89.671 14.2167 89.1068 16.3694 87.0973 18.6613C85.7736 19.9826 83.9132 20.8254 82.0942 20.8254C82.0942 21.5918 82.0942 22.3582 82.0942 23.1479C81.1602 23.1479 80.2263 23.1479 79.2641 23.1479C79.2641 22.3814 79.2641 21.615 79.2641 20.8254C79.0348 20.808 78.8055 20.7906 78.5692 20.7726C76.5959 20.5041 74.8817 19.3597 73.6008 17.7937C72.073 15.6347 71.8991 13.6687 71.9275 11.0465C71.9287 10.7368 71.9295 10.4271 71.9301 10.1174C71.9324 9.30829 71.9384 8.49926 71.9451 7.6902C71.9514 6.86218 71.9541 6.03416 71.9571 5.20613C71.9636 3.5859 71.9743 1.96574 71.9867 0.345548Z" fill="white"/>
</g>
<defs>
<clipPath id="clip0_3952_3278">
<rect width="90" height="24" fill="white"/>
</clipPath>
</defs>
</svg>
