<svg width="90" height="24" viewBox="0 0 90 24" fill="none" xmlns="http://www.w3.org/2000/svg">
<g clip-path="url(#clip0_3952_978)">
<path d="M44.7967 1.38264C43.5499 2.69955 42.2718 3.89143 40.8662 5.02666C40.5296 5.29955 40.1931 5.57244 39.8463 5.8536C39.5933 6.05688 39.3403 6.26016 39.0796 6.4696C39.5858 7.65126 40.1017 8.36869 41.0702 9.18733C41.3067 9.39061 41.5433 9.59389 41.787 9.80333C42.1566 10.1143 42.1566 10.1143 42.5337 10.4316C43.0235 10.8472 43.5123 11.2639 44.0002 11.6819C44.2169 11.8646 44.4336 12.0472 44.6568 12.2354C45.1778 12.7305 45.1778 12.7305 45.559 13.5131C38.3339 13.8697 38.3339 13.8697 36.3655 12.252C36.1291 12.0225 35.8928 11.793 35.6493 11.5566C35.2833 11.2262 34.9173 10.8958 34.5402 10.5554C33.4939 9.60448 32.4715 8.62978 31.4568 7.64351C33.9774 1.94227 39.284 0.682477 44.7967 1.38264Z" fill="white"/>
<path d="M64.5684 1.26036C64.9035 1.26919 65.2385 1.27802 65.5838 1.28711C66.4049 1.31002 67.2257 1.34511 68.0463 1.38265C66.4385 3.11172 64.707 4.42318 62.7982 5.77718C62.5176 6.00568 62.2371 6.23418 61.948 6.4696C61.8586 7.29237 61.8586 7.29237 62.4944 7.81777C62.7465 8.03467 62.9985 8.25157 63.2582 8.47504C63.5328 8.71514 63.8075 8.95524 64.0905 9.20262C64.3897 9.4629 64.6889 9.72318 64.9972 9.99134C65.6343 10.5598 66.2696 11.1304 66.9029 11.7033C67.1937 11.9646 67.4846 12.2259 67.7842 12.4951C67.9965 12.7019 68.2087 12.9087 68.4274 13.1218C68.4274 13.2509 68.4274 13.38 68.4274 13.5131C61.2164 13.8956 61.2164 13.8956 58.5178 11.5566C57.7907 10.8729 57.0985 10.1751 56.4245 9.43648C55.7821 8.74453 55.0947 8.18072 54.3252 7.64352C54.7929 6.20297 55.3316 5.86936 56.493 4.9533C57.5784 4.09087 58.5841 3.27046 59.5525 2.26767C61.2635 1.05827 62.547 1.15879 64.5684 1.26036Z" fill="white"/>
<path d="M47.4647 1.38265C49.6029 1.38265 51.7411 1.38265 53.9441 1.38265C53.9441 5.38569 53.9441 9.38873 53.9441 13.5131C51.8059 13.5131 49.6677 13.5131 47.4647 13.5131C47.4647 9.51003 47.4647 5.50699 47.4647 1.38265Z" fill="white"/>
<path d="M24.2151 1.38265C26.3533 1.38265 28.4915 1.38265 30.6945 1.38265C30.6945 5.38569 30.6945 9.38873 30.6945 13.5131C28.5563 13.5131 26.4181 13.5131 24.2151 13.5131C24.2151 9.51003 24.2151 5.50699 24.2151 1.38265Z" fill="white"/>
<path d="M54.3252 17.4261C55.4572 17.4261 56.5892 17.4261 57.7555 17.4261C57.8813 18.8466 58.007 20.267 58.1366 21.7305C58.8913 21.7305 59.6459 21.7305 60.4235 21.7305C60.5492 20.31 60.675 18.8896 60.8046 17.4261C61.9366 17.4261 63.0686 17.4261 64.2349 17.4261C64.2658 18.184 64.2879 18.9423 64.3063 19.7006C64.3262 20.3339 64.3262 20.3339 64.3465 20.98C64.2349 22.1218 64.2349 22.1218 63.7302 22.8356C62.2993 23.8663 60.8287 23.7769 59.1371 23.8093C58.3898 23.8312 58.3898 23.8312 57.6274 23.8536C56.009 23.6605 55.386 23.3858 54.3252 22.1218C54.1391 20.9417 54.1391 20.9417 54.2061 19.6761C54.2233 19.2544 54.2405 18.8327 54.2582 18.3983C54.2803 18.0775 54.3024 17.7567 54.3252 17.4261Z" fill="white"/>
<path d="M17.0613 17.3879C17.52 17.3898 17.52 17.3898 17.9881 17.3917C18.4645 17.3966 18.4645 17.3966 18.9506 17.4017C19.4337 17.4043 19.4337 17.4043 19.9265 17.407C20.7208 17.4116 21.5151 17.4186 22.3094 17.4261C22.4352 18.0718 22.561 18.7174 22.6906 19.3826C22.3142 19.3781 21.9379 19.3736 21.5501 19.3689C21.0617 19.3654 20.5734 19.3618 20.0702 19.3582C19.3406 19.3514 19.3406 19.3514 18.5963 19.3444C17.3978 19.292 17.3978 19.292 16.5923 19.7739C16.7181 20.4196 16.8439 21.0653 16.9734 21.7305C18.1054 21.9242 18.1054 21.9242 19.2603 22.1218C19.2603 21.6052 19.2603 21.0887 19.2603 20.5566C20.3923 20.5566 21.5243 20.5566 22.6906 20.5566C22.6906 21.5896 22.6906 22.6226 22.6906 23.687C21.4599 23.7212 20.2293 23.742 18.9983 23.7604C18.4768 23.7751 18.4768 23.7751 17.9449 23.7902C14.6832 23.8267 14.6832 23.8267 13.162 22.5131C12.6207 21.4014 12.661 20.6134 12.7809 19.3826C14.0064 17.7774 15.1217 17.3738 17.0613 17.3879Z" fill="white"/>
<path fill-rule="evenodd" clip-rule="evenodd" d="M22.4389 6.43754C22.1732 4.89754 21.2855 4.12962 20.1253 3.2047C15.4856 -0.0659996 7.98792 -0.134981 3.25238 2.9479C1.81572 4.20193 1.03615 5.16144 0.774963 7.10551C1.00486 8.69872 1.1896 9.74957 2.23848 10.9834C4.42945 13.1375 6.73508 13.8245 9.7273 13.987C13.9365 14.0593 17.9285 13.9131 21.166 10.774C22.2667 9.37117 22.5193 8.19707 22.4389 6.43754ZM14.7092 4.78681C14.4648 4.57604 14.1678 4.42965 13.543 4.12178C11.0895 3.68819 9.26106 3.77 7.82594 6.0783C7.52806 7.7909 7.62928 8.51133 8.5644 9.96689C9.2828 10.4636 9.55905 10.6546 9.86347 10.7591C10.0537 10.8243 10.2549 10.8558 10.5818 10.9069L10.6152 10.9074C12.226 10.9318 13.7042 10.9541 14.9485 9.77124C15.6671 8.40108 15.7585 7.20842 15.4488 5.687C15.1089 5.22185 14.9307 4.97787 14.7092 4.78681Z" fill="white"/>
<path fill-rule="evenodd" clip-rule="evenodd" d="M89.3901 6.0783C88.708 4.49511 87.8228 3.61697 86.46 2.65439C82.4108 0.299414 75.7164 -0.118874 71.4988 2.01241C69.8551 3.15235 68.3176 4.47598 67.8571 6.53075C67.7921 8.63583 68.3407 9.76294 69.5469 11.3609C72.4359 13.7822 75.502 14.0531 79.0937 14.0187C82.3688 13.9322 85.8672 13.4453 88.2466 10.8962C89.2012 9.27312 89.5492 7.97125 89.3901 6.0783ZM81.9754 5.12221C81.6893 4.80238 81.2722 4.60611 80.2429 4.12179C78.1084 3.78434 76.2939 3.80377 74.907 5.68701C74.6402 6.9206 74.6423 7.97489 74.907 9.20875C75.2508 9.69124 75.4292 9.94157 75.6545 10.1341C75.8974 10.3417 76.1947 10.4821 76.8127 10.774C78.7662 11.1159 80.1389 11.1027 81.8151 9.9669C82.6943 8.55278 82.7116 7.72733 82.5298 6.07831C82.3043 5.61543 82.1703 5.34014 81.9754 5.12221Z" fill="white"/>
<path fill-rule="evenodd" clip-rule="evenodd" d="M50.5139 18.9914C49.5853 18.2473 48.9459 17.8305 47.8459 17.4262C47.7586 17.416 47.6697 17.4056 47.5795 17.395C44.83 17.0722 40.7717 16.5957 39.5382 19.774L39.5561 20.5566C39.5475 20.9341 39.543 21.1295 39.5748 21.3185C39.6089 21.5213 39.6847 21.7167 39.842 22.1218C41.0979 23.2424 41.9008 23.6605 43.5625 23.8536L45.0588 23.8093L46.564 23.7803C48.1995 23.6613 49.3825 23.3634 50.5139 22.1218C50.559 21.7614 50.5887 21.5238 50.6031 21.2852C50.6309 20.8234 50.6012 20.3579 50.5139 18.9914ZM47.0835 19.3827L46.3213 18.9914C46.2221 18.9871 46.1251 18.9825 46.0301 18.9781C45.0191 18.9303 44.2264 18.8928 43.2721 19.3827C43.2559 20.1651 43.2566 20.9481 43.2721 21.7305C43.4415 21.9044 43.5356 22.001 43.6485 22.0592C43.7896 22.1321 43.9602 22.1449 44.3441 22.1738L45.1778 22.1707L46.0116 22.1738C46.3955 22.1449 46.566 22.1321 46.7072 22.0592C46.8201 22.001 46.9142 21.9044 47.0835 21.7305C47.0991 20.9481 47.0998 20.1651 47.0835 19.3827Z" fill="white"/>
<path d="M29.7893 17.3528C28.5661 17.3711 27.3439 17.3944 26.1208 17.4262V23.687H29.5511L29.551 18.9913H32.6002L32.6002 20.1653L30.3134 20.5565C31.079 21.4354 31.8944 22.2196 32.7521 23.0038C33.3682 23.4283 33.7374 23.6827 34.1443 23.8109C34.7527 24.0027 35.4454 23.9124 37.1739 23.687C36.7931 23.2458 36.5969 23.0184 36.4116 22.7821C36.2147 22.5309 36.0301 22.2696 35.6493 21.7305C35.6314 21.1329 35.6227 20.8432 35.6493 20.5569C35.6743 20.2877 35.7307 20.0215 35.8399 19.505L36.0305 18.6001C34.2544 17.446 32.8709 17.3001 30.833 17.323L29.7893 17.3528Z" fill="white"/>
<path fill-rule="evenodd" clip-rule="evenodd" d="M71.3337 17.3528C70.1105 17.3711 68.8882 17.3944 67.6652 17.4262V23.687H71.4766V22.1218C72.0636 22.1647 72.6514 22.1947 73.2394 22.2196C75.1016 22.2169 76.197 21.934 77.5749 20.5566C77.6532 19.9671 77.6886 19.7005 77.6811 19.4352C77.6749 19.2163 77.6395 18.9982 77.5749 18.6001C75.7988 17.446 74.4153 17.3001 72.3773 17.323L71.3337 17.3528ZM73.7634 18.9913H71.4765V20.5565H73.7634V18.9913Z" fill="white"/>
</g>
<defs>
<clipPath id="clip0_3952_978">
<rect width="90" height="24" fill="white"/>
</clipPath>
</defs>
</svg>
