<svg width="100" height="100" viewBox="0 0 100 100" fill="none" xmlns="http://www.w3.org/2000/svg">
<path d="M100 25.7951C100 40.0381 88.3434 51.5901 73.9715 51.5901C63.1926 51.5901 53.9495 45.1074 50 35.8521C46.0368 45.0938 36.7937 51.5901 26.0285 51.5901C11.6566 51.5901 0 40.0381 0 25.7951C0 11.5521 11.6566 0 26.0285 0C36.8074 0 46.0505 6.48276 50 15.738C53.9632 6.49635 63.2063 0 73.9715 0C88.3434 0 100 11.5385 100 25.7951ZM98.9166 52.3512C95.5705 52.0522 92.005 52.1337 88.8782 52.5958C88.8645 52.5958 88.8508 52.5958 88.8508 52.5958C83.4476 53.3977 78.401 55.3139 73.7383 58.3446C61.6018 65.3982 52.7564 77.3851 49.9863 91.5194C49.9726 91.5466 49.9726 91.5602 49.9726 91.5738C45.7214 69.7336 26.9473 53.0171 4.00437 51.6852C3.01698 51.6173 2.0159 51.5901 1.0148 51.5901V100H98.9166C98.9166 84.7785 99.0263 53.4792 98.9166 52.3512Z" fill="#FF4E00"/>
</svg>
