<svg width="88" height="28" viewBox="0 0 88 28" fill="none" xmlns="http://www.w3.org/2000/svg">
<g clip-path="url(#clip0_3952_3687)">
<path d="M77.6873 0.680238C78.7405 0.670751 79.7938 0.661264 80.8789 0.651489C81.2086 0.647301 81.5383 0.643114 81.878 0.638799C82.1434 0.637454 82.4087 0.636282 82.6741 0.635318C82.8086 0.632965 82.9431 0.630612 83.0817 0.628187C84.1809 0.627727 85.1754 0.777643 86.0425 1.49478C86.1525 1.63076 86.2626 1.76674 86.3759 1.90684C86.4922 2.03333 86.6086 2.15983 86.7284 2.29015C87.1545 3.17914 87.1695 4.20737 86.885 5.15542C86.5249 5.858 85.9213 6.34088 85.3089 6.81325C85.4252 6.87017 85.5416 6.9271 85.6614 6.98574C86.2701 7.41291 86.4627 7.88814 86.6192 8.61498C86.7046 9.11555 86.7803 9.61662 86.8523 10.1193C86.9034 10.4613 86.9546 10.8033 87.0059 11.1453C87.0277 11.296 87.0496 11.4467 87.0721 11.602C87.1341 12.0008 87.2118 12.3971 87.2905 12.7929C86.3348 12.7929 85.379 12.7929 84.3943 12.7929C84.2919 12.1957 84.1904 11.5984 84.0895 11.001C84.0604 10.8319 84.0313 10.6628 84.0013 10.4886C83.9738 10.325 83.9463 10.1615 83.918 9.99296C83.8797 9.76773 83.8797 9.76773 83.8406 9.53796C83.7874 9.13474 83.7743 8.75263 83.7846 8.34651C83.3692 8.20723 83.08 8.16503 82.6491 8.14467C82.5326 8.13882 82.4162 8.13298 82.2962 8.12696C82.1492 8.12035 82.0021 8.11374 81.8506 8.10694C81.3822 8.0848 80.9137 8.06266 80.4311 8.03986C80.4311 9.60837 80.4311 11.1769 80.4311 12.7929C79.5257 12.7929 78.6202 12.7929 77.6873 12.7929C77.6873 8.79575 77.6873 4.79856 77.6873 0.680238ZM80.2787 2.82679C80.2743 3.30913 80.2715 3.79145 80.2691 4.2738C80.2679 4.41146 80.2666 4.54912 80.2653 4.69095C80.2648 4.82189 80.2643 4.95284 80.2638 5.08774C80.263 5.20899 80.2622 5.33023 80.2614 5.45515C80.2474 5.74242 80.2474 5.74242 80.4311 5.8933C80.8751 5.92523 81.3109 5.9431 81.7554 5.9508C81.8779 5.95653 82.0004 5.96226 82.1266 5.96817C82.7638 5.9776 83.198 5.94735 83.7108 5.54472C84.1574 5.05163 84.234 4.83383 84.2687 4.19594C84.2279 3.74587 84.067 3.47838 83.7846 3.13344C83.2962 2.80593 83.1755 2.78967 82.6158 2.79685C82.4797 2.79783 82.3436 2.79882 82.2034 2.79984C82.0618 2.80241 81.9203 2.80498 81.7744 2.80763C81.6311 2.80901 81.4877 2.81039 81.34 2.81182C80.9862 2.81543 80.6325 2.82048 80.2787 2.82679Z" fill="white"/>
<path d="M10.1603 15.0928C11.1365 15.0772 12.1127 15.0665 13.0891 15.0591C13.4208 15.0561 13.7526 15.0519 14.0843 15.0466C14.5626 15.0391 15.0408 15.0356 15.5192 15.0329C15.6663 15.0298 15.8133 15.0266 15.9649 15.0233C16.9965 15.023 17.8548 15.1931 18.6238 15.9281C19.4153 16.8426 19.5363 17.5392 19.5163 18.7313C19.4198 19.5694 19.0871 20.1362 18.4422 20.6694C18.1915 20.8425 18.1915 20.8425 17.7818 21.0725C17.8921 21.1534 17.8921 21.1534 18.0045 21.236C18.1008 21.3117 18.1971 21.3874 18.2963 21.4654C18.3918 21.5383 18.4873 21.6113 18.5857 21.6864C19.3327 22.5551 19.2992 24.0332 19.4365 25.126C19.5271 25.8095 19.6108 26.4253 19.9159 27.0522C19.3264 27.2463 18.7373 27.2227 18.1248 27.2151C18.0185 27.2144 17.9122 27.2137 17.8027 27.213C17.5417 27.2112 17.2807 27.2085 17.0197 27.2055C16.662 26.2658 16.5613 25.309 16.432 24.3181C16.4137 24.1859 16.3954 24.0536 16.3766 23.9174C16.361 23.798 16.3454 23.6786 16.3293 23.5556C16.2522 23.1944 16.1426 22.9215 15.9526 22.6058C15.6117 22.4343 15.3964 22.4227 15.0178 22.4039C14.9072 22.3981 14.7965 22.3922 14.6825 22.3862C14.542 22.3796 14.4016 22.373 14.2568 22.3662C13.8104 22.3441 13.364 22.3219 12.904 22.2991C12.904 23.9182 12.904 25.5373 12.904 27.2055C12.4796 27.2087 12.0552 27.2119 11.6179 27.2151C11.484 27.2165 11.3501 27.2179 11.2121 27.2193C10.9123 27.2204 10.6124 27.2132 10.3127 27.2055C10.0541 26.9454 10.142 26.6212 10.1413 26.2742C10.1418 26.1629 10.1424 26.0516 10.143 25.937C10.1429 25.8203 10.1429 25.7036 10.1429 25.5834C10.143 25.196 10.1442 24.8086 10.1454 24.4211C10.1457 24.1532 10.1459 23.8853 10.146 23.6174C10.1466 22.9108 10.1481 22.2043 10.1498 21.4978C10.1513 20.7773 10.152 20.0569 10.1528 19.3365C10.1544 17.922 10.1571 16.5074 10.1603 15.0928ZM12.904 17.0861C12.904 18.1486 12.904 19.2111 12.904 20.3059C14.6581 20.4273 14.6581 20.4273 16.2575 19.8459C16.6012 19.4786 16.7108 19.2436 16.7231 18.7391C16.6819 18.0376 16.6819 18.0376 16.354 17.437C15.9241 17.0957 15.5292 17.0673 15.0029 17.0711C14.8375 17.0717 14.8375 17.0717 14.6688 17.0722C14.4602 17.0743 14.4602 17.0743 14.2473 17.0765C13.804 17.0796 13.3607 17.0828 12.904 17.0861Z" fill="white"/>
<path d="M29.5137 15.8918C30.7302 16.9675 31.4269 18.7162 31.5316 20.3203C31.555 22.0305 31.3736 23.7437 30.4336 25.2123C30.3749 25.3048 30.3161 25.3973 30.2556 25.4926C29.5165 26.4955 28.2817 27.1045 27.0801 27.3589C25.0146 27.5314 23.3406 27.4764 21.6974 26.1131C20.4544 24.9177 19.9272 23.4535 19.8727 21.7464C19.8438 19.6813 20.2015 17.7398 21.6498 16.1948C23.7475 14.2261 27.2252 14.2435 29.5137 15.8918ZM23.4408 17.9006C22.5349 19.2165 22.6833 21.0822 22.8121 22.6058C23.0152 23.6166 23.3463 24.4219 24.1839 25.059C24.8825 25.4806 25.6802 25.4461 26.4704 25.3656C27.3557 25.0632 27.8899 24.5104 28.296 23.682C28.8747 22.1018 28.8253 20.0419 28.2918 18.4576C28.1253 18.1142 27.9396 17.834 27.6899 17.546C27.5893 17.546 27.4887 17.546 27.385 17.546C27.385 17.4448 27.385 17.3436 27.385 17.2394C25.9525 16.5189 24.4788 16.5412 23.4408 17.9006Z" fill="white"/>
<path d="M75.0901 1.74154C75.629 2.29406 75.9867 2.89708 76.3155 3.59342C76.3673 3.70272 76.4192 3.81202 76.4727 3.92463C77.1341 5.67116 76.9833 8.038 76.3548 9.76237C75.7236 11.1582 74.8717 12.1167 73.4764 12.7642C71.8099 13.354 69.8761 13.2849 68.2366 12.6396C66.8116 11.8433 65.8765 10.6405 65.4335 9.0842C65.2755 8.35257 65.2744 7.63583 65.2832 6.88991C65.2815 6.74148 65.2797 6.59305 65.2779 6.44012C65.2854 4.55545 65.8714 3.21929 67.0648 1.79185C69.2904 -0.0823872 72.8391 -0.162639 75.0901 1.74154ZM68.9279 3.39877C67.9373 4.84577 67.8786 6.67594 68.1657 8.36687C68.4036 9.32652 68.7088 10.1135 69.4751 10.771C70.3068 11.1165 71.1237 11.1485 72.0093 11.0297C72.8697 10.6302 73.3491 9.98073 73.6955 9.10355C74.2101 7.50825 74.2924 5.50501 73.5324 3.97374C73.0956 3.2618 72.7221 2.7556 71.895 2.52014C70.7065 2.37886 69.7314 2.44397 68.9279 3.39877Z" fill="white"/>
<path d="M0.861942 15.0928C1.63445 15.0775 2.40686 15.0665 3.17949 15.0591C3.44159 15.0561 3.70369 15.0519 3.96576 15.0466C7.3553 14.9791 7.3553 14.9791 8.51611 16.0041C9.44375 16.9791 9.62017 17.903 9.60055 19.2254C9.50549 20.1132 9.12119 20.8004 8.63594 21.5325C8.53534 21.5325 8.43473 21.5325 8.33108 21.5325C8.33108 21.6337 8.33108 21.7349 8.33108 21.8391C7.27149 22.4301 6.3941 22.5319 5.19671 22.4908C4.67168 22.4781 4.14665 22.4655 3.60571 22.4524C3.60571 23.9704 3.60571 25.4883 3.60571 27.0522C3.18128 27.0807 2.75685 27.1091 2.31957 27.1384C2.18567 27.1478 2.05177 27.1572 1.91382 27.1669C1.61432 27.1858 1.31431 27.196 1.01437 27.2055C0.755746 26.9454 0.843698 26.6212 0.842977 26.2742C0.843525 26.1629 0.844073 26.0516 0.844637 25.937C0.844615 25.8203 0.844593 25.7036 0.84457 25.5834C0.844676 25.196 0.845864 24.8085 0.847056 24.4211C0.84734 24.1532 0.847557 23.8853 0.84771 23.6174C0.848293 22.9108 0.849791 22.2043 0.851475 21.4978C0.853032 20.7773 0.85373 20.0569 0.854499 19.3365C0.856136 17.922 0.858739 16.5074 0.861942 15.0928ZM3.60571 17.2394C3.60571 18.3019 3.60571 19.3645 3.60571 20.4592C5.15302 20.5407 5.15302 20.5407 6.48285 19.9034C6.72882 19.3811 6.82735 18.8913 6.80677 18.3127C6.56679 17.7575 6.3969 17.5778 5.89218 17.2394C5.49412 17.2175 5.11725 17.2106 4.72036 17.2202C4.16861 17.2297 4.16861 17.2297 3.60571 17.2394Z" fill="white"/>
<path d="M46.1341 5.43332C46.2871 6.15597 46.3941 6.87389 46.1341 7.57988C45.3705 8.52576 44.1658 9.14567 43.1313 9.74919C42.2633 10.2648 42.2633 10.2648 41.7751 11.1128C41.6551 11.8799 41.6677 12.6331 41.7135 13.4062C41.955 13.2308 42.1963 13.055 42.4376 12.8792C42.5893 12.7687 42.741 12.6582 42.8973 12.5444C43.2329 12.298 43.5641 12.0466 43.8928 11.7909C43.9744 11.7279 44.056 11.6648 44.1401 11.5998C44.3719 11.4202 44.6028 11.2393 44.8336 11.0584C45.2195 10.7997 45.2195 10.7997 45.6768 10.7997C45.7952 12.4589 45.7951 12.4589 45.4005 13.0613C45.2401 13.1751 45.0798 13.2889 44.9146 13.4062C44.7906 13.4983 44.6666 13.5904 44.5389 13.6853C43.3291 14.583 43.3291 14.583 42.824 14.8586C42.3953 15.1141 42.1455 15.2877 41.866 15.7061C41.7016 16.5655 41.7876 17.4475 41.866 18.3127C41.9843 18.2198 42.1026 18.1269 42.2244 18.0312C43.1452 17.3113 44.0737 16.6035 45.0194 15.9169C45.1108 15.8499 45.2022 15.7828 45.2964 15.7137C45.9456 15.2461 45.9456 15.2461 46.2865 15.2461C46.4538 15.9604 46.48 16.5279 46.2865 17.2394C45.6372 18.0658 44.7016 18.6408 43.8476 19.2326C43.5583 19.4462 43.2693 19.6601 42.9806 19.8747C42.8507 19.9674 42.7209 20.06 42.587 20.1556C42.2707 20.3863 41.9619 20.621 41.6546 20.8635C41.5662 20.9331 41.4778 21.0028 41.3868 21.0745C41.2157 21.2099 41.0452 21.346 40.8754 21.4829C40.409 21.8513 39.9798 22.0906 39.4271 22.2991C39.3881 20.7611 39.3584 19.2232 39.3402 17.6847C39.3315 16.9703 39.3196 16.2561 39.3006 15.5419C39.2823 14.8519 39.2723 14.1623 39.268 13.4721C39.2649 13.2094 39.2589 12.9468 39.2498 12.6843C39.1815 10.627 39.1815 10.627 39.7916 9.91339C40.2162 9.60067 40.6365 9.35462 41.1038 9.11313C41.2962 8.97128 41.4861 8.82567 41.6701 8.67292C41.7516 8.60781 41.8332 8.5427 41.9172 8.47561C42.038 8.3785 42.038 8.3785 42.1613 8.27943C45.7352 5.43332 45.7352 5.43332 46.1341 5.43332Z" fill="white"/>
<path d="M53.7556 0.680238C54.3379 1.16626 54.5541 1.55391 54.6893 2.29974C54.7171 2.82319 54.6988 2.93984 54.3844 3.3826C54.2272 3.50277 54.07 3.62294 53.9081 3.74675C53.7939 3.84063 53.6797 3.93451 53.5621 4.03124C52.5932 4.82002 52.5932 4.82002 52.2313 4.82002C52.1559 4.21285 52.1558 4.21285 52.0789 3.59342C51.3196 3.63068 50.8908 3.86607 50.3515 4.37502C48.9586 5.97302 48.7927 8.39765 48.8314 10.4356C48.8939 11.1326 49.0658 11.6896 49.3351 12.333C49.6629 12.4815 49.6629 12.4815 50.0973 12.4863C51.1005 11.9637 51.5594 11.2515 51.9264 10.1864C51.9563 9.90896 51.9817 9.63098 52.0027 9.3527C52.1504 8.27873 52.9381 7.76275 53.7455 7.13787C54.2129 6.81325 54.2129 6.81325 54.6702 6.65993C54.8347 9.09991 53.6304 11.3002 52.0789 13.0996C51.7609 13.4452 51.7609 13.4452 51.4691 13.7129C51.3685 13.7129 51.2679 13.7129 51.1643 13.7129C51.1643 13.8141 51.1643 13.9153 51.1643 14.0195C50.7802 14.2789 50.7802 14.2789 50.2783 14.5658C50.0316 14.7084 50.0316 14.7084 49.7799 14.8539C49.0927 15.223 48.5882 15.3257 47.8108 15.2461C47.047 14.7586 46.7243 14.2746 46.4389 13.4062C45.8983 10.3084 46.6815 6.86903 48.4461 4.28578C48.5383 4.1585 48.6304 4.03121 48.7254 3.90007C48.816 3.76962 48.9066 3.63918 48.9999 3.50478C50.0274 2.10964 51.8488 0.250132 53.7556 0.680238Z" fill="white"/>
<path d="M55.7372 0.680238C58.9566 0.680238 62.1759 0.680238 65.4928 0.680238C65.4928 1.3886 65.4928 2.09696 65.4928 2.82679C64.3359 2.82679 63.1789 2.82679 61.9869 2.82679C61.9869 6.11562 61.9869 9.40445 61.9869 12.7929C61.0815 12.7929 60.176 12.7929 59.2431 12.7929C59.2431 9.50411 59.2431 6.21528 59.2431 2.82679C58.0862 2.82679 56.9292 2.82679 55.7372 2.82679C55.7372 2.11843 55.7372 1.41007 55.7372 0.680238Z" fill="white"/>
<path d="M38.2076 11.413C38.2193 12.5775 38.2273 13.7419 38.2327 14.9064C38.235 15.3018 38.2381 15.6972 38.2421 16.0926C38.2477 16.6639 38.2503 17.2352 38.2523 17.8066C38.2546 17.9807 38.257 18.1549 38.2594 18.3344C38.2598 20.0351 37.9575 21.6253 37.1597 23.1328C37.1099 23.2331 37.0602 23.3334 37.009 23.4368C36.4863 24.4586 35.8523 25.2021 34.9113 25.8735C34.7679 25.9773 34.6244 26.081 34.4766 26.1879C33.7332 26.673 32.9734 26.699 32.1104 26.5922C31.637 26.2438 31.3882 25.9264 31.2958 25.3393C31.2331 24.2988 31.2331 24.2988 31.5489 23.8605C31.826 23.6217 32.1096 23.4195 32.4152 23.2191C32.6122 23.0723 32.8091 22.9254 33.0059 22.7783C33.4823 22.4524 33.4823 22.4524 33.6347 22.4524C33.685 22.9584 33.7353 23.4644 33.7871 23.9857C34.4394 23.9552 34.6593 23.875 35.1304 23.4011C35.6027 22.7089 35.6351 22.2344 35.6258 21.4045C35.6244 21.2243 35.623 21.0441 35.6216 20.8585C35.6199 20.6643 35.6181 20.47 35.6163 20.2699C35.6161 19.8583 35.6163 19.4466 35.6169 19.035C35.6178 18.3862 35.617 17.7376 35.6085 17.0889C35.603 16.6656 35.6012 16.2426 35.6035 15.8193C35.6056 15.4213 35.6027 15.0233 35.594 14.6254C35.6118 13.3058 35.6118 13.3058 36.0635 12.7124C36.4086 12.3995 36.7553 12.1332 37.1406 11.873C37.2465 11.7866 37.3524 11.7002 37.4615 11.6111C37.7503 11.413 37.7503 11.413 38.2076 11.413Z" fill="white"/>
<path d="M10.1603 15.0928C11.1505 15.0851 12.1407 15.0797 13.1309 15.076C13.4679 15.0744 13.8049 15.0723 14.1418 15.0697C14.6257 15.066 15.1097 15.0642 15.5936 15.0629C15.7446 15.0613 15.8956 15.0597 16.0512 15.0581C16.1916 15.0581 16.3319 15.058 16.4765 15.058C16.6618 15.057 16.6618 15.057 16.8509 15.0559C17.1721 15.0928 17.1721 15.0928 17.6294 15.3995C15.2652 15.3489 12.901 15.2983 10.4651 15.2461C10.4651 19.0915 10.4651 22.9369 10.4651 26.8989C11.2197 26.8989 11.9742 26.8989 12.7516 26.8989C12.7516 25.3304 12.7516 23.7618 12.7516 22.1458C13.7576 22.1458 14.7637 22.1458 15.8002 22.1458C15.8505 22.247 15.9008 22.3482 15.9526 22.4524C14.9466 22.4018 13.9406 22.3512 12.904 22.2991C12.904 23.9182 12.904 25.5373 12.904 27.2055C12.4796 27.2087 12.0552 27.2119 11.6179 27.2151C11.484 27.2165 11.3501 27.2179 11.2121 27.2193C10.9123 27.2204 10.6124 27.2132 10.3127 27.2055C10.0541 26.9454 10.142 26.6212 10.1413 26.2742C10.1418 26.1629 10.1424 26.0516 10.143 25.937C10.1429 25.8203 10.1429 25.7036 10.1429 25.5834C10.143 25.196 10.1442 24.8086 10.1454 24.4211C10.1457 24.1532 10.1459 23.8853 10.146 23.6174C10.1466 22.9108 10.1481 22.2043 10.1498 21.4978C10.1513 20.7773 10.152 20.0569 10.1528 19.3365C10.1544 17.922 10.1571 16.5074 10.1603 15.0928Z" fill="white"/>
<path d="M0.861942 15.0928C1.64562 15.0852 2.42927 15.0797 3.21298 15.076C3.47924 15.0744 3.7455 15.0724 4.01176 15.0697C4.39583 15.0659 4.77987 15.0642 5.16396 15.0629C5.28182 15.0613 5.39968 15.0597 5.52111 15.0581C6.26126 15.0579 6.86629 15.1629 7.56892 15.3995C6.9592 15.5528 6.9592 15.5528 5.13002 15.3995C3.16823 15.3236 3.16823 15.3236 1.1668 15.2461C1.1668 19.0915 1.1668 22.9369 1.1668 26.8989C1.92134 26.8989 2.67588 26.8989 3.45327 26.8989C3.45327 25.4316 3.45327 23.9642 3.45327 22.4524C3.50358 22.4524 3.55388 22.4524 3.60571 22.4524C3.60571 23.9704 3.60571 25.4883 3.60571 27.0522C3.18128 27.0807 2.75685 27.1091 2.31957 27.1384C2.18567 27.1478 2.05177 27.1572 1.91382 27.1669C1.61432 27.1858 1.31431 27.196 1.01437 27.2055C0.755746 26.9454 0.843698 26.6212 0.842977 26.2742C0.843525 26.1629 0.844073 26.0516 0.844637 25.937C0.844615 25.8203 0.844593 25.7036 0.84457 25.5834C0.844676 25.196 0.845864 24.8085 0.847056 24.4211C0.84734 24.1532 0.847557 23.8853 0.84771 23.6174C0.848293 22.9108 0.849791 22.2043 0.851475 21.4978C0.853032 20.7773 0.85373 20.0569 0.854499 19.3365C0.856136 17.922 0.858739 16.5074 0.861942 15.0928Z" fill="white"/>
<path d="M51.6216 1.29354C51.3821 1.90942 50.9775 2.24442 50.4879 2.67347C49.9915 3.10957 49.5705 3.51915 49.1827 4.0534C48.8492 4.24505 48.8492 4.24505 48.573 4.36005C49.0563 3.31956 50.3429 1.29354 51.6216 1.29354Z" fill="white"/>
<path d="M16.7148 25.059C16.7651 25.059 16.8154 25.059 16.8672 25.059C16.9175 25.6661 16.9678 26.2733 17.0197 26.8989C17.8245 26.8989 18.6293 26.8989 19.4586 26.8989C19.5089 26.6965 19.5592 26.4941 19.611 26.2856C19.7116 26.5386 19.8122 26.7915 19.9159 27.0522C19.3264 27.2463 18.7373 27.2227 18.1248 27.2151C18.0185 27.2144 17.9122 27.2137 17.8027 27.213C17.5417 27.2112 17.2807 27.2085 17.0197 27.2055C16.7403 26.4332 16.687 25.8703 16.7148 25.059Z" fill="white"/>
<path d="M27.9947 23.9857C28.0953 24.1881 28.1959 24.3905 28.2996 24.599C28.1738 24.6686 28.0481 24.7381 27.9185 24.8098C27.7928 24.892 27.667 24.9743 27.5374 25.059C27.5374 25.1602 27.5374 25.2614 27.5374 25.3656C27.3865 25.4162 27.2356 25.4668 27.0801 25.5189C26.9795 25.6201 26.8789 25.7213 26.7753 25.8256C26.7753 25.7244 26.7753 25.6232 26.7753 25.5189C26.0207 25.5189 25.2662 25.5189 24.4888 25.5189C24.4888 25.4178 24.4888 25.3166 24.4888 25.2123C24.6212 25.2176 24.7537 25.223 24.8901 25.2285C26.2129 25.291 26.2129 25.291 27.385 24.7523C27.7422 24.3611 27.7422 24.3611 27.9947 23.9857Z" fill="white"/>
<path d="M22.6596 15.3995C22.7602 15.4501 22.8608 15.5007 22.9645 15.5528C22.5649 16.1675 22.0297 16.6574 21.4402 17.0861C21.3396 17.0861 21.239 17.0861 21.1353 17.0861C21.1353 17.2378 21.1353 17.3896 21.1353 17.546C21.0347 17.546 20.9341 17.546 20.8305 17.546C21.0913 16.5838 21.8598 15.9358 22.6596 15.3995Z" fill="white"/>
<path d="M7.72135 21.9925C7.35859 22.3574 7.10907 22.4452 6.59944 22.4698C6.46134 22.469 6.32325 22.4682 6.18096 22.4674C6.03114 22.4669 5.88131 22.4664 5.72694 22.4659C5.57083 22.4646 5.41472 22.4633 5.25387 22.462C5.09599 22.4613 4.93811 22.4606 4.77544 22.4599C4.38552 22.4581 3.99562 22.4556 3.60571 22.4524C3.60571 22.4018 3.60571 22.3512 3.60571 22.2991C3.73491 22.2934 3.73491 22.2934 3.86673 22.2875C4.25611 22.2697 4.64543 22.2509 5.03475 22.232C5.23812 22.223 5.23812 22.223 5.4456 22.2138C5.57529 22.2073 5.70497 22.2009 5.83859 22.1943C5.95833 22.1887 6.07806 22.1831 6.20143 22.1773C6.73645 22.1212 7.15145 21.98 7.72135 21.9925Z" fill="white"/>
<path d="M67.6269 1.29354C67.7275 1.34414 67.8281 1.39473 67.9317 1.44686C67.7646 1.64908 67.596 1.8501 67.4268 2.05058C67.3331 2.16265 67.2393 2.27471 67.1428 2.39018C66.8647 2.67347 66.8647 2.67347 66.4074 2.82679C66.6448 2.24084 67.0223 1.87829 67.4744 1.44686C67.5247 1.39627 67.5751 1.34567 67.6269 1.29354Z" fill="white"/>
<path d="M68.5415 3.74674C68.5918 3.84794 68.6421 3.94913 68.6939 4.0534C68.5947 4.30991 68.4926 4.56529 68.389 4.82002C68.3317 5.12551 68.2793 5.43208 68.2366 5.73997C68.1863 5.73997 68.136 5.73997 68.0842 5.73997C68.0718 5.46538 68.063 5.19063 68.0556 4.91585C68.0503 4.76287 68.045 4.60989 68.0395 4.45228C68.0616 4.25483 68.0616 4.25483 68.0842 4.0534C68.2351 3.9522 68.386 3.85101 68.5415 3.74674Z" fill="white"/>
<path d="M37.1406 11.873C37.2412 11.9236 37.3418 11.9742 37.4455 12.0263C37.0263 12.6205 37.0263 12.6205 36.6833 12.7929C36.633 12.8941 36.5827 12.9953 36.5309 13.0996C36.38 12.9984 36.2291 12.8972 36.0736 12.7929C36.4257 12.4894 36.7778 12.1858 37.1406 11.873Z" fill="white"/>
<path d="M49.1827 3.28677C49.3336 3.33737 49.4845 3.38796 49.64 3.44009C49.333 3.9033 49.0862 4.14641 48.573 4.36005C48.7565 3.97771 48.9471 3.64226 49.1827 3.28677Z" fill="white"/>
<path d="M7.72135 21.9925C7.26312 22.4534 6.83362 22.3905 6.19704 22.4524C6.70288 21.9828 7.04326 21.946 7.72135 21.9925Z" fill="white"/>
<path d="M52.0789 3.59342C52.3075 3.80424 52.3075 3.80424 52.5362 4.0534C52.5362 4.15459 52.5362 4.25579 52.5362 4.36005C52.6368 4.41064 52.7374 4.46124 52.841 4.51337C52.5392 4.66516 52.5392 4.66516 52.2313 4.82002C52.181 4.41524 52.1307 4.01047 52.0789 3.59342Z" fill="white"/>
</g>
<defs>
<clipPath id="clip0_3952_3687">
<rect width="88" height="28" fill="white"/>
</clipPath>
</defs>
</svg>
