<svg width="180" height="40" viewBox="0 0 180 40" fill="none" xmlns="http://www.w3.org/2000/svg">
<g clip-path="url(#clip0_364_4340)">
<path d="M44.1309 27.8956H36.477V25.4282H44.1882C45.1993 25.4282 46.096 24.7057 46.096 23.5196C46.096 22.4178 45.1957 21.7133 44.1882 21.7133H40.5394C38.0116 21.7157 36 19.8818 36 17.3181C36 14.7772 38.0986 13.0059 40.6265 13.0059H48.1481V15.5154H40.6503C39.6392 15.5154 38.7425 16.2283 38.7425 17.3217C38.7425 18.503 39.644 19.2098 40.6503 19.2098H44.1536C46.6814 19.2098 48.8385 21.0161 48.8385 23.5871C48.8385 26.1315 46.6159 27.8788 44.1309 27.8992" fill="white"/>
<path d="M63.8056 13.0059L55.528 19.9191L63.7423 27.8956H60.1616L53.5057 21.4508L52.9369 20.9402V27.8956H50.1992V13.0059H52.9369V19.1099L60.0781 13.0059H63.8056Z" fill="white"/>
<path d="M67.0814 25.3427H75.5069V27.8956H64.3438V13.0059H75.2959V15.5575H67.0814V19.2387L74.8749 19.2171V21.7061H67.0814V25.3427Z" fill="white"/>
<path d="M80.2663 25.3427H88.2064V27.8956H77.5273V13.0059H80.2663V25.3427Z" fill="white"/>
<path d="M102.058 27.8956L100.457 24.1301H93.0638L91.4624 27.8956H88.7461L95.1277 13.0059H98.4355L104.839 27.8956H102.058ZM94.1381 21.6206H99.3846L96.7709 15.4516L94.1381 21.6206Z" fill="white"/>
<path d="M118.29 27.8956H114.713L108.139 21.5146V27.8968H105.396V13.0059H113.719C116.247 13.0059 118.143 14.782 118.143 17.2807C118.143 19.7517 116.269 21.4954 113.783 21.5146H113.719L111.529 21.4713L118.29 27.8956ZM108.139 15.5154V19.1111L113.552 19.0894C114.564 19.0894 115.405 18.4416 115.405 17.2831C115.405 16.1669 114.564 15.5178 113.552 15.5178L108.139 15.5154Z" fill="white"/>
<path d="M134.317 22.7803H129.266V27.8812H134.317V22.7803Z" fill="white"/>
<path d="M137.308 19.7588H130.477V26.6576H137.308V19.7588Z" fill="white"/>
<path d="M140.587 16.4468H131.975V25.1446H140.587V16.4468Z" fill="white"/>
<path d="M144 13H133.607V23.4957H144V13Z" fill="white"/>
</g>
<defs>
<clipPath id="clip0_364_4340">
<rect width="108" height="15" fill="white" transform="translate(36 13)"/>
</clipPath>
</defs>
</svg>
