<svg width="120" height="18" viewBox="0 0 120 18" fill="none" xmlns="http://www.w3.org/2000/svg">
<path d="M14.1309 16.9964H6.47696V14.5123H14.1882C15.1993 14.5123 16.096 13.7848 16.096 12.5908C16.096 11.4815 15.1957 10.7722 14.1882 10.7722H10.5394C8.01156 10.7747 6 8.92826 6 6.34719C6 3.78915 8.09861 2.00579 10.6265 2.00579H18.1481V4.53231H10.6503C9.63917 4.53231 8.7425 5.25001 8.7425 6.35082C8.7425 7.54013 9.64395 8.25177 10.6503 8.25177H14.1536C16.6814 8.25177 18.8385 10.0703 18.8385 12.6587C18.8385 15.2203 16.6159 16.9794 14.1309 17" fill="white"/>
<path d="M33.8056 2.00565L25.528 8.9657L33.7423 16.9963H30.1616L23.5057 10.5078L22.9369 9.99376V16.9963H20.1992V2.00565H22.9369V8.15101L30.0781 2.00565H33.8056Z" fill="white"/>
<path d="M37.0814 14.426H45.5069V16.9963H34.3438V2.00565H45.2959V4.5746H37.0814V8.28073L44.8749 8.25891V10.7648H37.0814V14.426Z" fill="white"/>
<path d="M50.2663 14.426H58.2064V16.9963H47.5273V2.00565H50.2663V14.426Z" fill="white"/>
<path d="M72.0579 16.9963L70.4566 13.2052H63.0638L61.4624 16.9963H58.7461L65.1278 2.00565H68.4355L74.8386 16.9963H72.0579ZM64.1381 10.6787H69.3846L66.7709 4.46792L64.1381 10.6787Z" fill="white"/>
<path d="M88.2898 16.9963H84.7126L78.139 10.572V16.9974H75.3965V2.00565H83.7193C86.2473 2.00565 88.1431 3.79386 88.1431 6.30946C88.1431 8.79719 86.2687 10.5527 83.7826 10.572H83.7193L81.5289 10.5284L88.2898 16.9963ZM78.139 4.53217V8.15223L83.5525 8.1304C84.5636 8.1304 85.4054 7.47816 85.4054 6.31188C85.4054 5.18805 84.5636 4.5346 83.5525 4.5346L78.139 4.53217Z" fill="white"/>
<path d="M104.317 11.8467H99.2656V16.9823H104.317V11.8467Z" fill="white"/>
<path d="M107.308 8.80431H100.477V15.7499H107.308V8.80431Z" fill="white"/>
<path d="M110.587 5.47012H101.975V14.2268H110.587V5.47012Z" fill="white"/>
<path d="M114 2H103.607V12.5668H114V2Z" fill="white"/>
</svg>
