<svg width="40" height="40" viewBox="0 0 40 40" fill="none" xmlns="http://www.w3.org/2000/svg">
<path d="M0.75 20C0.75 9.36852 9.36852 0.75 20 0.75C30.6315 0.75 39.25 9.36852 39.25 20C39.25 30.6315 30.6315 39.25 20 39.25C9.36852 39.25 0.75 30.6315 0.75 20Z" stroke="#B6B6B6" stroke-width="1.5"/>
<path d="M20.0052 12.6227C22.4099 12.6227 22.6947 12.6332 23.6404 12.6754C24.5193 12.7141 24.9939 12.8617 25.3103 12.9848C25.7287 13.1465 26.031 13.3434 26.3439 13.6563C26.6603 13.9727 26.8537 14.2715 27.0154 14.6898C27.1385 15.0063 27.2861 15.4844 27.3248 16.3598C27.367 17.309 27.3775 17.5938 27.3775 19.9949C27.3775 22.3996 27.367 22.6844 27.3248 23.6301C27.2861 24.509 27.1385 24.9836 27.0154 25.3C26.8537 25.7184 26.6568 26.0207 26.3439 26.3336C26.0275 26.65 25.7287 26.8434 25.3103 27.0051C24.9939 27.1281 24.5158 27.2758 23.6404 27.3145C22.6912 27.3566 22.4064 27.3672 20.0052 27.3672C17.6006 27.3672 17.3158 27.3566 16.3701 27.3145C15.4912 27.2758 15.0166 27.1281 14.7002 27.0051C14.2818 26.8434 13.9795 26.6465 13.6666 26.3336C13.3502 26.0172 13.1568 25.7184 12.9951 25.3C12.872 24.9836 12.7244 24.5055 12.6857 23.6301C12.6435 22.6809 12.633 22.3961 12.633 19.9949C12.633 17.5902 12.6435 17.3055 12.6857 16.3598C12.7244 15.4809 12.872 15.0063 12.9951 14.6898C13.1568 14.2715 13.3537 13.9691 13.6666 13.6563C13.983 13.3398 14.2818 13.1465 14.7002 12.9848C15.0166 12.8617 15.4947 12.7141 16.3701 12.6754C17.3158 12.6332 17.6006 12.6227 20.0052 12.6227ZM20.0052 11.002C17.5619 11.002 17.256 11.0125 16.2963 11.0547C15.34 11.0969 14.6826 11.2516 14.1131 11.473C13.5189 11.7051 13.0162 12.0109 12.517 12.5137C12.0142 13.0129 11.7084 13.5156 11.4763 14.1063C11.2549 14.6793 11.1002 15.3332 11.058 16.2895C11.0158 17.2527 11.0052 17.5586 11.0052 20.002C11.0052 22.4453 11.0158 22.7512 11.058 23.7109C11.1002 24.6672 11.2549 25.3246 11.4763 25.8941C11.7084 26.4883 12.0142 26.991 12.517 27.4902C13.0162 27.9895 13.5189 28.2988 14.1095 28.5273C14.6826 28.7488 15.3365 28.9035 16.2927 28.9457C17.2525 28.9879 17.5584 28.9984 20.0017 28.9984C22.4451 28.9984 22.751 28.9879 23.7107 28.9457C24.667 28.9035 25.3244 28.7488 25.8939 28.5273C26.4845 28.2988 26.9873 27.9895 27.4865 27.4902C27.9857 26.991 28.2951 26.4883 28.5236 25.8977C28.7451 25.3246 28.8998 24.6707 28.942 23.7145C28.9842 22.7547 28.9947 22.4488 28.9947 20.0055C28.9947 17.5621 28.9842 17.2563 28.942 16.2965C28.8998 15.3402 28.7451 14.6828 28.5236 14.1133C28.3021 13.5156 27.9963 13.0129 27.4935 12.5137C26.9943 12.0145 26.4916 11.7051 25.901 11.4766C25.3279 11.2551 24.674 11.1004 23.7177 11.0582C22.7545 11.0125 22.4486 11.002 20.0052 11.002Z" fill="#B6B6B6"/>
<path d="M20.0053 15.3789C17.4529 15.3789 15.3822 17.4496 15.3822 20.002C15.3822 22.5543 17.4529 24.625 20.0053 24.625C22.5576 24.625 24.6283 22.5543 24.6283 20.002C24.6283 17.4496 22.5576 15.3789 20.0053 15.3789ZM20.0053 23.0008C18.3494 23.0008 17.0064 21.6578 17.0064 20.002C17.0064 18.3461 18.3494 17.0031 20.0053 17.0031C21.6611 17.0031 23.0041 18.3461 23.0041 20.002C23.0041 21.6578 21.6611 23.0008 20.0053 23.0008Z" fill="#B6B6B6"/>
<path d="M25.8904 15.196C25.8904 15.7937 25.4053 16.2753 24.8111 16.2753C24.2135 16.2753 23.7318 15.7901 23.7318 15.196C23.7318 14.5983 24.217 14.1167 24.8111 14.1167C25.4053 14.1167 25.8904 14.6019 25.8904 15.196Z" fill="#B6B6B6"/>
</svg>
