<svg width="40" height="40" viewBox="0 0 40 40" fill="none" xmlns="http://www.w3.org/2000/svg">
<path d="M0.75 20C0.75 9.36852 9.36852 0.75 20 0.75C30.6315 0.75 39.25 9.36852 39.25 20C39.25 30.6315 30.6315 39.25 20 39.25C9.36852 39.25 0.75 30.6315 0.75 20Z" stroke="#B6B6B6" stroke-width="1.5"/>
<path d="M19.9999 11.0327C15.0294 11.0327 10.9999 15.0622 10.9999 20.0327C10.9999 24.2534 13.9058 27.795 17.8258 28.7678V22.7831H15.97V20.0327H17.8258V18.8476C17.8258 15.7844 19.2122 14.3645 22.2196 14.3645C22.7899 14.3645 23.7738 14.4765 24.1762 14.5881V17.0811C23.9638 17.0588 23.5948 17.0476 23.1366 17.0476C21.6609 17.0476 21.0907 17.6067 21.0907 19.06V20.0327H24.0304L23.5254 22.7831H21.0907V28.9668C25.5471 28.4286 29.0002 24.6342 29.0002 20.0327C28.9999 15.0622 24.9704 11.0327 19.9999 11.0327Z" fill="#B6B6B6"/>
</svg>
