<svg width="40" height="40" viewBox="0 0 40 40" fill="none" xmlns="http://www.w3.org/2000/svg">
<path d="M0.75 20C0.75 9.36852 9.36852 0.75 20 0.75C30.6315 0.75 39.25 9.36852 39.25 20C39.25 30.6315 30.6315 39.25 20 39.25C9.36852 39.25 0.75 30.6315 0.75 20Z" stroke="#B6B6B6" stroke-width="1.5"/>
<path d="M28.8207 16.4016C28.8207 16.4016 28.6449 15.1605 28.1035 14.6156C27.418 13.8984 26.6516 13.8949 26.3 13.8527C23.7828 13.6699 20.0035 13.6699 20.0035 13.6699H19.9965C19.9965 13.6699 16.2172 13.6699 13.7 13.8527C13.3484 13.8949 12.582 13.8984 11.8965 14.6156C11.3551 15.1605 11.1828 16.4016 11.1828 16.4016C11.1828 16.4016 11 17.8605 11 19.316V20.6801C11 22.1355 11.1793 23.5945 11.1793 23.5945C11.1793 23.5945 11.3551 24.8355 11.893 25.3805C12.5785 26.0977 13.4785 26.073 13.8793 26.1504C15.3207 26.2875 20 26.3297 20 26.3297C20 26.3297 23.7828 26.3227 26.3 26.1434C26.6516 26.1012 27.418 26.0977 28.1035 25.3805C28.6449 24.8355 28.8207 23.5945 28.8207 23.5945C28.8207 23.5945 29 22.1391 29 20.6801V19.316C29 17.8605 28.8207 16.4016 28.8207 16.4016ZM18.1402 22.3359V17.277L23.0023 19.8152L18.1402 22.3359Z" fill="#B6B6B6"/>
</svg>
