<svg width="100" height="100" viewBox="0 0 100 100" fill="none" xmlns="http://www.w3.org/2000/svg">
<path fill-rule="evenodd" clip-rule="evenodd" d="M75 50C88.8071 50 100 38.8071 100 25C100 11.1929 88.8071 0 75 0C61.1929 0 50 11.1929 50 25C50 11.1929 38.8071 0 25 0C11.1929 0 0 11.1929 0 25C0 38.8071 11.1929 50 25 50C11.1929 50 0 61.1929 0 75C0 88.8071 11.1929 100 25 100C38.8071 100 50 88.8071 50 75C50 88.8071 61.1929 100 75 100C88.8071 100 100 88.8071 100 75C100 61.1929 88.8071 50 75 50ZM75 50C61.1929 50 50 61.1929 50 75C50 61.1929 38.8071 50 25 50C38.8071 50 50 38.8071 50 25C50 38.8071 61.1929 50 75 50Z" fill="#E7FF00"/>
</svg>
