<svg width="93" height="100" viewBox="0 0 93 100" fill="none" xmlns="http://www.w3.org/2000/svg">
<path fill-rule="evenodd" clip-rule="evenodd" d="M45.8242 80.8658C46.0599 81.4396 46.2849 82.0174 46.499 82.5987C46.713 82.0174 46.938 81.4396 47.1738 80.8658C49.6664 74.7995 53.3199 69.2876 57.9256 64.6447C62.5314 60.0017 67.9992 56.3188 74.0169 53.806C80.0347 51.2933 86.4844 50 92.9979 50V100H49.5997H43.3982H-1.14441e-05L-1.52588e-05 50C6.51351 50 12.9633 51.2933 18.981 53.806C24.9987 56.3188 30.4665 60.0017 35.0723 64.6447C39.678 69.2876 43.3315 74.7995 45.8242 80.8658Z" fill="#DCDCDC"/>
<path fill-rule="evenodd" clip-rule="evenodd" d="M47.1738 19.1342C46.938 18.5604 46.713 17.9826 46.499 17.4013C46.2849 17.9826 46.06 18.5604 45.8242 19.1342C43.3316 25.2004 39.6781 30.7124 35.0723 35.3553C30.4665 39.9983 24.9987 43.6812 18.981 46.194C12.9633 48.7067 6.51353 50 7.62939e-06 50L1.20005e-05 -8.13014e-06L43.3982 -4.33615e-06L49.5997 -3.79399e-06L92.9979 0L92.9979 50C86.4844 50 80.0347 48.7067 74.017 46.194C67.9992 43.6812 62.5314 39.9983 57.9256 35.3553C53.3199 30.7124 49.6664 25.2004 47.1738 19.1342Z" fill="#DCDCDC"/>
</svg>
