<svg width="24" height="24" viewBox="0 0 24 24" fill="none" xmlns="http://www.w3.org/2000/svg">
<path d="M6.76448 22C3.8119 22.0031 1.31695 19.7584 1.03219 16.8303C0.856813 15.0294 1.39742 13.4597 2.66783 12.1774C5.48274 9.33479 8.31839 6.5136 11.1471 3.68486C11.5048 3.32718 11.9562 3.30895 12.273 3.62891C12.5816 3.94133 12.5577 4.40462 12.2057 4.75727C9.37257 7.59229 6.53189 10.4198 3.70692 13.263C2.53143 14.446 2.14672 15.8824 2.60434 17.4809C3.05694 19.0619 4.13375 20.0733 5.73607 20.4511C7.22587 20.8031 8.57424 20.4341 9.65859 19.3592C13.368 15.6812 17.0567 11.9819 20.7416 8.27936C21.577 7.44017 21.7983 6.41491 21.3677 5.31044C20.9402 4.21352 20.0866 3.62954 18.9148 3.55914C18.1259 3.51136 17.4307 3.78984 16.8706 4.3493C13.9231 7.29182 10.9793 10.2387 8.03804 13.1875C7.51755 13.7099 7.51378 14.4781 8.00912 14.9803C8.51578 15.4939 9.28959 15.4826 9.83523 14.9382C11.6903 13.0882 13.5409 11.2338 15.3915 9.37942C15.5575 9.21284 15.7353 9.08586 15.9824 9.08209C16.2847 9.07769 16.5154 9.20467 16.6613 9.46554C16.8128 9.73647 16.792 10.0074 16.6173 10.2639C16.5777 10.3217 16.528 10.3733 16.4784 10.4229C14.6045 12.2981 12.7369 14.1801 10.8536 16.0458C9.46121 17.425 7.16804 16.9912 6.37285 15.2148C5.92277 14.209 6.11952 12.9839 6.899 12.2012C9.89432 9.19524 12.8796 6.17918 15.9095 3.209C17.1409 2.00207 18.6703 1.70411 20.289 2.29123C21.907 2.87836 22.8481 4.08591 23.0668 5.80076C23.2441 7.18935 22.7827 8.38057 21.7983 9.36685C19.8207 11.3489 17.8387 13.3271 15.8586 15.3072C14.211 16.9542 12.5646 18.6024 10.9158 20.2481C9.74722 21.4141 8.35737 21.9981 6.76448 22Z" fill="white"/>
</svg>
