<svg width="58" height="36" viewBox="0 0 58 36" fill="none" xmlns="http://www.w3.org/2000/svg">
<path d="M33.1429 18C38.0296 12.2625 42.5735 6.99289 47.4088 1.71894C49.9293 -1.0277 53.9931 -0.314874 56.2907 2.66605C58.5626 5.61209 58.5926 10.1433 56.2435 13.1093C54.949 14.7443 53.4031 15.9612 51.5556 18C53.0945 19.5852 54.5332 21.085 55.7592 22.5007C58.5883 25.7857 58.6655 30.6559 56.0121 33.7365C53.3286 36.852 49.2435 36.7473 46.3457 33.4474C41.9433 28.4426 37.5624 23.0546 33.1429 18Z" fill="#151515"/>
<path d="M15.1905 12.4134C14.1044 15.9886 11.2166 18.5455 7.8254 18.5455C3.50363 18.5455 0 14.3938 0 9.27273C0 4.15163 3.50363 1.06748e-08 7.8254 1.06748e-08C11.2166 1.06748e-08 14.1044 2.55682 15.1905 6.1321C16.2765 2.55682 19.1643 1.06748e-08 22.5556 1.06748e-08C26.8773 1.06748e-08 30.381 4.15163 30.381 9.27273C30.381 14.3938 26.8773 18.5455 22.5556 18.5455C19.1643 18.5455 16.2765 15.9886 15.1905 12.4134Z" fill="#151515"/>
<path d="M15.1905 32.6262C15.003 31.7304 14.7589 30.8504 14.4594 29.9939C13.6729 27.7438 12.5201 25.6994 11.0668 23.9773C9.61347 22.2552 7.88814 20.8891 5.9893 19.9571C4.09046 19.0251 2.05529 18.5455 0 18.5455V36H30.381V18.5456C28.3257 18.5456 26.2905 19.0253 24.3917 19.9573C22.4928 20.8893 20.7675 22.2553 19.3142 23.9774C17.8609 25.6995 16.708 27.7439 15.9215 29.994C15.6221 30.8505 15.378 31.7305 15.1905 32.6262Z" fill="#151515"/>
</svg>
