<svg width="48" height="48" viewBox="0 0 48 48" fill="none" xmlns="http://www.w3.org/2000/svg">
<path d="M27.4286 24C31.4728 20.175 35.2332 16.6619 39.2349 13.146C41.3208 11.3149 44.6839 11.7901 46.5854 13.7774C48.4656 15.7414 48.4904 18.7622 46.5464 20.7395C45.475 21.8295 44.1957 22.6408 42.6667 24C43.9402 25.0568 45.1309 26.0567 46.1455 27.0005C48.4869 29.1905 48.5508 32.4372 46.3548 34.491C44.1341 36.568 40.7532 36.4982 38.3551 34.2982C34.7117 30.9617 31.0861 27.3697 27.4286 24Z" fill="#151515"/>
<path d="M12.5714 20.2756C11.6726 22.6591 9.28274 24.3636 6.47619 24.3636C2.89955 24.3636 0 21.5959 0 18.1818C0 14.7678 2.89955 12 6.47619 12C9.28274 12 11.6726 13.7045 12.5714 16.0881C13.4702 13.7045 15.8601 12 18.6667 12C22.2433 12 25.1429 14.7678 25.1429 18.1818C25.1429 21.5959 22.2433 24.3636 18.6667 24.3636C15.8601 24.3636 13.4702 22.6591 12.5714 20.2756Z" fill="#151515"/>
<path d="M12.5714 33.7508C12.4163 33.1536 12.2142 32.567 11.9664 31.9959C11.3155 30.4959 10.3615 29.1329 9.15872 27.9849C7.95598 26.8368 6.52812 25.9261 4.95666 25.3048C3.38521 24.6834 1.70093 24.3636 0 24.3636V36H25.1429V24.3637C23.4419 24.3637 21.7577 24.6835 20.1862 25.3048C18.6147 25.9262 17.1869 26.8369 15.9841 27.9849C14.7814 29.133 13.8273 30.496 13.1764 31.996C12.9286 32.567 12.7266 33.1536 12.5714 33.7508Z" fill="#151515"/>
</svg>
